<svg width="95" height="97" viewBox="0 0 95 97" fill="none" xmlns="http://www.w3.org/2000/svg">
<circle cx="47.5" cy="49.5" r="47" fill="white" stroke="#DDC4A3"/>
<path d="M27.4018 38.7413C25.5614 37.8793 24.1199 36.4065 23.3509 34.6022C22.607 32.8989 22.5867 30.9878 23.2942 29.268C23.913 27.8524 24.9985 26.664 26.3883 25.8807C27.839 25.0561 29.5185 24.6672 31.2052 24.7655C30.266 22.6461 29.8486 20.351 29.9848 18.054C30.1255 15.7529 30.8568 13.5426 32.2962 11.9421C33.9521 10.1288 36.1954 8.88693 38.6739 8.41143C39.9365 8.14661 41.2335 8.06251 42.5217 8.16194C45.1508 8.3838 47.6804 9.21696 49.8864 10.5876C51.9303 11.8428 53.5241 13.656 54.4578 15.7884C54.9926 17.1048 55.3692 18.4744 55.5806 19.8712C55.7838 20.9427 55.8241 22.0364 55.7002 23.1193C58.3016 21.7721 61.3328 21.3766 64.2177 22.008C66.9398 22.5805 69.3197 24.1316 70.8568 26.3351C72.0758 28.1674 72.6375 30.3249 72.4584 32.4865C72.2828 34.752 71.397 36.9174 69.9145 38.7045L48.6561 38.7122L27.4018 38.7413Z" fill="#666538"/>
<path d="M29.5593 38.754C27.905 37.9792 26.6095 36.6553 25.9182 35.0336C25.2496 33.5026 25.2313 31.7848 25.8673 30.239C26.4234 28.9666 27.3992 27.8984 28.6484 27.1944C29.9522 26.4531 31.4618 26.1036 32.9779 26.192C32.1337 24.287 31.7586 22.224 31.881 20.1594C32.0074 18.0911 32.6648 16.1044 33.9586 14.6658C35.447 13.036 37.4633 11.9197 39.6911 11.4923C40.826 11.2543 41.9918 11.1787 43.1496 11.2681C45.5128 11.4675 47.7865 12.2164 49.7693 13.4483C51.6064 14.5765 53.0389 16.2063 53.8783 18.123C54.3589 19.3062 54.6975 20.5373 54.8874 21.7928C55.0701 22.7558 55.1063 23.739 54.9949 24.7123C57.3332 23.5013 60.0577 23.1458 62.6508 23.7134C65.0975 24.228 67.2366 25.6222 68.6182 27.6028C69.7139 29.2497 70.2188 31.1889 70.0578 33.1319C69.9 35.1682 69.1038 37.1145 67.7713 38.7208L48.6634 38.7278L29.5593 38.754Z" fill="#BAB653"/>
<path d="M37.7193 49.4C37.7693 49.45 37.8193 49.5 37.9693 49.45H38.2693C38.3693 49.45 38.4193 49.5 38.4193 49.65C38.4193 49.8 38.3193 50.05 38.1693 50.4C37.9693 50.75 37.6693 51.15 37.2693 51.6C36.4193 52.45 35.3193 53.35 34.1693 54.3C33.0193 55.25 32.1193 56.1 31.2693 57.1C30.4193 58.1 29.8693 59.25 29.7193 60.45C29.5693 61.7 30.1193 63.5 31.0193 64.15C31.9193 64.8 32.9693 64.95 34.1693 64.85C34.7693 64.8 35.3693 64.8 35.9193 64.85C37.9693 64.9 39.8193 65.6 41.0693 66.65C42.3193 67.7 43.0693 69.2 43.0693 70.85C43.0693 71.6 42.9193 72.35 42.5693 73C41.9193 74.35 40.6693 75.45 38.9693 76.05C37.2693 76.7 35.1693 76.8 33.3193 76.5C32.3693 76.35 31.4693 76.4 30.6193 76.55L29.7193 76.7C29.3693 76.75 29.0193 76.8 28.7193 76.9C28.1193 77.15 27.7193 77.75 27.7193 78.8C27.7193 79.85 28.1193 80.4 28.7193 80.6C29.2693 80.85 29.9193 80.85 30.3693 80.85L36.2693 81C38.2193 81.05 40.1693 81 42.1193 80.85C42.5193 80.8 42.8193 80.65 43.0693 80.5C43.4693 80.2 43.7193 79.8 43.9193 79.4C43.9693 79.2 44.1193 79 44.2693 78.85C47.1193 76 47.9693 72.05 47.1693 68.5C46.3193 64.95 43.7193 61.8 39.8693 60.55C39.5193 60.45 39.1193 60.4 38.6693 60.4C38.1693 60.4 37.6693 60.4 37.1693 60.35C36.1693 60.3 35.2693 60.05 34.8193 59.1C34.8193 58.8 35.2193 58.3 35.9693 57.55C36.7193 56.8 37.6193 56 38.6693 55.1C40.8193 53.3 43.2193 51.25 44.7693 49.65C47.1193 47.2 46.3693 45.35 42.9693 45C39.1693 44.6 35.3193 44.25 31.5193 44.4H30.3193C29.3693 44.45 28.5193 44.75 27.9693 45.4C27.4193 46.05 27.6193 47.7 28.2193 48.3C28.7693 48.9 29.6193 49.1 30.4693 49.1L31.6193 49.25C32.5693 49.5 33.5693 49.55 34.6193 49.5C35.6693 49.45 36.6693 49.4 37.7193 49.4ZM65.7416 44.6L64.2916 44.45C63.1416 44.4 62.1416 44.35 61.3916 44.35H60.8416H58.9416C57.5416 44.35 56.4416 44.4 55.6416 44.5C53.9916 44.75 53.1416 45.55 52.8416 47.15C52.5416 48.8 52.4416 51.95 52.4416 54.95C52.4416 56.45 52.3916 57.95 52.3416 59.5L52.0416 68.3C51.8916 71.25 51.7916 74.2 51.7416 77.15C51.7416 78.2 51.7416 79.25 52.1916 80C52.5916 80.8 53.3916 81.15 54.9416 80.95C56.5916 80.7 58.2916 80.75 59.9416 80.85C60.7416 80.9 61.5416 80.95 62.3916 80.95C63.2416 80.95 64.0416 80.85 64.8916 80.65C65.0416 80.6 65.3416 80.6 65.7916 80.55C66.2416 80.55 66.6916 80.45 67.1416 80.3C68.0416 79.95 68.7916 79.3 68.7916 77.75C68.7916 76.2 67.1916 75.65 65.3916 75.45C63.5416 75.3 61.3916 75.55 60.2416 75.7C59.9916 75.7 59.6416 75.75 59.2916 75.85C58.8916 76 58.4916 76.05 58.1416 76.1C57.3416 76.2 56.6916 76.1 56.4416 75.15C56.2916 74.55 56.0416 73.15 56.0416 71.55C56.0416 70 56.2916 68.2 56.9916 66.9C57.6916 65.6 58.8416 64.7 60.7916 64.85H61.2916C61.8916 64.9 62.7916 64.7 63.4416 64.05C64.0916 63.4 64.2416 61.6 63.6416 60.9C62.9916 60.2 61.9916 60 61.1416 60H60.1916C58.7916 59.95 57.8916 59.7 57.4916 59.25C56.6916 58.35 56.9416 56.25 57.0416 54.85C57.0916 54.15 57.0416 53.45 56.9916 52.8C56.8416 51.35 57.1416 50.35 57.8416 49.8C59.2416 48.65 61.6416 48.8 63.4416 48.95C64.3416 49.05 65.1916 49 66.0416 48.8C66.8916 48.6 68.2416 47.65 68.2416 46.3C68.2416 45.65 67.8416 45.25 67.3416 45C66.8416 44.8 66.1916 44.65 65.7416 44.6Z" fill="#8D5836"/>
<path d="M37.7193 49.4L39.1335 47.9858L38.5478 47.4H37.7193V49.4ZM37.9693 49.45V47.45H37.6448L37.3369 47.5526L37.9693 49.45ZM38.1693 50.4L39.9058 51.3923L39.9626 51.293L40.0076 51.1878L38.1693 50.4ZM37.2693 51.6L38.6835 53.0142L38.7251 52.9727L38.7642 52.9287L37.2693 51.6ZM34.1693 54.3L32.8956 52.7581H32.8956L34.1693 54.3ZM31.2693 57.1L32.7932 58.3953L32.7932 58.3953L31.2693 57.1ZM29.7193 60.45L27.7348 60.2019L27.7336 60.2117L29.7193 60.45ZM31.0193 64.15L32.1903 62.5286L31.0193 64.15ZM34.1693 64.85L34.0032 62.8569H34.0032L34.1693 64.85ZM35.9193 64.85L35.7383 66.8418L35.8043 66.8478L35.8706 66.8494L35.9193 64.85ZM41.0693 66.65L39.783 68.1814L41.0693 66.65ZM42.5693 73L40.8084 72.0518L40.787 72.0916L40.7673 72.1324L42.5693 73ZM38.9693 76.05L38.3037 74.164L38.2793 74.1726L38.2551 74.1819L38.9693 76.05ZM33.3193 76.5L33.6395 74.5258L33.6313 74.5245L33.3193 76.5ZM30.6193 76.55L30.9481 78.5228L30.9575 78.5212L30.9669 78.5196L30.6193 76.55ZM29.7193 76.7L30.0022 78.6799L30.0252 78.6766L30.0481 78.6728L29.7193 76.7ZM28.7193 76.9L28.0869 75.0026L28.0176 75.0257L27.9501 75.0538L28.7193 76.9ZM28.7193 80.6L29.5469 78.7793L29.4514 78.7358L29.3518 78.7026L28.7193 80.6ZM30.3693 80.85L30.4202 78.8506L30.3948 78.85H30.3693V80.85ZM36.2693 81L36.3206 79.0007L36.3202 79.0006L36.2693 81ZM42.1193 80.85L42.2727 82.8441L42.3202 82.8405L42.3674 82.8346L42.1193 80.85ZM43.0693 80.5L44.0983 82.215L44.1868 82.1619L44.2693 82.1L43.0693 80.5ZM43.9193 79.4L45.7082 80.2944L45.8064 80.0981L45.8596 79.8851L43.9193 79.4ZM44.2693 78.85L42.8551 77.4358H42.8551L44.2693 78.85ZM47.1693 68.5L49.1204 68.0603L49.1175 68.0473L49.1144 68.0343L47.1693 68.5ZM39.8693 60.55L40.4869 58.6477L40.4531 58.6367L40.4188 58.627L39.8693 60.55ZM37.1693 60.35L37.3683 58.3599L37.3189 58.355L37.2692 58.3525L37.1693 60.35ZM34.8193 59.1H32.8193V59.5497L33.0119 59.9562L34.8193 59.1ZM35.9693 57.55L37.3835 58.9642L37.3836 58.9642L35.9693 57.55ZM38.6693 55.1L37.3855 53.5665L37.3766 53.5739L37.3678 53.5815L38.6693 55.1ZM44.7693 49.65L46.2058 51.0416L46.2127 51.0344L44.7693 49.65ZM42.9693 45L42.76 46.989L42.7645 46.9895L42.9693 45ZM31.5193 44.4V46.4H31.5588L31.5982 46.3984L31.5193 44.4ZM30.3193 44.4V42.4H30.2667L30.2142 42.4028L30.3193 44.4ZM27.9693 45.4L29.4961 46.6919L29.4961 46.6919L27.9693 45.4ZM28.2193 48.3L29.6936 46.9485L29.6643 46.9165L29.6335 46.8858L28.2193 48.3ZM30.4693 49.1L30.728 47.1168L30.5992 47.1H30.4693V49.1ZM31.6193 49.25L32.1283 47.3158L32.0047 47.2833L31.878 47.2668L31.6193 49.25ZM34.6193 49.5L34.5242 47.5023L34.5242 47.5023L34.6193 49.5ZM36.3051 50.8142C36.3077 50.8168 36.3359 50.8453 36.3689 50.8763C36.4046 50.9098 36.4598 50.9596 36.5305 51.0146C36.6788 51.1299 36.8926 51.2659 37.1744 51.3599C37.7652 51.5568 38.2867 51.4524 38.6018 51.3474L37.3369 47.5526C37.502 47.4976 37.9235 47.3932 38.4393 47.5651C38.9116 47.7226 39.1942 48.0464 39.1335 47.9858L36.3051 50.8142ZM37.9693 51.45H38.2693V47.45H37.9693V51.45ZM38.2693 51.45C38 51.45 37.3241 51.3731 36.8201 50.7431C36.4109 50.2316 36.4193 49.7085 36.4193 49.65H40.4193C40.4193 49.4415 40.4028 48.8184 39.9436 48.2443C39.3896 47.5519 38.6387 47.45 38.2693 47.45V51.45ZM36.4193 49.65C36.4193 49.5597 36.4267 49.4868 36.4336 49.4368C36.4406 49.3861 36.4488 49.3478 36.4541 49.3249C36.4596 49.3015 36.464 49.2868 36.4652 49.2826C36.4666 49.2781 36.4661 49.2799 36.4629 49.2893C36.4558 49.3096 36.4423 49.3454 36.4187 49.4035C36.3955 49.4608 36.3669 49.5284 36.331 49.6122L40.0076 51.1878C40.0812 51.0163 40.1692 50.8082 40.2383 50.6107C40.2911 50.46 40.4193 50.0868 40.4193 49.65H36.4193ZM36.4328 49.4077C36.3262 49.5943 36.1229 49.8794 35.7745 50.2713L38.7642 52.9287C39.2158 52.4206 39.6124 51.9057 39.9058 51.3923L36.4328 49.4077ZM35.8551 50.1858C35.0881 50.9528 34.0756 51.7832 32.8956 52.7581L35.4431 55.8419C36.563 54.9168 37.7505 53.9472 38.6835 53.0142L35.8551 50.1858ZM32.8956 52.7581C31.6842 53.7588 30.6925 54.6906 29.7455 55.8047L32.7932 58.3953C33.5462 57.5094 34.3545 56.7412 35.4431 55.8419L32.8956 52.7581ZM29.7455 55.8047C28.6847 57.0526 27.9405 58.5564 27.7348 60.2019L31.7039 60.6981C31.7982 59.9436 32.154 59.1474 32.7932 58.3953L29.7455 55.8047ZM27.7336 60.2117C27.6163 61.1895 27.7744 62.2543 28.0799 63.1626C28.3708 64.0274 28.912 65.0951 29.8484 65.7714L32.1903 62.5286C32.2312 62.5582 32.1916 62.541 32.1088 62.4092C32.0308 62.2851 31.9454 62.108 31.8712 61.8874C31.7142 61.4207 31.6724 60.9605 31.7051 60.6883L27.7336 60.2117ZM29.8484 65.7714C31.2841 66.8083 32.8816 66.9642 34.3354 66.8431L34.0032 62.8569C33.0571 62.9358 32.5546 62.7917 32.1903 62.5286L29.8484 65.7714ZM34.3354 66.8431C34.8301 66.8019 35.3135 66.8032 35.7383 66.8418L36.1004 62.8582C35.4251 62.7968 34.7085 62.7981 34.0032 62.8569L34.3354 66.8431ZM35.8706 66.8494C37.5205 66.8896 38.9194 67.456 39.783 68.1814L42.3557 65.1186C40.7193 63.744 38.4182 62.9104 35.9681 62.8506L35.8706 66.8494ZM39.783 68.1814C40.6113 68.8772 41.0693 69.8298 41.0693 70.85H45.0693C45.0693 68.5702 44.0274 66.5228 42.3557 65.1186L39.783 68.1814ZM41.0693 70.85C41.0693 71.3457 40.9688 71.754 40.8084 72.0518L44.3303 73.9482C44.8699 72.946 45.0693 71.8543 45.0693 70.85H41.0693ZM40.7673 72.1324C40.3745 72.9482 39.5693 73.7174 38.3037 74.164L39.635 77.936C41.7694 77.1826 43.4641 75.7518 44.3713 73.8676L40.7673 72.1324ZM38.2551 74.1819C36.9607 74.6768 35.2318 74.784 33.6395 74.5258L32.9992 78.4742C35.1068 78.816 37.578 78.7232 39.6836 77.9181L38.2551 74.1819ZM33.6313 74.5245C32.4154 74.3325 31.2871 74.4013 30.2718 74.5804L30.9669 78.5196C31.6516 78.3987 32.3233 78.3675 33.0074 78.4755L33.6313 74.5245ZM30.2905 74.5772L29.3905 74.7272L30.0481 78.6728L30.9481 78.5228L30.2905 74.5772ZM29.4365 74.7201C29.1317 74.7636 28.591 74.8346 28.0869 75.0026L29.3518 78.7974C29.4477 78.7654 29.607 78.7364 30.0022 78.6799L29.4365 74.7201ZM27.9501 75.0538C26.389 75.7043 25.7193 77.2052 25.7193 78.8H29.7193C29.7193 78.5193 29.7736 78.466 29.7393 78.5272C29.7212 78.5596 29.6876 78.6063 29.6351 78.6527C29.5831 78.6987 29.5303 78.7288 29.4886 78.7462L27.9501 75.0538ZM25.7193 78.8C25.7193 79.5636 25.863 80.3489 26.2761 81.0424C26.7109 81.7721 27.3592 82.2548 28.0869 82.4974L29.3518 78.7026C29.4018 78.7193 29.4733 78.7524 29.5483 78.8115C29.6245 78.8716 29.6789 78.9386 29.7125 78.9951C29.7757 79.1011 29.7193 79.0864 29.7193 78.8H25.7193ZM27.8917 82.4207C28.8989 82.8785 29.9894 82.85 30.3693 82.85V78.85C30.1354 78.85 29.963 78.8484 29.798 78.8305C29.6336 78.8126 29.5613 78.7858 29.5469 78.7793L27.8917 82.4207ZM30.3185 82.8494L36.2185 82.9994L36.3202 79.0006L30.4202 78.8506L30.3185 82.8494ZM36.2181 82.9993C38.2365 83.0511 40.2548 82.9993 42.2727 82.8441L41.9659 78.8559C40.0839 79.0007 38.2022 79.0489 36.3206 79.0007L36.2181 82.9993ZM42.3674 82.8346C43.1589 82.7356 43.7348 82.4331 44.0983 82.215L42.0403 78.785C41.9649 78.8303 41.9281 78.8474 41.9078 78.8555C41.8922 78.8618 41.8832 78.8639 41.8713 78.8654L42.3674 82.8346ZM44.2693 82.1C45.0369 81.5244 45.4563 80.7981 45.7082 80.2944L42.1305 78.5056C41.9823 78.8019 41.9018 78.8756 41.8693 78.9L44.2693 82.1ZM45.8596 79.8851C45.8122 80.0749 45.7403 80.1866 45.7209 80.2156C45.7073 80.2361 45.6972 80.2487 45.6926 80.2542C45.6877 80.26 45.6848 80.263 45.6836 80.2642L42.8551 77.4358C42.6099 77.681 42.1594 78.1937 41.9791 78.9149L45.8596 79.8851ZM45.6835 80.2642C49.072 76.8758 50.0538 72.2023 49.1204 68.0603L45.2183 68.9397C45.8849 71.8977 45.1667 75.1242 42.8551 77.4358L45.6835 80.2642ZM49.1144 68.0343C48.1149 63.8602 45.0498 60.1292 40.4869 58.6477L39.2517 62.4522C42.3889 63.4708 44.5237 66.0398 45.2243 68.9657L49.1144 68.0343ZM40.4188 58.627C39.8538 58.4655 39.2632 58.4 38.6693 58.4V62.4C38.9754 62.4 39.1849 62.4345 39.3199 62.473L40.4188 58.627ZM38.6693 58.4C38.153 58.4 37.7527 58.3984 37.3683 58.3599L36.9703 62.3401C37.586 62.4016 38.1857 62.4 38.6693 62.4V58.4ZM37.2692 58.3525C36.8772 58.3329 36.696 58.2788 36.6262 58.2466C36.603 58.2359 36.6096 58.2355 36.6257 58.251C36.6431 58.2678 36.6409 58.2736 36.6268 58.2438L33.0119 59.9562C33.9578 61.9531 35.8817 62.2881 37.0695 62.3475L37.2692 58.3525ZM36.8193 59.1C36.8193 59.2827 36.7893 59.4276 36.7625 59.5224C36.7356 59.6173 36.7061 59.6828 36.6907 59.7144C36.663 59.771 36.6551 59.7704 36.7084 59.7C36.7571 59.6355 36.8349 59.5417 36.9521 59.4128C37.0679 59.2857 37.2105 59.1373 37.3835 58.9642L34.5551 56.1358C34.1636 56.5273 33.797 56.9182 33.5178 57.2875C33.3773 57.4733 33.2225 57.7009 33.0964 57.959C32.9781 58.2014 32.8193 58.6021 32.8193 59.1H36.8193ZM37.3836 58.9642C38.0774 58.2704 38.9299 57.5108 39.9709 56.6185L37.3678 53.5815C36.3088 54.4892 35.3613 55.3296 34.5551 56.1358L37.3836 58.9642ZM39.9532 56.6335C42.0895 54.845 44.571 52.7291 46.2058 51.0416L43.3329 48.2584C41.8676 49.7709 39.5492 51.755 37.3855 53.5665L39.9532 56.6335ZM46.2127 51.0344C47.4765 49.7169 48.6699 47.8017 47.8874 45.8071C47.1229 43.8582 44.9872 43.1971 43.1741 43.0105L42.7645 46.9895C43.464 47.0615 43.8863 47.1989 44.1069 47.3114C44.3159 47.418 44.2308 47.4388 44.1637 47.2679C44.0932 47.088 44.1696 47.022 44.0978 47.2035C44.0179 47.4056 43.8051 47.766 43.326 48.2655L46.2127 51.0344ZM43.1787 43.011C39.3767 42.6108 35.399 42.2453 31.4405 42.4016L31.5982 46.3984C35.2396 46.2547 38.962 46.5892 42.76 46.989L43.1787 43.011ZM31.5193 42.4H30.3193V46.4H31.5193V42.4ZM30.2142 42.4028C28.9485 42.4694 27.4768 42.8858 26.4426 44.1081L29.4961 46.6919C29.5619 46.6142 29.7902 46.4306 30.4245 46.3972L30.2142 42.4028ZM26.4426 44.1081C25.6373 45.0598 25.5992 46.3213 25.6728 47.0656C25.75 47.846 26.0369 48.946 26.8051 49.7142L29.6335 46.8858C29.6979 46.9502 29.7269 46.9976 29.7322 47.0065C29.7385 47.0171 29.7321 47.0084 29.7198 46.9758C29.6936 46.9068 29.6659 46.798 29.6534 46.6719C29.6475 46.612 29.6459 46.5574 29.6474 46.511C29.649 46.464 29.6534 46.4341 29.6559 46.4213C29.6586 46.4074 29.6567 46.4254 29.6389 46.4673C29.6214 46.5086 29.5801 46.5926 29.4961 46.6919L26.4426 44.1081ZM26.745 49.6514C27.8516 50.8586 29.3911 51.1 30.4693 51.1V47.1C30.1908 47.1 29.9835 47.066 29.8458 47.0216C29.7806 47.0005 29.7408 46.9803 29.7193 46.9673C29.7087 46.9609 29.7023 46.9561 29.6989 46.9533C29.6956 46.9507 29.6942 46.9491 29.6936 46.9485L26.745 49.6514ZM30.2107 51.0832L31.3607 51.2332L31.878 47.2668L30.728 47.1168L30.2107 51.0832ZM31.1104 51.1841C32.328 51.5046 33.5498 51.5532 34.7145 51.4977L34.5242 47.5023C33.5889 47.5468 32.8107 47.4954 32.1283 47.3158L31.1104 51.1841ZM34.7145 51.4977C35.776 51.4472 36.726 51.4 37.7193 51.4V47.4C36.6127 47.4 35.5627 47.4528 34.5242 47.5023L34.7145 51.4977ZM65.7416 44.6L65.9625 42.6122L65.9549 42.6114L65.9474 42.6106L65.7416 44.6ZM64.2916 44.45L64.4974 42.4606L64.4381 42.4545L64.3785 42.4519L64.2916 44.45ZM55.6416 44.5L55.3935 42.5154L55.3677 42.5187L55.342 42.5226L55.6416 44.5ZM52.8416 47.15L50.8758 46.7814L50.8739 46.7922L52.8416 47.15ZM52.3416 59.5L54.3404 59.5681L54.3406 59.5645L52.3416 59.5ZM52.0416 68.3L54.039 68.4016L54.0399 68.3849L54.0404 68.3681L52.0416 68.3ZM51.7416 77.15L49.7419 77.1161L49.7416 77.1331V77.15H51.7416ZM52.1916 80L53.9805 79.1056L53.9461 79.0369L53.9066 78.971L52.1916 80ZM54.9416 80.95L55.1975 82.9336L55.2194 82.9307L55.2412 82.9274L54.9416 80.95ZM59.9416 80.85L60.0664 78.8539L60.0626 78.8537L59.9416 80.85ZM64.8916 80.65L65.3497 82.5968L65.438 82.5761L65.5241 82.5474L64.8916 80.65ZM65.7916 80.55V78.55H65.6808L65.5707 78.5622L65.7916 80.55ZM67.1416 80.3L67.7741 82.1974L67.8207 82.1818L67.8665 82.164L67.1416 80.3ZM65.3916 75.45L65.6125 73.4622L65.5829 73.4589L65.5532 73.4565L65.3916 75.45ZM60.2416 75.7V77.7H60.3715L60.5003 77.6832L60.2416 75.7ZM59.2916 75.85L58.7422 73.927L58.6647 73.9491L58.5894 73.9773L59.2916 75.85ZM58.1416 76.1L58.3897 78.0846L58.4071 78.0824L58.4244 78.0799L58.1416 76.1ZM56.4416 75.15L54.5013 75.6351L54.5043 75.647L54.5075 75.659L56.4416 75.15ZM56.9916 66.9L58.7525 67.8482V67.8482L56.9916 66.9ZM60.7916 64.85L60.6382 66.8441L60.7148 66.85H60.7916V64.85ZM61.2916 64.85L61.4577 62.8569L61.3748 62.85H61.2916V64.85ZM63.4416 64.05L64.8558 65.4642V65.4642L63.4416 64.05ZM63.6416 60.9L65.1601 59.5984L65.1342 59.5682L65.1072 59.5391L63.6416 60.9ZM60.1916 60L60.1202 61.9987L60.1559 62H60.1916V60ZM57.4916 59.25L58.9864 57.9213V57.9213L57.4916 59.25ZM57.0416 54.85L59.0365 54.9925L57.0416 54.85ZM56.9916 52.8L58.9857 52.6466L58.9837 52.6204L58.981 52.5942L56.9916 52.8ZM57.8416 49.8L59.0772 51.3726L59.0943 51.3592L59.1111 51.3455L57.8416 49.8ZM63.4416 48.95L63.6625 46.9622L63.6351 46.9592L63.6077 46.9569L63.4416 48.95ZM66.0416 48.8L65.5835 46.8532L65.5835 46.8532L66.0416 48.8ZM67.3416 45L68.236 43.2111L68.1616 43.1739L68.0844 43.143L67.3416 45ZM65.9474 42.6106L64.4974 42.4606L64.0858 46.4394L65.5358 46.5894L65.9474 42.6106ZM64.3785 42.4519C63.2612 42.4033 62.198 42.35 61.3916 42.35V46.35C62.0852 46.35 63.022 46.3967 64.2047 46.4481L64.3785 42.4519ZM61.3916 42.35H60.8416V46.35H61.3916V42.35ZM60.8416 42.35H58.9416V46.35H60.8416V42.35ZM58.9416 42.35C57.5095 42.35 56.3143 42.4004 55.3935 42.5154L55.8897 46.4846C56.5689 46.3996 57.5737 46.35 58.9416 46.35V42.35ZM55.342 42.5226C54.2633 42.686 53.2076 43.0655 52.3615 43.8653C51.5093 44.6708 51.0775 45.7058 50.8759 46.7814L54.8073 47.5186C54.9057 46.9942 55.0489 46.8292 55.1092 46.7722C55.1756 46.7095 55.3699 46.564 55.9412 46.4774L55.342 42.5226ZM50.8739 46.7922C50.5364 48.6483 50.4416 51.9777 50.4416 54.95H54.4416C54.4416 51.9223 54.5468 48.9517 54.8093 47.5078L50.8739 46.7922ZM50.4416 54.95C50.4416 56.4116 50.3929 57.8777 50.3426 59.4355L54.3406 59.5645C54.3903 58.0223 54.4416 56.4884 54.4416 54.95H50.4416ZM50.3428 59.4319L50.0428 68.2319L54.0404 68.3681L54.3404 59.5681L50.3428 59.4319ZM50.0442 68.1984C49.893 71.171 49.7923 74.1435 49.7419 77.1161L53.7413 77.1839C53.7909 74.2565 53.8902 71.329 54.039 68.4016L50.0442 68.1984ZM49.7416 77.15C49.7416 77.6499 49.7392 78.2941 49.811 78.9167C49.8833 79.5428 50.0453 80.3101 50.4766 81.029L53.9066 78.971C53.8879 78.9399 53.8249 78.8072 53.7847 78.4583C53.744 78.1059 53.7416 77.7001 53.7416 77.15H49.7416ZM50.4027 80.8944C50.8156 81.7202 51.4937 82.3787 52.4476 82.728C53.3166 83.0463 54.2672 83.0536 55.1975 82.9336L54.6857 78.9664C54.3891 79.0047 54.176 79.0102 54.029 79.0017C53.8829 78.9933 53.8246 78.9725 53.8231 78.972C53.8229 78.9719 53.8261 78.9731 53.832 78.9758C53.8379 78.9787 53.8461 78.9829 53.856 78.9888C53.8766 79.0011 53.8995 79.0177 53.9218 79.0382C53.9699 79.0821 53.9856 79.1159 53.9805 79.1056L50.4027 80.8944ZM55.2412 82.9274C56.6704 82.7109 58.1931 82.7477 59.8206 82.8463L60.0626 78.8537C58.3901 78.7523 56.5129 78.6891 54.642 78.9726L55.2412 82.9274ZM59.8168 82.8461C60.6092 82.8956 61.4697 82.95 62.3916 82.95V78.95C61.6135 78.95 60.874 78.9044 60.0664 78.8539L59.8168 82.8461ZM62.3916 82.95C63.4092 82.95 64.3631 82.829 65.3497 82.5968L64.4335 78.7032C63.7201 78.871 63.074 78.95 62.3916 78.95V82.95ZM65.5241 82.5474C65.4509 82.5718 65.3938 82.5849 65.3628 82.5914C65.3308 82.598 65.3104 82.6009 65.3074 82.6013C65.3062 82.6015 65.3262 82.5988 65.3952 82.5931C65.5086 82.5836 65.751 82.5668 66.0125 82.5378L65.5707 78.5622C65.3822 78.5832 65.2496 78.5914 65.063 78.6069C64.982 78.6137 64.8707 78.6235 64.7571 78.6393C64.653 78.6538 64.4669 78.6834 64.2592 78.7526L65.5241 82.5474ZM65.7916 82.55C66.5327 82.55 67.2077 82.3862 67.7741 82.1974L66.5091 78.4026C66.1755 78.5138 65.9505 78.55 65.7916 78.55V82.55ZM67.8665 82.164C68.5234 81.9085 69.304 81.4752 69.9041 80.675C70.5171 79.8576 70.7916 78.8594 70.7916 77.75H66.7916C66.7916 77.9771 66.7641 78.1131 66.743 78.1842C66.7233 78.2506 66.7059 78.2726 66.7041 78.275C66.7012 78.2789 66.6898 78.2939 66.6516 78.32C66.6095 78.3487 66.5369 78.3892 66.4167 78.436L67.8665 82.164ZM70.7916 77.75C70.7916 76.1025 69.8598 74.9848 68.757 74.3562C67.7705 73.7939 66.5901 73.5709 65.6125 73.4622L65.1707 77.4378C65.9931 77.5291 66.5127 77.6811 66.7762 77.8313C66.885 77.8933 66.875 77.9136 66.8391 77.8587C66.7922 77.7869 66.7916 77.7274 66.7916 77.75H70.7916ZM65.5532 73.4565C63.4701 73.2876 61.131 73.567 59.9829 73.7168L60.5003 77.6832C61.6522 77.533 63.6131 77.3124 65.23 77.4435L65.5532 73.4565ZM60.2416 73.7C59.7712 73.7 59.2342 73.7864 58.7422 73.927L59.841 77.773C59.9338 77.7465 60.0268 77.7268 60.1082 77.7142C60.1482 77.7081 60.1813 77.7043 60.2065 77.7022C60.2325 77.7 60.244 77.7 60.2416 77.7V73.7ZM58.5894 73.9773C58.5249 74.0015 58.4398 74.0253 58.3178 74.0489C58.185 74.0746 58.059 74.0915 57.8588 74.1201L58.4244 78.0799C58.7181 78.038 59.3502 77.964 59.9939 77.7227L58.5894 73.9773ZM57.8935 74.1154C57.7583 74.1323 57.6991 74.1313 57.688 74.1306C57.6799 74.1302 57.7684 74.1334 57.9012 74.1927C58.0505 74.2594 58.188 74.367 58.2864 74.4951C58.3751 74.6106 58.3871 74.6841 58.3758 74.641L54.5075 75.659C54.7478 76.5722 55.2972 77.4103 56.2695 77.8448C57.0885 78.2107 57.9165 78.1437 58.3897 78.0846L57.8935 74.1154ZM58.3819 74.6649C58.267 74.2054 58.0416 72.9687 58.0416 71.55H54.0416C54.0416 73.3313 54.3162 74.8946 54.5013 75.6351L58.3819 74.6649ZM58.0416 71.55C58.0416 70.1361 58.2813 68.7233 58.7525 67.8482L55.2307 65.9518C54.3019 67.6767 54.0416 69.8639 54.0416 71.55H58.0416ZM58.7525 67.8482C58.9787 67.4281 59.2152 67.1873 59.4467 67.0493C59.6627 66.9206 60.015 66.7962 60.6382 66.8441L60.945 62.8559C59.6182 62.7538 58.4205 63.0044 57.399 63.6132C56.393 64.2127 55.7045 65.0719 55.2307 65.9518L58.7525 67.8482ZM60.7916 66.85H61.2916V62.85H60.7916V66.85ZM61.1255 66.8431C62.2076 66.9333 63.7212 66.5989 64.8558 65.4642L62.0274 62.6358C61.9571 62.7061 61.8552 62.7693 61.7248 62.812C61.661 62.8329 61.5995 62.8458 61.5465 62.8523C61.5205 62.8555 61.499 62.8568 61.4827 62.8572C61.4747 62.8574 61.4684 62.8573 61.464 62.8572C61.4596 62.8571 61.4575 62.8569 61.4577 62.8569L61.1255 66.8431ZM64.8558 65.4642C65.6765 64.6436 65.9472 63.4574 66.0054 62.6348C66.0621 61.8327 65.9746 60.5486 65.1601 59.5984L62.1231 62.2016C62.0486 62.1147 62.0147 62.0453 62.0034 62.0198C61.9917 61.9935 61.9941 61.9912 62.0003 62.02C62.014 62.083 62.0261 62.2006 62.0153 62.3527C62.0047 62.5035 61.9755 62.6317 61.9464 62.7138C61.9326 62.7527 61.9245 62.7652 61.9295 62.7566C61.9336 62.7494 61.9619 62.7013 62.0274 62.6358L64.8558 65.4642ZM65.1072 59.5391C63.8938 58.2323 62.2 58 61.1416 58V62C61.4212 62 61.672 62.0342 61.8669 62.0955C62.0567 62.1551 62.1404 62.2226 62.176 62.2609L65.1072 59.5391ZM61.1416 58H60.1916V62H61.1416V58ZM60.263 58.0013C59.6502 57.9794 59.2456 57.9157 59.0019 57.848C58.734 57.7735 58.8261 57.7409 58.9864 57.9213L55.9968 60.5787C56.5571 61.2091 57.2992 61.5265 57.9313 61.702C58.5876 61.8843 59.333 61.9706 60.1202 61.9987L60.263 58.0013ZM58.9864 57.9213C59.0719 58.0174 59.0493 58.0497 59.0085 57.8884C58.9695 57.7347 58.9382 57.5014 58.9282 57.176C58.9073 56.497 58.9805 55.7774 59.0365 54.9925L55.0467 54.7075C55.0027 55.3226 54.9009 56.353 54.93 57.299C54.9561 58.1444 55.0843 59.5522 55.9968 60.5787L58.9864 57.9213ZM59.0365 54.9925C59.0985 54.1247 59.0348 53.2852 58.9857 52.6466L54.9975 52.9534C55.0484 53.6148 55.0847 54.1753 55.0467 54.7075L59.0365 54.9925ZM58.981 52.5942C58.9234 52.0372 58.9677 51.6971 59.02 51.5151C59.0655 51.3567 59.1049 51.3509 59.0772 51.3726L56.606 48.2274C55.109 49.4036 54.8235 51.2784 55.0022 53.0058L58.981 52.5942ZM59.1111 51.3455C59.3572 51.1433 59.8336 50.9527 60.6659 50.8799C61.4763 50.809 62.3709 50.8677 63.2755 50.9431L63.6077 46.9569C62.7123 46.8823 61.5069 46.791 60.3173 46.8951C59.1496 46.9973 57.726 47.3067 56.5721 48.2545L59.1111 51.3455ZM63.2207 50.9378C64.3415 51.0623 65.4213 51.0006 66.4997 50.7468L65.5835 46.8532C64.9619 46.9994 64.3417 47.0377 63.6625 46.9622L63.2207 50.9378ZM66.4997 50.7468C67.3059 50.5571 68.1726 50.0779 68.8542 49.4155C69.551 48.7384 70.2416 47.6778 70.2416 46.3H66.2416C66.2416 46.3006 66.2417 46.3015 66.2407 46.3055C66.2396 46.3101 66.2359 46.3227 66.2256 46.3436C66.2033 46.3885 66.1553 46.4607 66.0665 46.547C65.978 46.633 65.8712 46.7111 65.7642 46.7712C65.6516 46.8345 65.5827 46.8534 65.5835 46.8532L66.4997 50.7468ZM70.2416 46.3C70.2416 44.6067 69.1134 43.6498 68.236 43.2111L66.4472 46.7889C66.5195 46.825 66.4676 46.8158 66.3904 46.7149C66.3486 46.6602 66.3074 46.5885 66.2784 46.5036C66.2494 46.4184 66.2416 46.3463 66.2416 46.3H70.2416ZM68.0844 43.143C67.4028 42.8704 66.5756 42.6804 65.9625 42.6122L65.5207 46.5878C65.8076 46.6196 66.2804 46.7296 66.5988 46.857L68.0844 43.143Z" fill="#8D5836"/>
<path d="M38.1337 15.5486C37.8131 15.5105 37.4887 15.5208 37.1712 15.579C36.8316 15.6424 36.5038 15.7579 36.1996 15.9216C35.6315 16.2293 35.1854 16.7216 34.935 17.3171C34.6766 17.9103 34.6425 18.5771 34.8391 19.1935C35.2523 20.447 36.3967 20.9335 37.6719 21.029C38.8995 21.0831 40.1262 20.9066 41.2887 20.5085L41.4254 20.4599C41.471 20.4437 41.5166 20.4275 41.562 20.4087C41.6505 20.3739 42.0621 20.2097 42.4466 20.0462C42.831 19.8827 43.1868 19.7187 43.1672 19.6798C42.6095 18.712 41.9088 17.834 41.0888 17.0756C40.2175 16.2828 39.1991 15.6706 38.1337 15.5486Z" fill="#666538"/>
</svg>
