<svg width="240" height="198" viewBox="0 0 240 198" fill="none" xmlns="http://www.w3.org/2000/svg">
<g filter="url(#filter0_d_9_9)">
<path d="M118.342 3.3524C120.146 1.80329 122.81 1.80329 124.614 3.35239L132.604 10.2148C134.006 11.4184 135.896 11.8842 137.696 11.4698L147.961 9.10683C150.278 8.57342 152.637 9.81172 153.514 12.0216L157.4 21.8114C158.082 23.5284 159.539 24.8192 161.326 25.2889L171.513 27.9667C173.812 28.5711 175.326 30.7641 175.076 33.1285L173.967 43.6029C173.773 45.44 174.463 47.2601 175.827 48.5063L183.602 55.6114C185.357 57.2152 185.679 59.8604 184.358 61.8377L178.509 70.5972C177.483 72.1335 177.248 74.0659 177.877 75.8031L181.46 85.7078C182.269 87.9437 181.324 90.4351 179.236 91.5723L169.986 96.6102C168.363 97.4938 167.258 99.0958 167.007 100.926L165.576 111.361C165.253 113.717 163.259 115.484 160.882 115.521L150.35 115.683C148.503 115.711 146.779 116.616 145.706 118.12L139.59 126.695C138.21 128.631 135.623 129.268 133.501 128.196L124.1 123.445C122.451 122.612 120.505 122.612 118.856 123.445L109.455 128.196C107.333 129.268 104.746 128.631 103.365 126.695L97.2493 118.12C96.1766 116.616 94.4529 115.711 92.6058 115.683L82.0742 115.521C79.6968 115.484 77.7023 113.717 77.3794 111.361L75.9491 100.926C75.6982 99.0958 74.5924 97.4938 72.97 96.6102L63.7201 91.5723C61.632 90.4351 60.6872 87.9437 61.496 85.7078L65.079 75.8031C65.7074 74.0659 65.4727 72.1335 64.4468 70.5972L58.5976 61.8378C57.2772 59.8604 57.5984 57.2152 59.3536 55.6114L67.1292 48.5063C68.4929 47.2601 69.1832 45.44 68.9888 43.6029L67.8803 33.1285C67.63 30.7641 69.1437 28.5711 71.4432 27.9667L81.63 25.2889C83.4167 24.8192 84.8737 23.5284 85.5553 21.8114L89.4415 12.0216C90.3187 9.81172 92.6781 8.57342 94.9952 9.10683L105.26 11.4698C107.06 11.8842 108.95 11.4184 110.351 10.2148L118.342 3.3524Z" fill="url(#paint0_linear_9_9)" stroke="#665000"/>
<circle cx="121.047" cy="65.8831" r="46.9363" fill="#785E03"/>
<mask id="mask0_9_9" style="mask-type:alpha" maskUnits="userSpaceOnUse" x="79" y="26" width="89" height="89">
<circle cx="123.617" cy="70.5646" r="44.2566" fill="#C28B37"/>
</mask>
<g mask="url(#mask0_9_9)">
<circle cx="121.047" cy="65.8831" r="46.9363" fill="#8A6B1B"/>
</g>
<circle cx="122.339" cy="65.4525" r="37.8935" fill="#B3881C"/>
<path d="M122.87 37.2566L121.976 35.4678L121.081 37.2566L112.644 54.1322L95.8203 56.2351L93.9275 56.4717L95.1988 57.8938L106.823 70.8973L103.636 89.5986L103.304 91.5433L105.069 90.6611L121.976 82.2075L138.883 90.6611L140.644 91.5417L140.316 89.6001L137.157 70.8972L148.753 57.8929L150.021 56.4714L148.131 56.2351L131.308 54.1322L122.87 37.2566Z" fill="url(#paint1_linear_9_9)" stroke="#AE8620" stroke-width="2"/>
<path d="M59.4703 123.154L59.4703 177.411L4.35245 177.411L20.5284 150.282L4.35246 123.154L59.4703 123.154Z" fill="#983535"/>
<path d="M180.041 123.154L180.041 177.411L235.159 177.411L218.983 150.282L235.159 123.154L180.041 123.154Z" fill="#983535"/>
<path d="M43.9684 137.795L59.4703 123.154V189.468H43.9684V137.795Z" fill="#752727"/>
<path d="M195.542 138.656L180.041 123.154V189.468H195.542V138.656Z" fill="#752727"/>
<rect x="43.9684" y="138.656" width="151.574" height="50.8118" fill="#CE4444"/>
</g>
<defs>
<filter id="filter0_d_9_9" x="0.352417" y="1.69057" width="238.806" height="195.777" filterUnits="userSpaceOnUse" color-interpolation-filters="sRGB">
<feFlood flood-opacity="0" result="BackgroundImageFix"/>
<feColorMatrix in="SourceAlpha" type="matrix" values="0 0 0 0 0 0 0 0 0 0 0 0 0 0 0 0 0 0 127 0" result="hardAlpha"/>
<feOffset dy="4"/>
<feGaussianBlur stdDeviation="2"/>
<feComposite in2="hardAlpha" operator="out"/>
<feColorMatrix type="matrix" values="0 0 0 0 0 0 0 0 0 0 0 0 0 0 0 0 0 0 0.25 0"/>
<feBlend mode="normal" in2="BackgroundImageFix" result="effect1_dropShadow_9_9"/>
<feBlend mode="normal" in="SourceGraphic" in2="effect1_dropShadow_9_9" result="shape"/>
</filter>
<linearGradient id="paint0_linear_9_9" x1="121.478" y1="0" x2="121.478" y2="132.627" gradientUnits="userSpaceOnUse">
<stop stop-color="#FFE175"/>
<stop offset="1" stop-color="#FFD12E"/>
</linearGradient>
<linearGradient id="paint1_linear_9_9" x1="121.976" y1="37.7038" x2="121.976" y2="89.7666" gradientUnits="userSpaceOnUse">
<stop stop-color="white"/>
<stop offset="1" stop-color="#FFE86D"/>
</linearGradient>
</defs>
</svg>
