<svg width="254" height="131" viewBox="0 0 254 131" fill="none" xmlns="http://www.w3.org/2000/svg">
<g filter="url(#filter0_d_10_73)">
<path d="M55.8617 21.9702L55.8617 71.4998L11.478 71.4998L24.5037 46.735L1.68575 21.9702L55.8617 21.9702Z" fill="#983333"/>
<path d="M187.37 21.9702L187.37 71.4998L231.754 71.4998L218.728 46.735L241.546 21.9702L187.37 21.9702Z" fill="#983333"/>
<path d="M42.9968 31.2918L55.8617 21.9702V83.0782H42.9968V31.2918Z" fill="#552727"/>
<path d="M200.235 31.2918L187.37 21.9702V83.0782H200.235V31.2918Z" fill="#552727"/>
<path d="M72.476 31.25L72.476 87.8822L41.5 87.8822C41.5 87.8822 37.6254 87.8822 37.6254 59.5661C37.6254 31.25 41.5 31.25 41.5 31.25L72.476 31.25Z" fill="#CE4444"/>
<path d="M173.76 31.25L173.76 87.8822L202.8 87.8822C202.8 87.8822 206.433 87.8822 206.433 59.5661C206.433 31.25 202.8 31.25 202.8 31.25L173.76 31.25Z" fill="#CE4444"/>
<circle cx="121.828" cy="59.7818" r="58.9476" fill="url(#paint0_linear_10_73)"/>
<circle cx="121.616" cy="59.9215" r="46.9566" fill="url(#paint1_linear_10_73)"/>
<mask id="mask0_10_73" style="mask-type:alpha" maskUnits="userSpaceOnUse" x="83" y="23" width="82" height="82">
<circle cx="123.716" cy="64.0181" r="40.3205" fill="#7D7D7D"/>
</mask>
<g mask="url(#mask0_10_73)">
<circle cx="121.569" cy="59.7238" r="40.3205" fill="#9CA1A3"/>
</g>
<path d="M121.616 103.589C146.07 103.589 165.926 83.9126 165.926 59.5999C165.926 35.2873 146.07 15.6108 121.616 15.6108C97.1619 15.6108 77.3051 35.2873 77.3051 59.5999C77.3051 83.9126 97.1619 103.589 121.616 103.589Z" fill="#644314" stroke="#FBBF4C" stroke-width="5"/>
<mask id="mask1_10_73" style="mask-type:alpha" maskUnits="userSpaceOnUse" x="82" y="21" width="84" height="85">
<circle cx="123.896" cy="63.7652" r="41.8265" fill="#C28B37"/>
</mask>
<g mask="url(#mask1_10_73)">
<circle cx="121.669" cy="59.3102" r="41.8265" fill="url(#paint2_linear_10_73)"/>
</g>
<path d="M122.39 28.9147L131.824 47.7832L150.693 50.1417L137.736 64.6704L141.259 85.52L122.39 76.0858L103.522 85.52L107.075 64.6704L94.0875 50.1417L112.956 47.7832L122.39 28.9147Z" fill="url(#paint3_linear_10_73)"/>
<path d="M123.285 28.4675L122.39 26.6787L121.496 28.4675L112.301 46.8573L93.9635 49.1494L92.0707 49.386L93.342 50.8082L106.009 64.9775L102.536 85.352L102.205 87.2966L103.969 86.4144L122.39 77.2038L140.811 86.4144L142.573 87.295L142.245 85.3534L138.803 64.9775L151.439 50.8073L152.707 49.3857L150.817 49.1494L132.479 46.8573L123.285 28.4675Z" stroke="#353535" stroke-opacity="0.2" stroke-width="2"/>
</g>
<defs>
<filter id="filter0_d_10_73" x="0.902232" y="0.0506697" width="252.396" height="130.431" filterUnits="userSpaceOnUse" color-interpolation-filters="sRGB">
<feFlood flood-opacity="0" result="BackgroundImageFix"/>
<feColorMatrix in="SourceAlpha" type="matrix" values="0 0 0 0 0 0 0 0 0 0 0 0 0 0 0 0 0 0 127 0" result="hardAlpha"/>
<feOffset dx="5.48449" dy="5.48449"/>
<feGaussianBlur stdDeviation="3.13399"/>
<feComposite in2="hardAlpha" operator="out"/>
<feColorMatrix type="matrix" values="0 0 0 0 0 0 0 0 0 0 0 0 0 0 0 0 0 0 0.3 0"/>
<feBlend mode="normal" in2="BackgroundImageFix" result="effect1_dropShadow_10_73"/>
<feBlend mode="normal" in="SourceGraphic" in2="effect1_dropShadow_10_73" result="shape"/>
</filter>
<linearGradient id="paint0_linear_10_73" x1="121.828" y1="0.834167" x2="121.828" y2="118.729" gradientUnits="userSpaceOnUse">
<stop stop-color="#E0C04F"/>
<stop offset="1" stop-color="#B16F07"/>
</linearGradient>
<linearGradient id="paint1_linear_10_73" x1="121.616" y1="12.9649" x2="121.616" y2="106.878" gradientUnits="userSpaceOnUse">
<stop stop-color="#898989"/>
<stop offset="1" stop-color="#5F5F5F"/>
</linearGradient>
<linearGradient id="paint2_linear_10_73" x1="121.669" y1="17.4838" x2="121.669" y2="101.137" gradientUnits="userSpaceOnUse">
<stop stop-color="#A36D1D"/>
<stop offset="1" stop-color="#744A0C"/>
</linearGradient>
<linearGradient id="paint3_linear_10_73" x1="122.39" y1="47.1037" x2="122.39" y2="83.1109" gradientUnits="userSpaceOnUse">
<stop stop-color="white"/>
<stop offset="1" stop-color="#FFEE92"/>
</linearGradient>
</defs>
</svg>
