<svg width="358" height="358" viewBox="0 0 358 358" fill="none" xmlns="http://www.w3.org/2000/svg">
<g filter="url(#filter0_di_670_3993)">
<circle cx="179" cy="175" r="175" fill="#D9D9D9"/>
<circle cx="179" cy="175" r="168.5" stroke="url(#paint0_linear_670_3993)" stroke-width="13"/>
</g>
<mask id="mask0_670_3993" style="mask-type:alpha" maskUnits="userSpaceOnUse" x="11" y="10" width="336" height="330">
<path d="M340.5 174.706C340.5 261.96 268.316 332.912 179 332.912C89.6841 332.912 17.5 261.96 17.5 174.706C17.5 87.4519 89.6841 16.5 179 16.5C268.316 16.5 340.5 87.4519 340.5 174.706Z" fill="#D9D9D9" stroke="url(#paint1_linear_670_3993)" stroke-width="13"/>
</mask>
<g mask="url(#mask0_670_3993)">
<g clip-path="url(#clip0_670_3993)">
<path d="M179.471 224.606C188.558 190.236 168.101 154.996 133.779 145.896C99.4572 136.796 64.2665 157.281 55.179 191.651C46.0915 226.021 66.5483 261.26 100.87 270.36C135.193 279.46 170.383 258.975 179.471 224.606Z" fill="#002438"/>
<path d="M264.273 267.502C297.075 253.896 312.652 216.238 299.065 183.39C285.477 150.542 247.872 134.944 215.07 148.55C182.267 162.156 166.69 199.814 180.277 232.662C193.865 265.51 231.471 281.108 264.273 267.502Z" fill="#002438"/>
<path d="M145.45 298.229H121.844V444.574H145.45V298.229Z" fill="#F5B295"/>
<path d="M145.45 298.229H121.844V309.499H145.45V298.229Z" fill="#ED917E"/>
<path d="M145.505 265.628C142.403 265.621 139.33 266.227 136.463 267.413C133.595 268.598 130.99 270.339 128.796 272.536C126.603 274.732 124.865 277.341 123.681 280.212C122.497 283.084 121.891 286.161 121.899 289.267V298.283H145.505V265.628Z" fill="#B40D6F"/>
<path d="M210.671 444.574H234.277L234.277 298.228H210.671L210.671 444.574Z" fill="#F5B295"/>
<path d="M210.671 309.499H234.277V298.228H210.671V309.499Z" fill="#ED917E"/>
<path d="M210.727 265.628C213.829 265.621 216.902 266.227 219.769 267.413C222.636 268.598 225.242 270.339 227.435 272.536C229.629 274.732 231.367 277.341 232.551 280.212C233.735 283.084 234.34 286.161 234.333 289.267V298.283H210.727V265.628Z" fill="#B40D6F"/>
<path d="M221.047 337.646V290.642C221.018 279.243 216.487 268.32 208.444 260.255C200.4 252.19 189.497 247.639 178.115 247.596C166.723 247.625 155.807 252.169 147.751 260.236C139.696 268.302 135.158 279.234 135.129 290.642V337.646H221.047Z" fill="#D51881"/>
<path d="M220.223 335.612H135.953L120.361 358.427H235.815L220.223 335.612Z" fill="#B40D6F"/>
<path d="M178.664 271.235C174.936 271.235 171.362 269.752 168.726 267.113C166.09 264.474 164.609 260.894 164.609 257.161V238.03C164.609 234.297 166.09 230.718 168.726 228.078C171.362 225.439 174.936 223.956 178.664 223.956C182.387 223.971 185.953 225.458 188.586 228.094C191.218 230.73 192.703 234.302 192.718 238.03V257.161C192.703 260.89 191.218 264.461 188.586 267.097C185.953 269.733 182.387 271.221 178.664 271.235Z" fill="#ED917E"/>
<path d="M178.665 248.75C176.801 248.75 174.956 248.379 173.236 247.658C171.516 246.937 169.957 245.881 168.649 244.551C167.341 243.22 166.311 241.643 165.617 239.91C164.924 238.177 164.582 236.323 164.611 234.456V208.563C164.611 204.83 166.092 201.251 168.728 198.611C171.363 195.972 174.938 194.489 178.665 194.489C182.388 194.504 185.955 195.991 188.587 198.627C191.22 201.264 192.705 204.835 192.72 208.563V234.456C192.741 236.321 192.394 238.172 191.699 239.901C191.003 241.631 189.972 243.205 188.665 244.534C187.359 245.863 185.802 246.92 184.086 247.643C182.37 248.367 180.527 248.743 178.665 248.75Z" fill="#E9686A"/>
<path d="M178.501 233.687C160.082 233.687 142.418 226.36 129.394 213.318C116.37 200.276 109.053 182.587 109.053 164.142V137.369C109.067 118.93 116.389 101.249 129.41 88.2102C142.431 75.1713 160.086 67.8398 178.501 67.8252C196.919 67.8252 214.583 75.1522 227.607 88.1943C240.631 101.236 247.948 118.925 247.948 137.369V164.142C247.948 182.587 240.631 200.276 227.607 213.318C214.583 226.36 196.919 233.687 178.501 233.687Z" fill="#002438"/>
<path d="M178.501 230.278C160.091 230.278 142.436 222.959 129.413 209.929C116.391 196.899 109.067 179.224 109.053 160.789V151.498C109.067 133.058 116.389 115.378 129.41 102.339C142.431 89.3002 160.086 81.9687 178.501 81.9541C196.919 81.9541 214.583 89.2809 227.607 102.323C240.631 115.365 247.948 133.054 247.948 151.498V160.789C247.948 169.919 246.152 178.96 242.661 187.394C239.17 195.829 234.054 203.492 227.604 209.945C221.155 216.398 213.499 221.516 205.073 225.005C196.648 228.493 187.618 230.285 178.501 230.278Z" fill="#D51881"/>
<path d="M196.345 231.063C233.423 221.232 255.521 183.164 245.704 146.035C235.887 108.907 197.872 86.7771 160.795 96.6077C123.717 106.438 101.618 144.507 111.435 181.635C121.252 218.764 159.268 240.894 196.345 231.063Z" fill="#F6BF9B"/>
<path d="M178.501 214.556C161.746 214.543 145.561 208.465 132.929 197.442C120.298 186.419 112.071 171.196 109.766 154.577C109.306 157.745 109.068 160.942 109.053 164.143C109.053 173.276 110.849 182.319 114.339 190.756C117.829 199.194 122.945 206.86 129.394 213.318C135.843 219.776 143.498 224.898 151.924 228.393C160.35 231.888 169.381 233.687 178.501 233.687C187.621 233.687 196.651 231.888 205.077 228.393C213.503 224.898 221.159 219.776 227.607 213.318C234.056 206.86 239.172 199.194 242.662 190.756C246.152 182.319 247.948 173.276 247.948 164.143C247.924 160.944 247.704 157.749 247.289 154.577C244.972 171.2 236.735 186.425 224.094 197.447C211.454 208.468 195.261 214.544 178.501 214.556Z" fill="#F5B295"/>
<path d="M178.501 94.5986C173.101 94.6187 167.722 95.2644 162.47 96.5228C161.917 99.6441 161.641 102.808 161.647 105.979C161.661 121.279 167.741 135.947 178.55 146.76C189.358 157.574 204.012 163.648 219.291 163.648C229.163 163.664 238.869 161.106 247.454 156.226C245.514 139.271 237.416 123.622 224.701 112.258C211.987 100.894 195.543 94.6091 178.501 94.5986Z" fill="#ED917E"/>
<path d="M143.199 172.169C143.56 181.339 147.451 190.013 154.057 196.373C160.664 202.734 169.473 206.286 178.637 206.286C187.801 206.286 196.61 202.734 203.216 196.373C209.822 190.013 213.714 181.339 214.074 172.169H143.199Z" fill="white"/>
<path d="M141.662 151.333C142.438 151.348 143.179 151.667 143.723 152.222C144.267 152.777 144.572 153.524 144.572 154.302V160.184C144.572 160.957 144.265 161.698 143.719 162.245C143.173 162.791 142.433 163.098 141.662 163.098C140.885 163.098 140.139 162.793 139.585 162.248C139.03 161.703 138.712 160.962 138.697 160.184V154.302C138.697 153.515 139.009 152.76 139.565 152.203C140.121 151.646 140.875 151.333 141.662 151.333Z" fill="#002438"/>
<path d="M146.987 148.695H136.282C135.175 148.695 134.114 148.254 133.331 147.471C132.549 146.687 132.109 145.625 132.109 144.517C132.109 143.408 132.549 142.346 133.331 141.562C134.114 140.779 135.175 140.338 136.282 140.338H146.987C148.094 140.338 149.155 140.779 149.938 141.562C150.72 142.346 151.16 143.408 151.16 144.517C151.16 145.625 150.72 146.687 149.938 147.471C149.155 148.254 148.094 148.695 146.987 148.695Z" fill="#ED917E"/>
<path d="M146.987 142.592H136.282C135.175 142.592 134.114 142.152 133.331 141.369C132.549 140.585 132.109 139.522 132.109 138.414C132.109 137.306 132.549 136.243 133.331 135.46C134.114 134.676 135.175 134.236 136.282 134.236H146.987C148.094 134.236 149.155 134.676 149.938 135.46C150.72 136.243 151.16 137.306 151.16 138.414C151.16 139.522 150.72 140.585 149.938 141.369C149.155 142.152 148.094 142.592 146.987 142.592Z" fill="#002438"/>
<path d="M214.625 151.333C215.411 151.333 216.165 151.646 216.721 152.203C217.277 152.76 217.589 153.515 217.589 154.302V160.184C217.575 160.962 217.256 161.703 216.701 162.248C216.147 162.793 215.402 163.098 214.625 163.098C213.853 163.098 213.113 162.791 212.567 162.245C212.021 161.698 211.715 160.957 211.715 160.184V154.302C211.715 153.524 212.019 152.777 212.564 152.222C213.108 151.667 213.848 151.348 214.625 151.333Z" fill="#002438"/>
<path d="M220.004 148.695H209.024C207.917 148.695 206.856 148.254 206.074 147.471C205.291 146.687 204.852 145.625 204.852 144.517C204.852 143.408 205.291 142.346 206.074 141.562C206.856 140.779 207.917 140.338 209.024 140.338H220.004C221.11 140.338 222.172 140.779 222.954 141.562C223.737 142.346 224.176 143.408 224.176 144.517C224.176 145.625 223.737 146.687 222.954 147.471C222.172 148.254 221.11 148.695 220.004 148.695Z" fill="#ED917E"/>
<path d="M220.004 142.592H209.024C207.917 142.592 206.856 142.152 206.074 141.369C205.291 140.585 204.852 139.522 204.852 138.414C204.852 137.306 205.291 136.243 206.074 135.46C206.856 134.676 207.917 134.236 209.024 134.236H220.004C221.11 134.236 222.172 134.676 222.954 135.46C223.737 136.243 224.176 137.306 224.176 138.414C224.176 139.522 223.737 140.585 222.954 141.369C222.172 142.152 221.11 142.592 220.004 142.592Z" fill="#002438"/>
<path d="M212.538 147.925C240.645 147.925 263.43 125.108 263.43 96.9624C263.43 68.8167 240.645 46 212.538 46C184.431 46 161.646 68.8167 161.646 96.9624C161.646 125.108 184.431 147.925 212.538 147.925Z" fill="#002438"/>
</g>
</g>
<defs>
<filter id="filter0_di_670_3993" x="0" y="-11" width="358" height="369" filterUnits="userSpaceOnUse" color-interpolation-filters="sRGB">
<feFlood flood-opacity="0" result="BackgroundImageFix"/>
<feColorMatrix in="SourceAlpha" type="matrix" values="0 0 0 0 0 0 0 0 0 0 0 0 0 0 0 0 0 0 127 0" result="hardAlpha"/>
<feOffset dy="4"/>
<feGaussianBlur stdDeviation="2"/>
<feComposite in2="hardAlpha" operator="out"/>
<feColorMatrix type="matrix" values="0 0 0 0 0 0 0 0 0 0 0 0 0 0 0 0 0 0 0.25 0"/>
<feBlend mode="normal" in2="BackgroundImageFix" result="effect1_dropShadow_670_3993"/>
<feBlend mode="normal" in="SourceGraphic" in2="effect1_dropShadow_670_3993" result="shape"/>
<feColorMatrix in="SourceAlpha" type="matrix" values="0 0 0 0 0 0 0 0 0 0 0 0 0 0 0 0 0 0 127 0" result="hardAlpha"/>
<feMorphology radius="5" operator="erode" in="SourceAlpha" result="effect2_innerShadow_670_3993"/>
<feOffset dx="2" dy="-20"/>
<feGaussianBlur stdDeviation="3"/>
<feComposite in2="hardAlpha" operator="arithmetic" k2="-1" k3="1"/>
<feColorMatrix type="matrix" values="0 0 0 0 0 0 0 0 0 0 0 0 0 0 0 0 0 0 0.25 0"/>
<feBlend mode="normal" in2="shape" result="effect2_innerShadow_670_3993"/>
</filter>
<linearGradient id="paint0_linear_670_3993" x1="179" y1="0" x2="179" y2="350" gradientUnits="userSpaceOnUse">
<stop stop-color="#D45131"/>
<stop offset="1" stop-color="#FF6500"/>
</linearGradient>
<linearGradient id="paint1_linear_670_3993" x1="179" y1="10" x2="179" y2="339.412" gradientUnits="userSpaceOnUse">
<stop stop-color="#D45131"/>
<stop offset="1" stop-color="#FF6500"/>
</linearGradient>
<clipPath id="clip0_670_3993">
<rect width="251" height="474" fill="white" transform="translate(53 46)"/>
</clipPath>
</defs>
</svg>
