<svg width="387" height="374" viewBox="0 0 387 374" fill="none" xmlns="http://www.w3.org/2000/svg">
<rect width="387" height="374" rx="50" fill="white"/>
<path d="M71.2188 233.638H329.702C328.804 203.831 314.119 176.893 291.099 157.294C268.078 137.694 236.717 125.433 202.467 124.976C167.472 124.529 135.127 136.454 111.294 156.119C87.4605 175.783 72.1433 203.178 71.2188 233.638Z" fill="#DDC4A3"/>
<path d="M71.2188 233.325H329.702C328.804 263.132 314.119 290.07 291.099 309.67C268.078 329.269 236.717 341.53 202.467 341.987C167.472 342.447 135.127 330.513 111.294 310.845C87.4605 291.177 72.1433 263.785 71.2188 233.325Z" fill="#285152"/>
<path d="M71.5626 233.328C67.9679 231.826 65.1326 229.224 63.5971 226.016C62.1128 222.994 62.0243 219.588 63.35 216.51C64.5103 213.974 66.5831 211.836 69.2568 210.415C72.0455 208.92 75.289 208.197 78.5587 208.342C76.6954 204.591 75.8352 200.518 76.0432 196.434C76.2566 192.321 77.6116 188.371 80.3629 185.492C83.5241 182.23 87.8372 179.977 92.6257 179.084C95.0619 178.584 97.5706 178.408 100.067 178.561C105.163 178.898 110.086 180.324 114.4 182.714C118.45 184.999 121.609 188.149 123.384 191.9C124.449 194.236 125.213 196.669 125.659 199.153C126.101 201.546 126.221 203.694 125.981 204.941C130.944 202.512 136.757 201.756 142.317 202.816C147.63 203.795 152.316 206.505 155.418 210.393C158.005 213.758 159.246 217.774 158.948 221.818C158.663 226.023 156.878 230.045 153.842 233.322H71.5626V233.328Z" fill="#285152"/>
<path d="M150.106 124.927L163.417 124.826L176.724 124.725C180.793 124.119 184.467 122.234 187.052 119.427C189.631 116.653 190.951 113.149 190.757 109.581C190.54 105.827 188.672 103.118 185.768 101.316C182.863 99.5139 178.914 98.6162 174.538 98.4921C177.104 99.0113 179.788 98.8707 182.264 98.0873C184.606 97.3504 186.615 95.9773 187.995 94.1701C189.465 92.168 190.069 89.7746 189.698 87.4193C189.44 85.4018 188.557 83.4836 187.145 81.8698C184.869 79.4019 181.583 77.9949 178.019 77.2441C174.456 76.4933 170.623 76.3987 167.261 76.5553C167.19 76.5553 166.67 76.5749 166.168 76.601C165.829 76.5916 165.49 76.6358 165.169 76.7316H165.064C165.012 76.7316 164.959 76.7316 164.955 76.7316C164.952 76.7316 166.951 76.255 169.537 75.3116C172.124 74.3682 175.29 72.9057 177.593 70.7414C179.098 69.319 180.241 67.6346 180.946 65.7991C181.661 63.8731 181.819 61.7774 180.946 59.8318C180.365 58.5874 179.441 57.4874 178.255 56.6294C177.531 56.0952 176.74 55.6342 175.897 55.2551C171.296 53.1202 165.843 53.5087 161.456 54.4847C157.068 55.4608 153.741 57.0342 153.4 57.2562C154.373 51.204 153.774 45.7981 152.049 41.636C150.323 37.4739 147.475 34.5555 143.949 33.475C142.384 33.0111 140.715 32.8845 139.082 33.1062C138.236 33.21 137.408 33.4041 136.616 33.684C133.172 34.9407 130.518 37.9636 129.058 42.1388C127.598 46.3139 127.34 51.6414 128.684 57.5108C125.437 56.7587 122.106 56.3208 118.749 56.2051C113.909 56.0843 108.534 56.8286 105.626 60.1223C105.361 60.4178 105.122 60.7298 104.911 61.056C104.679 61.4108 104.476 61.7795 104.304 62.1593C103.916 63.1702 103.695 64.2245 103.649 65.2899C103.621 66.0443 103.701 66.7989 103.889 67.5358C104.48 69.8209 106.135 71.9232 108.594 73.6402C111.053 75.3573 114.317 76.699 118.132 77.5216C114.763 77.2605 110.432 77.218 106.494 78.0733C102.556 78.9286 99.0076 80.6848 97.1622 83.9982C96.1481 85.8403 95.7945 87.9063 96.1478 89.9263C96.4971 91.9574 97.5049 93.8591 99.0525 95.4073C100.673 97.0059 102.661 98.2884 104.888 99.1711C107.508 100.242 110.877 101.022 115.189 101.202L118.439 101.126L121.684 101.051C120.496 101.149 119.362 101.209 118.281 101.231C117.201 101.253 116.17 101.243 115.189 101.202L110.548 101.309L105.906 101.417C102.284 101.502 98.8268 102.753 96.2002 104.93C93.5843 107.088 92.0282 110.045 91.858 113.182C91.7647 114.882 92.0745 116.58 92.7681 118.171C93.4617 119.761 94.5243 121.21 95.8892 122.426C97.2542 123.642 98.8922 124.599 100.701 125.238C102.509 125.877 104.45 126.183 106.4 126.138L117.069 125.812L127.74 125.485L127.86 179.371L127.999 233.289H150.196C150.196 226.346 150.166 202.724 150.151 179.1C150.136 155.476 150.121 131.871 150.106 124.927Z" fill="#BAB653"/>
<path d="M150.017 124.852H143.759H137.5L143.759 133.284L150.017 141.716V133.284V124.852Z" fill="#285152"/>
<path d="M165.17 77.2246H159.356C159.207 77.2246 159.065 77.173 158.959 77.0811C158.854 76.9893 158.795 76.8648 158.795 76.7349C158.795 76.6051 158.855 76.4808 158.96 76.3889C159.012 76.3432 159.073 76.3071 159.142 76.2824C159.21 76.2577 159.283 76.2451 159.356 76.2452H165.17C165.32 76.2456 165.463 76.2971 165.57 76.3889C165.674 76.4811 165.732 76.6055 165.731 76.7349C165.732 76.799 165.718 76.8626 165.69 76.922C165.663 76.9814 165.622 77.0354 165.57 77.0809C165.463 77.1727 165.32 77.2242 165.17 77.2246Z" fill="#666538"/>
<path d="M130.663 59.6686C130.593 59.6689 130.523 59.6578 130.458 59.6359C130.39 59.6109 130.328 59.5755 130.274 59.5314L129.29 58.7023L128.305 57.8731C128.203 57.7871 128.141 57.6705 128.133 57.5467C128.131 57.4822 128.144 57.4181 128.171 57.3581C128.198 57.2981 128.238 57.2434 128.29 57.1974C128.396 57.1057 128.538 57.0542 128.687 57.0542C128.836 57.0542 128.979 57.1057 129.084 57.1974L130.068 58.0266L131.056 58.8557C131.158 58.9421 131.218 59.0587 131.225 59.1822C131.227 59.2466 131.215 59.3109 131.188 59.371C131.161 59.431 131.12 59.4856 131.068 59.5314C131.016 59.5816 130.952 59.6207 130.881 59.6457C130.81 59.6647 130.737 59.6725 130.663 59.6686Z" fill="#666538"/>
<path d="M120.756 101.042L117.507 101.117L114.258 101.192C115.239 101.233 116.27 101.243 117.353 101.221C118.436 101.199 119.571 101.14 120.756 101.042Z" fill="#BAB653"/>
<path d="M119.558 101.606H109.792C109.643 101.606 109.5 101.555 109.395 101.463C109.29 101.371 109.23 101.247 109.23 101.117C109.23 101.052 109.245 100.989 109.273 100.929C109.301 100.87 109.343 100.816 109.395 100.771C109.447 100.725 109.509 100.688 109.577 100.663C109.645 100.639 109.718 100.626 109.792 100.627H119.558C119.632 100.626 119.705 100.639 119.773 100.663C119.841 100.688 119.903 100.725 119.955 100.771C120.007 100.816 120.049 100.87 120.077 100.929C120.105 100.989 120.12 101.052 120.119 101.117C120.119 101.247 120.06 101.371 119.955 101.463C119.85 101.555 119.707 101.606 119.558 101.606Z" fill="#666538"/>
<path d="M271.372 134.368L268.98 134.423L266.584 134.479C266.571 134.48 266.557 134.476 266.547 134.469C266.537 134.462 266.53 134.451 266.528 134.44C266.527 134.428 266.53 134.417 266.537 134.407C266.545 134.397 266.556 134.391 266.569 134.387C268.337 133.865 269.957 133.022 271.323 131.913C272.521 130.955 273.379 129.718 273.797 128.348C274.141 127.031 274.057 125.657 273.554 124.379C273.06 123.024 272.191 121.796 271.023 120.804C269.855 119.812 268.424 119.086 266.857 118.692C264.296 117.985 261.558 117.919 258.955 118.5C261.436 118.004 263.651 116.793 265.244 115.062C266.668 113.551 267.474 111.67 267.535 109.715C267.596 107.76 266.909 105.843 265.581 104.267C264.369 102.758 262.624 101.636 260.613 101.073C258.601 100.509 256.434 100.535 254.441 101.146C252.305 101.777 250.435 102.951 249.073 104.518C250.205 102.571 250.625 100.367 250.275 98.2049C249.948 96.1022 248.837 94.1519 247.112 92.6554C245.337 91.1654 243.058 90.2151 240.614 89.9459C238.252 89.6471 235.845 90.0803 233.812 91.1701C231.39 92.5248 229.777 94.8947 229.287 97.5911C228.785 100.535 229.588 103.535 231.533 105.981C231.55 105.998 231.56 106.021 231.56 106.044C231.56 106.068 231.55 106.09 231.533 106.108C231.512 106.123 231.485 106.132 231.458 106.132C231.43 106.132 231.404 106.123 231.383 106.108C230.37 105.461 229.219 104.996 227.999 104.739C226.778 104.482 225.511 104.439 224.271 104.613C223.129 104.75 222.032 105.092 221.049 105.616C220.066 106.141 219.218 106.837 218.559 107.662C217.245 109.398 216.979 111.664 217.698 113.77C218.076 114.887 218.721 115.922 219.59 116.806C220.459 117.691 221.532 118.406 222.74 118.904C219.662 118.347 216.456 118.877 213.827 120.38C211.424 121.764 209.773 123.847 209.429 126.05C209.129 127.97 209.803 130.013 211.229 131.75C212.731 133.604 214.899 134.969 217.391 135.628L214.931 135.683L212.472 135.742C209.218 135.819 206.133 137.019 203.893 139.079C201.654 141.139 200.443 143.889 200.528 146.727C200.572 148.132 200.933 149.517 201.591 150.8C202.248 152.084 203.19 153.242 204.361 154.209C205.532 155.175 206.91 155.931 208.416 156.433C209.922 156.935 211.527 157.173 213.138 157.134L223.245 156.899L233.352 156.667C233.606 167.805 233.861 181.476 234.1 195.187C234.34 208.897 234.61 222.559 234.849 233.707L244.188 233.837L253.524 233.971C253.228 222.716 252.929 208.917 252.633 195.125C252.337 181.333 252.038 167.524 251.738 156.279L261.845 156.044L271.952 155.808C275.206 155.733 278.293 154.534 280.533 152.473C282.773 150.413 283.983 147.662 283.896 144.824C283.81 141.986 282.434 139.294 280.072 137.34C277.71 135.387 274.555 134.332 271.3 134.407L271.372 134.368Z" fill="#666538"/>
<path d="M226.959 119.339H222.714C222.59 119.339 222.471 119.296 222.383 119.219C222.295 119.143 222.246 119.039 222.246 118.931C222.246 118.877 222.258 118.824 222.282 118.775C222.306 118.725 222.341 118.681 222.385 118.643C222.427 118.605 222.478 118.574 222.535 118.553C222.592 118.533 222.653 118.522 222.714 118.522H226.959C227.02 118.523 227.081 118.533 227.137 118.554C227.194 118.575 227.245 118.605 227.288 118.643C227.332 118.681 227.367 118.725 227.391 118.775C227.415 118.824 227.427 118.877 227.427 118.931C227.427 118.985 227.415 119.038 227.391 119.088C227.367 119.138 227.332 119.183 227.288 119.221C227.2 119.296 227.082 119.338 226.959 119.339Z" fill="#285152"/>
<path d="M267.04 135.008H253.796C253.672 135.008 253.553 134.965 253.465 134.888C253.377 134.812 253.328 134.708 253.328 134.6C253.327 134.546 253.339 134.492 253.362 134.443C253.385 134.393 253.419 134.347 253.463 134.309C253.507 134.271 253.559 134.241 253.616 134.221C253.673 134.201 253.734 134.191 253.796 134.192H267.04C267.163 134.192 267.281 134.234 267.369 134.309C267.413 134.347 267.448 134.392 267.472 134.442C267.495 134.492 267.508 134.546 267.507 134.6C267.508 134.653 267.496 134.706 267.472 134.756C267.448 134.805 267.413 134.85 267.369 134.887C267.326 134.925 267.275 134.955 267.218 134.976C267.162 134.997 267.101 135.008 267.04 135.008Z" fill="#285152"/>
<path d="M313.01 136.529C312.913 137.707 312.659 140.946 312.681 145.016C312.704 149.087 313.003 154 314.006 158.521C314.257 159.647 314.53 160.878 314.927 162.252C315.375 163.804 315.931 165.33 316.593 166.822C317.143 168.073 317.536 168.81 317.993 169.649C318.449 170.488 318.97 171.438 319.774 173.11C320.579 174.781 321.204 176.27 321.71 177.592C322.215 178.914 322.593 180.043 322.866 180.918C323.34 182.446 323.689 184.002 323.911 185.573C324.143 187.156 324.285 188.811 324.352 190.636C324.5 194.38 324.361 198.128 323.937 201.856C323.525 205.633 322.881 209.544 322.114 213.905C321.657 216.516 321.126 219.412 320.519 222.605C319.913 225.797 319.228 229.27 318.461 232.989L315.807 233.018L313.156 233.047C314.092 229.391 315.193 224.837 316.271 219.699C317.349 214.561 318.404 208.842 319.265 202.845C319.663 200.291 319.913 197.721 320.014 195.144C320.111 192.074 319.866 189.004 319.284 185.975C318.891 183.964 318.371 182.084 317.895 180.569C317.42 179.054 316.989 177.915 316.772 177.376C316.015 175.414 315.14 173.487 314.152 171.605C313.381 170.126 312.775 169.13 312.546 168.735C311.367 166.721 310.192 163.604 309.357 158.56C308.522 153.517 308.028 146.537 308.234 136.8L310.637 136.663L313.01 136.529Z" fill="#F1DFC6"/>
<path d="M328.997 136.63L311.209 137.237L293.418 137.848C293.279 137.851 293.142 137.819 293.024 137.756C292.906 137.692 292.811 137.601 292.751 137.492C292.681 137.379 292.645 137.252 292.645 137.123C292.645 136.994 292.681 136.867 292.751 136.754L296.719 130.447L300.683 124.144C301.593 122.673 302.906 121.421 304.505 120.501C306.038 119.623 307.816 119.123 309.648 119.055C311.333 119.005 313.005 119.321 314.514 119.975C316.087 120.662 317.456 121.656 318.516 122.88L324.011 129.168L329.506 135.452C329.598 135.557 329.657 135.682 329.678 135.814C329.698 135.945 329.679 136.079 329.622 136.202C329.577 136.319 329.494 136.422 329.383 136.498C329.272 136.574 329.138 136.62 328.997 136.63Z" fill="#FF6500"/>
<path d="M318.292 130.052C318.217 130.286 318.082 130.501 317.896 130.681C317.711 130.861 317.479 131.001 317.221 131.09C316.616 131.313 315.944 131.355 315.308 131.211C314.668 131.084 314.092 130.778 313.669 130.34C313.479 130.161 313.343 129.944 313.273 129.708C313.203 129.473 313.201 129.226 313.267 128.989C313.333 128.752 313.465 128.534 313.651 128.352C313.838 128.171 314.072 128.033 314.335 127.95C314.943 127.739 315.612 127.698 316.248 127.833C316.884 127.967 317.457 128.271 317.887 128.701C318.07 128.884 318.201 129.101 318.271 129.335C318.341 129.57 318.348 129.815 318.292 130.052Z" fill="#D45131"/>
<path d="M321.376 133.186C321.332 133.332 321.249 133.466 321.136 133.579C321.022 133.693 320.88 133.781 320.721 133.839C320.349 133.968 319.94 133.993 319.551 133.91C319.162 133.828 318.812 133.642 318.55 133.379C318.44 133.266 318.36 133.134 318.318 132.991C318.275 132.847 318.27 132.698 318.303 132.553C318.35 132.41 318.433 132.279 318.546 132.169C318.66 132.059 318.8 131.972 318.958 131.916C319.33 131.787 319.738 131.762 320.127 131.845C320.516 131.927 320.866 132.113 321.129 132.377C321.236 132.487 321.314 132.617 321.357 132.757C321.399 132.897 321.406 133.044 321.376 133.186Z" fill="#D45131"/>
<path d="M209.537 95.8022C209.387 97.5618 209.013 102.387 209.047 108.458C209.08 114.53 209.526 121.842 211.019 128.593C211.394 130.268 211.798 132.106 212.393 134.143C213.061 136.461 213.89 138.741 214.875 140.972C215.695 142.839 216.282 143.936 216.96 145.189C217.637 146.443 218.416 147.856 219.618 150.347C220.819 152.838 221.747 155.051 222.496 157.02C223.245 158.988 223.81 160.672 224.222 161.981C224.222 161.981 224.682 163.542 225.188 166.127C225.86 169.535 226.28 172.978 226.445 176.433C226.662 181.3 226.209 188.893 224.948 198.585C223.686 208.277 221.609 220.072 218.584 233.341H211.308C211.682 231.709 212.169 229.75 212.689 227.465C213.209 225.18 213.778 222.605 214.373 219.781C215.496 214.378 216.335 210.128 217.02 206.211C217.705 202.294 218.244 198.703 218.82 194.655C219.407 190.847 219.774 187.017 219.921 183.177C220.067 178.601 219.701 174.023 218.828 169.509C218.248 166.506 217.469 163.705 216.762 161.449C216.054 159.194 215.41 157.49 215.103 156.687C213.978 153.763 212.681 150.892 211.218 148.085C210.065 145.881 209.163 144.396 208.818 143.809C207.063 140.805 205.311 136.16 204.068 128.639C202.826 121.118 202.088 110.721 202.361 96.2005L205.951 96.0014L209.537 95.8022Z" fill="#F1DFC6"/>
<path d="M233.352 95.936L206.828 96.8435L180.319 97.7608C180.112 97.7639 179.908 97.7151 179.732 97.6202C179.557 97.5253 179.416 97.3882 179.327 97.2254C179.223 97.0563 179.168 96.8673 179.168 96.6753C179.168 96.4834 179.223 96.2944 179.327 96.1253L185.237 86.7271L191.148 77.3289C192.506 75.138 194.462 73.2733 196.845 71.9002C199.131 70.5909 201.782 69.8463 204.515 69.7457C207.035 69.6663 209.537 70.1376 211.795 71.1167C214.141 72.1401 216.182 73.624 217.758 75.4518L225.952 84.8174L234.15 94.1699C234.287 94.3284 234.375 94.5148 234.405 94.7114C234.436 94.908 234.409 95.1082 234.326 95.2929C234.256 95.4728 234.126 95.6304 233.953 95.7451C233.779 95.8597 233.57 95.9263 233.352 95.936Z" fill="#FF6500"/>
<path d="M217.405 86.133C217.296 86.4809 217.095 86.8018 216.819 87.0704C216.543 87.339 216.199 87.5478 215.814 87.6804C214.908 87.9976 213.91 88.0603 212.961 87.8595C212.011 87.6588 211.157 87.2048 210.518 86.5607C210.235 86.2942 210.033 85.9711 209.929 85.6199C209.824 85.2688 209.821 84.9006 209.919 84.548C210.017 84.1955 210.214 83.8696 210.491 83.5994C210.769 83.3292 211.119 83.123 211.51 82.9992C212.412 82.668 213.415 82.606 214.362 82.8229C215.318 83.0137 216.177 83.4723 216.806 84.1287C217.076 84.4001 217.271 84.7221 217.375 85.0698C217.479 85.4174 217.489 85.7813 217.405 86.133Z" fill="#D45131"/>
<path d="M222.002 90.8045C221.935 91.0174 221.813 91.2138 221.644 91.3782C221.475 91.5425 221.264 91.6702 221.029 91.7512C220.475 91.9441 219.866 91.9817 219.286 91.8588C218.707 91.736 218.185 91.4588 217.795 91.0657C217.622 90.9028 217.498 90.7052 217.434 90.4906C217.37 90.2759 217.368 90.0507 217.428 89.8352C217.488 89.6197 217.609 89.4204 217.778 89.2552C217.948 89.09 218.162 88.964 218.401 88.8883C218.955 88.695 219.564 88.6571 220.144 88.78C220.724 88.9028 221.245 89.1804 221.635 89.5738C221.802 89.74 221.922 89.9377 221.985 90.1514C222.049 90.365 222.055 90.5886 222.002 90.8045Z" fill="#D45131"/>
<path d="M200.471 233.328C197.146 231.939 194.524 229.531 193.105 226.564C191.731 223.769 191.649 220.62 192.876 217.773C193.946 215.427 195.863 213.448 198.338 212.136C200.918 210.751 203.92 210.082 206.947 210.216C205.223 206.748 204.428 202.982 204.622 199.205C204.821 195.402 206.071 191.75 208.613 189.086C211.536 186.069 215.526 183.984 219.955 183.158C222.209 182.7 224.529 182.537 226.838 182.674C231.55 182.988 236.101 184.307 240.089 186.517C243.783 188.547 246.684 191.506 248.41 195.004C249.397 197.165 250.103 199.415 250.514 201.712C250.926 203.922 251.034 205.91 250.81 207.063C255.402 204.821 260.776 204.124 265.917 205.104C270.497 205.898 274.588 208.121 277.422 211.358C280.255 214.594 281.638 218.621 281.309 222.683C281.045 226.573 279.393 230.294 276.586 233.325H200.471V233.328Z" fill="#285152"/>
<path d="M189.102 181.519C188.226 184.67 187.855 187.912 188.002 191.152C188.14 194.405 188.918 197.613 190.304 200.635C191.242 202.641 192.479 204.53 193.984 206.253C195.485 207.98 197.265 209.507 199.269 210.788C201.39 212.155 203.86 213.051 206.467 213.399C208.938 213.725 211.517 213.628 214.328 213.337C216.181 213.103 218.066 213.147 219.902 213.468C221.738 213.81 223.39 214.677 224.596 215.932C225.777 217.201 226.609 218.688 227.029 220.28C227.461 221.869 227.682 223.495 227.687 225.128L227.789 229.235L227.89 233.341H236.903C236.903 233.341 236.982 232.036 236.997 230.198C237.03 228.094 236.928 225.991 236.694 223.897C236.483 222.133 236.108 220.386 235.571 218.674C234.86 216.445 233.785 214.316 232.378 212.354C231.471 211.08 230.371 209.92 229.106 208.904C227.846 207.884 226.39 207.065 224.805 206.485C222.992 205.886 221.065 205.597 219.127 205.633C217.184 205.633 215.219 205.786 213.306 205.852C211.352 205.926 209.398 205.717 207.523 205.235C205.641 204.755 203.9 203.928 202.417 202.809C197.79 199.284 196.667 194.26 197.042 189.047C197.416 183.833 199.359 178.421 200.807 174.086C201.519 171.957 202.305 169.63 203.207 167.129C204.109 164.629 205.078 161.952 206.164 159.119L201.912 157.78L197.656 156.442C196.555 159.123 195.483 161.892 194.44 164.75C193.397 167.607 192.399 170.553 191.446 173.586C191.019 174.931 190.61 176.265 190.218 177.589C189.826 178.912 189.454 180.222 189.102 181.519Z" fill="#BAB653"/>
<path d="M197.971 183.468L198.536 181.444L199.105 179.417C199.139 179.293 199.168 179.195 199.195 179.11C199.221 179.025 199.243 178.947 199.262 178.875C199.314 178.699 199.382 178.463 199.487 178.127C199.591 177.791 199.73 177.36 199.921 176.789C200.669 174.504 201.194 173.136 201.62 171.98C202.047 170.825 202.369 169.881 202.777 168.438C203.02 167.541 203.099 167.133 203.192 166.64C203.286 166.147 203.398 165.553 203.713 164.27C204.057 162.856 204.409 161.577 204.735 160.467C205.06 159.357 205.371 158.41 205.622 157.659L200.464 156.922L195.305 156.194C194.954 157.499 194.497 159.181 194.014 160.97C193.531 162.758 193.026 164.639 192.577 166.31C191.51 170.27 190.705 173.267 190.069 175.937C189.432 178.607 188.946 180.954 188.553 183.611C188.448 184.31 188.358 184.947 188.283 185.502C188.208 186.056 188.148 186.536 188.104 186.915L195.451 184.356L197.971 183.478V183.468Z" fill="#285152"/>
<path d="M197.751 200.707C196.501 198.536 194.432 196.807 191.892 195.81C190.07 195.056 188.065 194.697 186.049 194.763C186.049 194.505 186.076 194.25 186.068 193.995C186.056 192.813 185.764 191.646 185.211 190.567C184.658 189.488 183.855 188.519 182.854 187.723C181.852 186.926 180.673 186.318 179.39 185.937C178.107 185.556 176.747 185.41 175.396 185.508C174.68 185.554 173.972 185.663 173.281 185.834C173.132 183.987 172.252 182.242 170.793 180.897C169.334 179.552 167.385 178.689 165.278 178.457C164.244 178.34 163.193 178.418 162.197 178.685C161.2 178.953 160.281 179.403 159.501 180.006C158.72 180.609 158.097 181.351 157.673 182.182C157.249 183.013 157.035 183.913 157.043 184.822C157.052 186.765 157.872 188.638 159.349 190.091C160.826 191.545 162.859 192.48 165.069 192.722C165.215 192.722 165.364 192.739 165.514 192.745C165.262 193.579 165.144 194.439 165.162 195.301C165.175 196.483 165.466 197.65 166.019 198.73C166.572 199.809 167.375 200.777 168.376 201.574C169.378 202.37 170.557 202.978 171.841 203.359C173.124 203.74 174.483 203.887 175.834 203.789C176.534 203.74 177.226 203.63 177.9 203.462C178.057 203.978 178.27 204.48 178.537 204.961C179.819 207.107 181.877 208.825 184.393 209.847C186.909 210.869 189.741 211.139 192.45 210.614C194.913 210.066 196.942 208.76 197.986 206.818C199.031 204.876 198.855 202.702 197.751 200.707Z" fill="#BAB653"/>
<path d="M192.551 204.507C192.515 204.51 192.479 204.51 192.443 204.507C192.405 204.5 192.368 204.488 192.334 204.471C190.462 203.606 188.628 202.692 186.813 201.739C184.997 200.786 183.216 199.78 181.471 198.768C177.284 196.299 173.276 193.606 169.471 190.705C165.637 187.787 162.012 184.667 158.615 181.362C158.574 181.323 158.542 181.276 158.521 181.226C158.5 181.175 158.491 181.122 158.495 181.068C158.498 181.015 158.514 180.962 158.541 180.914C158.568 180.866 158.606 180.823 158.653 180.788C158.698 180.752 158.751 180.724 158.809 180.706C158.867 180.688 158.928 180.68 158.99 180.683C159.113 180.69 159.228 180.738 159.311 180.817C162.685 184.096 166.285 187.193 170.092 190.088C173.868 192.967 177.846 195.638 182.003 198.086C183.732 199.104 185.499 200.084 187.303 201.024C189.104 201.971 190.934 202.875 192.779 203.733C192.834 203.758 192.882 203.793 192.921 203.834C192.96 203.875 192.99 203.923 193.008 203.974C193.026 204.025 193.032 204.079 193.026 204.132C193.021 204.186 193.003 204.238 192.974 204.285C192.933 204.351 192.872 204.406 192.798 204.445C192.725 204.486 192.639 204.508 192.551 204.507Z" fill="#666538"/>
<path d="M219.876 132.468C229.312 124.088 231.334 117.719 228.916 115.663C226.498 113.606 219.64 115.862 211.323 124.722C214.909 113.296 212.786 107.068 209.249 106.931C205.712 106.793 200.752 112.731 198.671 125.626C194.998 112.846 189.264 107.414 185.771 108.024C182.279 108.635 181.033 115.287 186.34 126.68C176.728 118.451 169.429 116.688 167.07 118.797C164.712 120.905 167.295 126.886 177.458 134.139C164.357 131.012 157.215 132.863 157.054 135.951C156.893 139.039 163.709 143.358 178.495 145.176C163.836 148.375 157.608 153.38 158.308 156.422C159.008 159.465 166.636 160.555 179.704 155.929C170.263 164.309 168.242 170.675 170.66 172.731C173.078 174.788 179.94 172.535 188.253 163.676C184.671 175.101 186.79 181.33 190.331 181.467C193.872 181.604 198.824 175.663 200.909 162.768C204.577 175.552 210.316 180.983 213.808 180.373C217.301 179.763 218.547 173.11 213.239 161.714C222.848 169.947 230.151 171.709 232.509 169.601C234.867 167.492 232.285 161.508 222.122 154.258C235.223 157.385 242.365 155.534 242.526 152.446C242.687 149.358 235.871 145.039 221.085 143.221C235.74 140.022 241.972 135.017 241.272 131.975C240.572 128.933 232.932 127.839 219.876 132.468Z" fill="#F1DFC6"/>
<path d="M207.749 144.36C207.801 146.165 207.134 147.929 205.861 149.353C204.589 150.777 202.79 151.773 200.77 152.17C198.751 152.567 196.636 152.341 194.786 151.531C192.936 150.721 191.465 149.377 190.624 147.728C189.783 146.078 189.623 144.225 190.172 142.485C190.722 140.744 191.946 139.224 193.636 138.182C195.327 137.14 197.379 136.641 199.444 136.771C201.509 136.9 203.458 137.65 204.96 138.892C205.816 139.598 206.503 140.444 206.982 141.383C207.46 142.321 207.721 143.333 207.749 144.36Z" fill="#5FC6AA"/>
<path d="M289.298 118.405C289.351 120.997 289.238 123.331 289.059 125.365C288.879 127.398 288.624 129.129 288.392 130.519C287.514 135.628 286.258 140.682 284.634 145.65C283.047 150.674 281.179 155.936 279.165 162.23C277.384 167.802 275.961 172.255 274.775 176.515C273.588 180.775 272.645 184.852 271.817 189.673C271.424 191.959 270.953 194.958 270.534 198.543C270.114 202.127 269.755 206.299 269.583 210.918C269.426 215.116 269.444 219.095 269.583 222.83C269.721 226.564 269.995 230.051 270.331 233.276C268.916 233.247 267.472 233.234 265.989 233.24C264.507 233.247 262.995 233.266 261.438 233.312C260.073 233.351 258.734 233.403 257.421 233.469C256.108 233.534 254.826 233.613 253.573 233.707C252.824 233.759 252.854 228.428 253.113 222.885C253.371 217.342 253.839 211.591 253.906 210.807C254.389 205.14 255.029 199.627 255.92 194.159C256.811 188.691 257.949 183.216 259.424 177.66C260.315 174.311 261.247 170.966 262.22 167.626C263.193 164.285 264.239 160.966 265.357 157.669C268.464 148.483 270.766 142.917 272.371 138.236C274.03 133.661 274.986 128.915 275.216 124.121C275.415 120.71 275.37 117.142 275.242 113.969C275.115 110.796 274.898 108.018 274.756 106.177C274.382 101.567 273.902 97.3464 273.352 93.5923C272.802 89.8382 272.199 86.5477 271.642 83.7991L278.054 82.8687L284.466 81.9417C285.182 87.5281 285.857 92.4639 286.491 96.749C287.116 101.029 287.685 104.649 288.16 107.593C288.333 108.658 288.595 110.113 288.827 111.928C289.059 113.743 289.246 115.891 289.298 118.405Z" fill="#BAB653"/>
<path d="M274.575 129.827C274.661 129.125 274.733 128.485 274.796 127.924C274.86 127.362 274.916 126.876 274.957 126.481C274.957 126.481 275.185 124.353 275.38 121.738C275.575 119.123 275.732 116.019 275.586 114.07C275.586 113.884 275.556 113.681 275.545 113.528C275.534 113.375 275.522 113.267 275.522 113.267C275.522 113.009 275.474 112.66 275.429 112.163C275.384 111.667 275.313 111.021 275.215 110.172C274.811 106.601 274.422 103.487 274.137 101.267C273.853 99.047 273.666 97.7152 273.666 97.7152C273.4 95.8218 273.1 93.6967 272.764 91.3659C272.427 89.0351 272.045 86.4922 271.641 83.7664L278.053 82.836L284.465 81.9089C285.064 84.8697 285.588 87.6118 286.018 90.0961C286.449 92.5803 286.823 94.8001 287.141 96.7228C288.425 104.884 289.013 110.606 289.234 114.638C289.41 117.214 289.427 119.797 289.286 122.374C289.166 124.405 288.987 126.233 288.807 127.722C288.627 129.21 288.433 130.369 288.332 131.058C287.912 133.64 287.4 136.013 286.857 138.155C286.314 140.296 285.734 142.202 285.206 143.848C283.439 141.51 281.671 139.173 279.902 136.836L274.575 129.827Z" fill="#666538"/>
<path d="M342.279 152.371C341.722 151.072 340.859 149.889 339.745 148.9C338.63 147.911 337.29 147.137 335.81 146.629C332.791 145.606 329.458 145.527 326.379 146.405C323.3 147.283 320.665 149.063 318.921 151.444C318.137 150.779 317.278 150.186 316.357 149.671C314.626 148.684 312.681 148.019 310.642 147.717C308.604 147.415 306.516 147.483 304.508 147.916C302.501 148.35 300.618 149.139 298.976 150.236C297.335 151.333 295.97 152.713 294.968 154.291C294.747 154.617 294.545 154.976 294.358 155.332C291.706 153.965 288.716 153.176 285.64 153.03C281.077 152.786 276.851 153.889 273.711 155.864C270.57 157.839 268.515 160.695 268.287 163.953C268.058 167.211 269.705 170.263 272.546 172.558C275.388 174.853 279.43 176.39 283.997 176.632C288.564 176.874 292.786 175.774 295.926 173.795C296.684 173.321 297.387 172.784 298.026 172.192C298.798 172.837 299.639 173.414 300.538 173.916C302.268 174.903 304.214 175.569 306.252 175.871C308.291 176.173 310.379 176.106 312.386 175.673C314.393 175.24 316.276 174.45 317.918 173.354C319.559 172.257 320.924 170.877 321.927 169.3C322.662 168.158 323.212 166.934 323.563 165.66C323.768 165.745 323.974 165.824 324.184 165.899C327.349 166.975 330.855 167.01 334.047 165.997C337.24 164.983 339.899 162.991 341.53 160.392C342.293 159.175 342.754 157.833 342.883 156.451C343.012 155.069 342.806 153.679 342.279 152.371Z" fill="#BAB653"/>
<path d="M279.056 164.136H277.84C277.722 164.137 277.608 164.098 277.521 164.028C277.435 163.95 277.387 163.846 277.387 163.738C277.387 163.685 277.399 163.632 277.423 163.583C277.446 163.534 277.481 163.49 277.525 163.454C277.568 163.416 277.62 163.385 277.676 163.365C277.733 163.344 277.793 163.333 277.855 163.333C281.051 163.353 284.263 163.297 287.471 163.17C290.679 163.042 293.879 162.843 297.054 162.576C304.68 161.925 312.254 160.863 319.73 159.396C327.246 157.912 334.652 156.029 341.905 153.758C341.964 153.736 342.027 153.724 342.092 153.724C342.156 153.724 342.22 153.736 342.279 153.758C342.335 153.781 342.385 153.813 342.427 153.852C342.468 153.892 342.499 153.939 342.519 153.99C342.54 154.04 342.55 154.094 342.547 154.147C342.544 154.2 342.529 154.253 342.503 154.301C342.477 154.35 342.44 154.393 342.395 154.429C342.349 154.464 342.296 154.492 342.238 154.509C334.942 156.788 327.493 158.674 319.932 160.157C312.419 161.633 304.808 162.702 297.143 163.356C294.149 163.61 291.141 163.801 288.118 163.927C285.096 164.053 282.076 164.123 279.056 164.136Z" fill="#666538"/>
<path d="M246.801 99.8402C245.122 101.974 244.224 104.502 244.228 107.09C244.231 109.677 245.134 112.203 246.819 114.334C248.503 116.464 250.889 118.099 253.662 119.022C256.434 119.944 259.462 120.112 262.346 119.502H262.365C262.902 122.051 264.316 124.397 266.418 126.23C268.52 128.063 271.211 129.295 274.134 129.763C277.058 130.231 280.075 129.913 282.786 128.851C285.498 127.789 287.775 126.034 289.316 123.817C291.762 125.283 294.661 126.067 297.628 126.065C300.596 126.063 303.493 125.275 305.937 123.806C308.38 122.337 310.255 120.256 311.313 117.838C312.371 115.42 312.562 112.778 311.861 110.263V110.247V110.231C314.784 109.762 317.475 108.529 319.577 106.696C321.678 104.863 323.091 102.516 323.627 99.9668C324.164 97.4174 323.8 94.7859 322.582 92.4214C321.364 90.0568 319.351 88.071 316.81 86.7271V86.7108C318.477 84.5789 319.365 82.057 319.358 79.4765C319.351 76.8961 318.448 74.378 316.769 72.2534C315.089 70.1288 312.712 68.4971 309.95 67.5729C307.187 66.6487 304.168 66.4753 301.29 67.0754H301.253C300.714 64.5272 299.299 62.1821 297.197 60.3507C295.095 58.5193 292.405 57.2881 289.482 56.8201C286.56 56.3522 283.543 56.6696 280.832 57.7303C278.122 58.791 275.844 60.545 274.302 62.7599C271.856 61.2949 268.957 60.5119 265.989 60.5144C263.022 60.517 260.125 61.305 257.682 62.7743C255.239 64.2436 253.365 66.3248 252.308 68.743C251.25 71.1611 251.059 73.8022 251.76 76.3169V76.3496C248.838 76.8199 246.149 78.0534 244.049 79.8866C241.949 81.7197 240.537 84.066 240.001 86.6146C239.464 89.1632 239.828 91.7939 241.045 94.1581C242.261 96.5222 244.272 98.5083 246.812 99.8533L246.801 99.8402Z" fill="#5FC6AA"/>
<path d="M265.645 93.6216C265.559 96.8552 266.761 100.015 269.046 102.562C271.332 105.109 274.559 106.887 278.179 107.592C281.798 108.297 285.586 107.885 288.897 106.428C292.208 104.971 294.837 102.557 296.336 99.5988C297.836 96.6405 298.113 93.3204 297.12 90.204C296.127 87.0877 293.926 84.3679 290.892 82.508C287.858 80.6481 284.178 79.7631 280.479 80.0039C276.781 80.2447 273.292 81.5963 270.608 83.8284C269.082 85.095 267.858 86.6123 267.006 88.2929C266.154 89.9736 265.691 91.7846 265.645 93.6216Z" fill="#F1DFC6"/>
<path d="M336.803 210.288C338.484 210.14 340.113 209.696 341.592 208.985C343.072 208.274 344.371 207.309 345.412 206.149C346.383 205.121 347.106 203.934 347.538 202.657C347.969 201.38 348.101 200.04 347.924 198.717C347.748 197.395 347.267 196.117 346.511 194.961C345.754 193.805 344.738 192.793 343.522 191.988C341.138 190.351 338.157 189.52 335.126 189.647C336.972 189.098 338.667 188.22 340.103 187.069C341.539 185.918 342.686 184.519 343.47 182.962C344.235 181.563 344.653 180.04 344.699 178.491C344.744 176.942 344.415 175.403 343.733 173.972C343.051 172.541 342.031 171.252 340.739 170.188C339.448 169.124 337.914 168.308 336.238 167.795C332.872 166.688 329.15 166.742 325.828 167.946C326.662 166.999 327.349 165.961 327.872 164.857C328.957 162.643 329.298 160.205 328.853 157.828C328.409 155.451 327.199 153.234 325.364 151.434C324.311 150.354 323.081 149.415 321.714 148.646C318.944 147.537 315.85 147.195 312.85 147.667C309.695 148.135 306.84 149.583 304.813 151.743C302.786 153.903 301.722 156.629 301.819 159.419C301.862 162.569 303.215 165.599 305.626 167.946C303.813 167.394 301.89 167.174 299.976 167.298C298.061 167.422 296.197 167.888 294.497 168.667C291.286 170.133 288.853 172.63 288.033 175.565C287.262 178.339 287.98 181.333 289.811 183.83C291.743 186.471 294.765 188.364 298.252 189.118C295.112 188.825 291.944 189.384 289.182 190.718C286.651 191.918 284.693 193.865 283.657 196.209C283.002 197.79 282.783 199.483 283.017 201.151C283.265 203.031 284.136 204.806 285.525 206.26C286.969 207.746 288.885 208.826 291.031 209.364C292.176 209.668 293.364 209.827 294.561 209.838C291.563 210.446 288.89 211.922 286.976 214.024C285.062 216.127 284.02 218.732 284.02 221.416C284.02 224.57 285.456 227.594 288.013 229.824C290.569 232.054 294.037 233.308 297.653 233.309H332.015C335.63 233.308 339.097 232.055 341.653 229.827C344.209 227.598 345.646 224.575 345.648 221.423C345.655 218.968 344.786 216.573 343.163 214.568C341.58 212.62 339.365 211.13 336.803 210.288Z" fill="#666538"/>
<path d="M301.32 210.252H294.56C294.436 210.252 294.317 210.209 294.229 210.133C294.141 210.056 294.092 209.952 294.092 209.844C294.092 209.791 294.104 209.738 294.127 209.688C294.151 209.639 294.186 209.594 294.23 209.557C294.273 209.518 294.324 209.488 294.381 209.467C294.437 209.446 294.498 209.436 294.56 209.436H301.32C301.444 209.437 301.562 209.48 301.65 209.557C301.737 209.633 301.787 209.736 301.788 209.844C301.788 209.952 301.739 210.056 301.651 210.133C301.563 210.209 301.444 210.252 301.32 210.252Z" fill="#285152"/>
<path d="M320.359 170.968C320.276 170.968 320.194 170.949 320.123 170.913C320.049 170.876 319.99 170.822 319.951 170.756C319.92 170.71 319.901 170.658 319.894 170.605C319.887 170.552 319.892 170.498 319.909 170.446C319.945 170.342 320.025 170.254 320.134 170.201L322.87 168.895L325.603 167.59C325.656 167.563 325.715 167.547 325.776 167.54C325.837 167.534 325.899 167.539 325.958 167.554C326.078 167.585 326.179 167.655 326.239 167.75C326.298 167.845 326.311 167.957 326.276 168.061C326.241 168.165 326.161 168.252 326.052 168.305L323.319 169.61L320.583 170.916C320.549 170.933 320.513 170.945 320.475 170.952C320.437 170.962 320.398 170.968 320.359 170.968Z" fill="#285152"/>
<path d="M302.782 189.533H297.609C297.484 189.533 297.365 189.49 297.278 189.413C297.19 189.337 297.141 189.233 297.141 189.125C297.141 189.017 297.19 188.913 297.278 188.836C297.365 188.76 297.484 188.717 297.609 188.717H302.782C302.906 188.717 303.025 188.76 303.113 188.836C303.2 188.913 303.25 189.017 303.25 189.125C303.25 189.233 303.2 189.337 303.113 189.413C303.025 189.49 302.906 189.533 302.782 189.533Z" fill="#285152"/>
<path d="M115.942 106.829C115.945 109.077 115.054 111.255 113.421 112.994C111.788 114.732 109.514 115.923 106.987 116.364C104.46 116.804 101.836 116.466 99.5626 115.408C97.2892 114.35 95.5069 112.637 94.5196 110.561C93.5323 108.485 93.4011 106.175 94.1484 104.024C94.8957 101.873 96.4753 100.015 98.6177 98.7659C100.76 97.5171 103.333 96.9549 105.898 97.1752C108.462 97.3955 110.86 98.3847 112.682 99.9741C113.715 100.874 114.535 101.942 115.095 103.118C115.654 104.295 115.942 105.556 115.942 106.829Z" fill="#285152"/>
<path d="M106.366 115.565C106.369 117.811 105.478 119.989 103.845 121.727C102.213 123.465 99.9396 124.655 97.4135 125.095C94.8874 125.535 92.2645 125.197 89.992 124.139C87.7194 123.081 85.9379 121.369 84.951 119.294C83.9641 117.219 83.8329 114.909 84.5798 112.759C85.3267 110.609 86.9055 108.752 89.0471 107.503C91.1886 106.255 93.7604 105.693 96.324 105.913C98.8876 106.133 101.284 107.121 103.106 108.71C104.14 109.609 104.96 110.678 105.519 111.854C106.079 113.03 106.366 114.291 106.366 115.565Z" fill="#285152"/>
<path d="M97.884 111.054C97.2537 111.039 96.6395 110.877 96.106 110.583C95.5608 110.297 95.081 109.925 94.6911 109.487C94.3054 109.045 93.9964 108.557 93.774 108.037C93.5527 107.512 93.4166 106.963 93.3697 106.405H93.3173H93.2612C93.2008 106.415 93.1389 106.414 93.079 106.402C93.0192 106.39 92.9627 106.368 92.9131 106.336C92.8362 106.291 92.7767 106.227 92.7422 106.152C92.7077 106.077 92.6999 105.994 92.7196 105.915C92.7394 105.836 92.7858 105.764 92.853 105.708C92.9202 105.652 93.005 105.615 93.0965 105.602L93.2387 105.579L93.3847 105.56C93.3847 105.478 93.3847 105.4 93.4146 105.318C93.4446 105.236 93.4446 105.161 93.4633 105.083C93.4885 104.977 93.5595 104.883 93.6617 104.822C93.7129 104.792 93.7704 104.771 93.8308 104.761C93.8912 104.751 93.9534 104.752 94.0136 104.763C94.0744 104.773 94.1323 104.793 94.1838 104.823C94.2353 104.852 94.2793 104.891 94.313 104.936C94.3809 105.027 94.4051 105.137 94.3804 105.243L94.3579 105.347C94.3579 105.383 94.3579 105.419 94.3392 105.455C95.2936 105.371 96.2573 105.426 97.1915 105.615C98.1465 105.808 99.0102 106.253 99.6658 106.888C100.006 107.227 100.254 107.629 100.392 108.063C100.526 108.472 100.535 108.904 100.418 109.317C100.314 109.659 100.122 109.976 99.8566 110.244C99.5914 110.512 99.26 110.724 98.8872 110.864C98.727 110.924 98.5601 110.968 98.3894 110.998C98.2231 111.029 98.054 111.048 97.884 111.054ZM94.3018 106.291C94.3329 106.779 94.4464 107.261 94.6387 107.721C94.828 108.175 95.0956 108.602 95.4322 108.987C95.8095 109.418 96.2931 109.769 96.8472 110.015C97.1012 110.138 97.3824 110.211 97.6718 110.23C97.9611 110.249 98.2518 110.214 98.5241 110.126C98.7643 110.035 98.9778 109.898 99.1489 109.725C99.3199 109.552 99.4442 109.348 99.5123 109.128C99.5902 108.843 99.5799 108.546 99.4824 108.266C99.3826 107.96 99.2047 107.677 98.9621 107.44C98.397 106.901 97.6497 106.532 96.8284 106.389C95.9974 106.24 95.1447 106.207 94.3018 106.291Z" fill="#666538"/>
<path d="M135.653 169.839L135.739 175.31L135.821 180.784C135.837 181.815 135.791 182.846 135.683 183.873C135.572 184.898 135.393 185.917 135.148 186.925C134.935 187.889 134.604 188.83 134.159 189.732C133.748 190.493 133.25 190.995 132.662 190.986C132.444 191.558 132.072 192.076 131.577 192.497C131.152 192.865 130.596 193.096 130.001 193.15C129.843 193.166 129.683 193.166 129.525 193.15C129.307 193.121 129.093 193.069 128.889 192.993C128.723 193.218 128.528 193.426 128.309 193.613C128.029 193.856 127.7 194.052 127.339 194.191C127.162 194.265 126.972 194.315 126.778 194.341C126.676 194.353 126.573 194.353 126.471 194.341C126.25 194.313 126.041 194.238 125.861 194.123C125.743 194.051 125.636 193.966 125.543 193.871C125.228 193.574 125.105 193.147 125.135 192.357C125.165 191.567 125.34 190.398 125.632 188.648C125.659 188.501 125.7 188.247 125.76 187.911C125.82 187.574 125.898 187.153 125.992 186.67C126.022 186.513 126.044 186.402 126.063 186.318C126.082 186.233 126.093 186.177 126.1 186.122C126.197 185.564 126.252 185.001 126.265 184.437C126.279 183.987 126.266 183.535 126.228 183.086C126.186 182.586 126.138 182.087 126.059 181.591C125.984 181.094 125.866 180.603 125.707 180.122C125.619 179.834 125.493 179.556 125.333 179.293C125.178 179.023 124.91 178.816 124.584 178.715C124.422 178.674 124.251 178.664 124.083 178.684C123.915 178.705 123.754 178.757 123.611 178.836C123.317 178.985 123.079 179.207 122.926 179.472C122.771 179.761 122.67 180.069 122.627 180.386C122.574 180.713 122.552 181.039 122.518 181.339C122.466 181.796 122.406 182.253 122.316 182.704C122.223 183.157 122.098 183.606 121.942 184.046C121.752 184.705 121.4 185.32 120.908 185.847C120.738 186.034 120.499 186.165 120.231 186.216C120.151 186.222 120.071 186.222 119.991 186.216C119.863 186.214 119.737 186.192 119.617 186.151C119.411 186.061 119.228 185.934 119.082 185.778C118.937 185.623 118.83 185.441 118.771 185.247C118.563 184.698 118.468 184.121 118.49 183.543C118.49 183.269 118.49 182.994 118.49 182.723C118.49 182.453 118.49 182.175 118.49 181.901L118.378 175.852L118.27 169.8L126.954 169.816L135.653 169.839Z" fill="#FFAA9F"/>
<path d="M128.89 193.382C128.859 193.385 128.828 193.385 128.797 193.382C128.763 193.378 128.73 193.369 128.7 193.356C128.644 193.333 128.593 193.302 128.552 193.263C128.51 193.223 128.477 193.177 128.456 193.127C128.432 193.078 128.42 193.025 128.42 192.972C128.42 192.919 128.432 192.866 128.456 192.817C129.108 191.554 129.632 189.412 129.998 187.578C130.365 185.743 130.571 184.212 130.575 184.183C130.589 184.076 130.651 183.979 130.747 183.912C130.845 183.845 130.968 183.814 131.091 183.824C131.153 183.83 131.212 183.847 131.266 183.873C131.32 183.899 131.368 183.935 131.406 183.977C131.444 184.019 131.473 184.067 131.489 184.119C131.506 184.17 131.511 184.224 131.503 184.277C131.503 184.405 131.279 185.962 130.904 187.819C130.53 189.677 129.991 191.831 129.31 193.15C129.273 193.223 129.212 193.285 129.134 193.326C129.06 193.364 128.976 193.383 128.89 193.382Z" fill="#D45131"/>
<path d="M132.659 191.394H132.6H132.54C132.42 191.366 132.317 191.298 132.255 191.204C132.193 191.111 132.174 191 132.203 190.894C132.352 190.395 132.491 189.889 132.618 189.38C132.746 188.87 132.865 188.364 132.97 187.858C133.105 187.227 133.222 186.592 133.322 185.952C133.423 185.299 133.505 184.672 133.576 184.033C133.581 183.979 133.598 183.928 133.626 183.881C133.655 183.833 133.694 183.792 133.741 183.758C133.838 183.689 133.961 183.655 134.086 183.664C134.208 183.675 134.321 183.728 134.4 183.811C134.479 183.894 134.518 184 134.509 184.108C134.436 184.76 134.35 185.413 134.25 186.066C134.145 186.719 134.026 187.372 133.876 188.025C133.767 188.541 133.648 189.06 133.502 189.575C133.356 190.091 133.232 190.607 133.079 191.12C133.053 191.208 132.994 191.286 132.91 191.342C132.834 191.379 132.747 191.397 132.659 191.394Z" fill="#D45131"/>
<path d="M93.673 149.038L84.0455 180.497L74.418 211.956H116.514C118.401 201.471 120.289 190.985 122.178 180.497C124.067 170.01 125.956 159.523 127.845 149.038H93.673Z" fill="#666538"/>
<path d="M114.605 110.355C113.385 110.146 112.146 110.03 110.903 110.009C109.313 109.982 107.724 110.121 106.172 110.424C102.447 111.181 99.0338 112.817 96.3046 115.154C94.6985 116.497 93.3062 118.022 92.1646 119.688L87.815 126.018L83.4616 132.364C82.4202 133.875 81.5525 135.473 80.8713 137.133C80.1923 138.791 79.718 140.508 79.4564 142.255C79.1382 144.399 79.1195 146.747 79.8082 148.904C80.4755 151.186 82.1188 153.159 84.4012 154.418C85.4073 154.97 86.5078 155.379 87.6615 155.629C88.8192 155.876 90.012 155.977 91.2026 155.926L106.965 155.247L122.728 154.562L122.354 145.271L121.979 135.977L129.264 135.52L131.756 135.364C131.756 135.364 131.255 137.401 130.532 140.414C129.81 143.427 128.87 147.419 127.991 151.333C126.935 156.024 125.951 160.659 125.236 164.123C124.521 167.586 124.064 169.875 124.064 169.878L129.847 169.973L135.634 170.071C137.596 157.516 138.977 146.636 139.823 138.664C140.669 130.692 140.984 125.629 140.804 124.702C140.577 123.558 140.273 122.427 139.894 121.314C139.595 120.422 139.359 119.851 139.359 119.851C138.836 118.915 138.225 118.019 137.532 117.171C136.573 116.02 135.397 115.019 134.055 114.21C132.962 113.555 131.772 113.032 130.517 112.656C129.536 112.364 128.524 112.156 127.497 112.036L121.055 111.194L114.605 110.355Z" fill="#F1DFC6"/>
<path d="M187.311 65.8481C178.601 63.9732 169.424 64.6627 161.21 67.8093C152.996 70.9559 146.206 76.383 141.897 83.2454C137.588 90.1078 136.002 98.0202 137.386 105.75C138.77 113.481 143.047 120.595 149.549 125.985L120.255 162.481L90.957 198.977L93.9516 200.812L96.9462 202.649L126.147 166.313L155.318 129.974C160.272 132.797 165.872 134.643 171.729 135.383C177.585 136.123 183.556 135.74 189.225 134.26C194.894 132.78 200.124 130.239 204.551 126.815C208.978 123.39 212.495 119.164 214.856 114.432C217.216 109.7 218.365 104.576 218.22 99.4168C218.076 94.2577 216.643 89.1883 214.02 84.5622C211.397 79.9362 207.648 75.865 203.035 72.6327C198.422 69.4005 193.056 67.0851 187.311 65.8481ZM169.437 128.969C161.824 127.328 155.099 123.437 150.407 117.957C145.716 112.477 143.348 105.749 143.708 98.9172C144.067 92.0857 147.132 85.5742 152.379 80.4923C157.626 75.4104 164.732 72.0724 172.485 71.0472C180.238 70.0219 188.159 71.3728 194.898 74.8696C201.637 78.3665 206.777 83.7929 209.443 90.2244C212.109 96.6558 212.135 103.694 209.517 110.141C206.899 116.587 201.799 122.042 195.086 125.577C191.277 127.587 187.051 128.922 182.649 129.504C178.248 130.086 173.758 129.904 169.437 128.969Z" fill="#285152"/>
<path d="M131.932 135.755H131.861C131.8 135.747 131.741 135.729 131.689 135.701C131.636 135.673 131.59 135.636 131.554 135.592C131.517 135.549 131.491 135.5 131.477 135.448C131.463 135.395 131.461 135.341 131.472 135.289L131.928 132.732L132.385 130.173C132.395 130.121 132.416 130.07 132.448 130.025C132.48 129.979 132.523 129.94 132.572 129.909C132.672 129.845 132.797 129.818 132.92 129.834C132.981 129.842 133.04 129.86 133.093 129.888C133.145 129.916 133.191 129.953 133.227 129.997C133.298 130.085 133.328 130.194 133.31 130.3L132.853 132.857L132.396 135.416C132.377 135.512 132.32 135.6 132.235 135.664C132.149 135.724 132.042 135.756 131.932 135.755Z" fill="#285152"/>
<path d="M122.729 154.561C127.775 154.069 132.132 153.566 135.43 153.145C138.728 152.724 140.966 152.387 141.793 152.221C142.022 152.175 142.306 152.107 142.725 152.012C143.145 151.917 143.699 151.797 144.473 151.637C144.994 151.529 145.327 151.467 145.596 151.408C145.836 151.354 146.07 151.283 146.296 151.196C146.7 151.046 147.085 150.861 147.446 150.644C147.841 150.416 148.137 150.078 148.284 149.684C148.377 149.382 148.377 149.063 148.284 148.761C148.22 148.533 148.122 148.313 147.992 148.108L148.898 147.7C149.227 147.553 149.583 147.373 149.961 147.21C150.764 146.857 151.536 146.452 152.271 145.999C152.607 145.81 152.857 145.523 152.974 145.189C153.056 144.929 153.069 144.655 153.012 144.39C152.989 144.261 152.95 144.135 152.896 144.014C152.804 143.81 152.67 143.623 152.499 143.462C152.387 143.361 152.261 143.271 152.125 143.195C152.859 142.892 153.432 142.356 153.727 141.696C153.857 141.424 153.917 141.13 153.904 140.836C153.891 140.541 153.805 140.252 153.652 139.989C153.422 139.648 153.073 139.379 152.656 139.222C152.2 139.044 151.702 138.967 151.204 138.997C151.194 138.802 151.154 138.61 151.084 138.426C150.961 138.086 150.735 137.783 150.429 137.547C150.232 137.397 150.005 137.278 149.759 137.198C149.547 137.131 149.325 137.091 149.1 137.081C148.874 137.066 148.648 137.079 148.426 137.12C148.268 137.146 148.112 137.185 147.962 137.237L147.876 137.267L147.831 137.283C147.457 137.43 144.619 138.298 141.842 139.075C139.064 139.852 136.354 140.531 136.257 140.296C136.231 140.237 136.362 140.123 136.804 139.898C137.245 139.673 138.005 139.34 139.237 138.847L140.91 136.761L142.583 134.678L132.304 135.331L122.025 135.984L122.4 145.277L122.729 154.561Z" fill="#FFAA9F"/>
<path d="M138.955 144.034C138.857 144.033 138.761 144.006 138.682 143.955C138.599 143.904 138.539 143.831 138.51 143.746C138.49 143.696 138.483 143.642 138.488 143.589C138.493 143.535 138.511 143.483 138.54 143.436C138.598 143.34 138.697 143.267 138.817 143.234C140.086 142.888 141.351 142.503 142.597 142.085C143.844 141.667 145.079 141.213 146.284 140.73C147.078 140.404 147.868 140.077 148.646 139.731C149.425 139.385 150.2 139.02 150.96 138.644C151.012 138.618 151.071 138.601 151.131 138.595C151.192 138.589 151.253 138.593 151.312 138.608C151.371 138.622 151.427 138.646 151.476 138.68C151.525 138.713 151.566 138.754 151.596 138.801C151.656 138.895 151.671 139.006 151.638 139.11C151.605 139.213 151.527 139.302 151.42 139.356C150.649 139.734 149.867 140.103 149.073 140.456C148.28 140.808 147.479 141.148 146.677 141.471C145.45 141.965 144.202 142.423 142.934 142.845C141.669 143.273 140.385 143.662 139.094 144.014H139.026L138.955 144.034Z" fill="#D45131"/>
<path d="M140.145 147.556C140.047 147.556 139.952 147.53 139.872 147.481C139.791 147.43 139.731 147.358 139.699 147.275C139.662 147.172 139.673 147.061 139.729 146.964C139.785 146.868 139.882 146.795 139.999 146.76C140.89 146.508 141.781 146.244 142.664 145.963C143.547 145.682 144.431 145.395 145.303 145.095C146.426 144.713 147.526 144.308 148.627 143.884C149.727 143.459 150.817 143.022 151.891 142.578C151.946 142.554 152.005 142.54 152.067 142.536C152.128 142.533 152.189 142.54 152.247 142.558C152.305 142.575 152.359 142.602 152.405 142.638C152.451 142.673 152.489 142.716 152.516 142.764C152.545 142.814 152.562 142.869 152.565 142.925C152.569 142.981 152.56 143.037 152.539 143.09C152.496 143.192 152.41 143.275 152.299 143.322C151.218 143.786 150.12 144.231 149.005 144.657C147.882 145.085 146.759 145.493 145.636 145.881C144.756 146.185 143.866 146.479 142.971 146.76C142.076 147.04 141.178 147.308 140.28 147.563H140.208L140.145 147.556Z" fill="#D45131"/>
<path d="M141.291 150.644C141.192 150.644 141.096 150.616 141.016 150.565C140.936 150.514 140.876 150.442 140.846 150.36C140.826 150.309 140.819 150.256 140.824 150.202C140.829 150.149 140.847 150.097 140.876 150.05C140.903 150.002 140.942 149.959 140.989 149.925C141.036 149.89 141.09 149.864 141.149 149.848L142.302 149.521C142.676 149.41 143.069 149.296 143.447 149.195C144.177 148.97 144.915 148.738 145.644 148.493C146.374 148.248 147.104 148 147.827 147.739C147.912 147.708 148.007 147.7 148.098 147.716C148.189 147.732 148.272 147.771 148.338 147.828C148.403 147.886 148.447 147.959 148.465 148.038C148.483 148.117 148.473 148.2 148.437 148.274C148.413 148.324 148.378 148.368 148.335 148.406C148.291 148.443 148.239 148.473 148.182 148.493C147.456 148.757 146.719 149.012 145.978 149.257C145.236 149.502 144.48 149.74 143.754 149.965C143.38 150.079 142.987 150.197 142.598 150.308C142.208 150.419 141.819 150.53 141.433 150.634L141.362 150.651L141.291 150.644Z" fill="#D45131"/>
<path d="M100.276 212.162H100.231H100.19C100.068 212.141 99.9592 212.081 99.887 211.992C99.8522 211.948 99.828 211.898 99.8158 211.845C99.8036 211.792 99.8036 211.738 99.8159 211.685L104.959 187.96L110.084 164.237C110.107 164.131 110.177 164.037 110.278 163.976C110.381 163.916 110.507 163.893 110.629 163.913C110.751 163.933 110.859 163.995 110.93 164.084C110.999 164.174 111.026 164.284 111.004 164.391L105.88 188.11L100.755 211.829C100.734 211.924 100.676 212.009 100.591 212.07C100.502 212.133 100.39 212.166 100.276 212.162Z" fill="#285152"/>
<path d="M104.02 137.319L106.527 133.052L109.035 128.789C109.093 128.693 109.191 128.62 109.309 128.587C109.427 128.554 109.556 128.563 109.667 128.613C109.778 128.662 109.862 128.748 109.9 128.851C109.937 128.954 109.926 129.065 109.87 129.161L107.737 132.791L105.603 136.418L113.789 135.99L121.979 135.563C122.104 135.559 122.226 135.596 122.32 135.667C122.389 135.721 122.438 135.791 122.461 135.869C122.484 135.947 122.481 136.03 122.45 136.106C122.42 136.182 122.364 136.248 122.29 136.297C122.217 136.346 122.128 136.374 122.036 136.379L113.029 136.849L104.02 137.319Z" fill="#285152"/>
<path d="M132.66 105.386C132.657 107.387 131.86 109.324 130.403 110.869C128.947 112.414 126.921 113.471 124.671 113.86C122.421 114.249 120.086 113.945 118.064 113.001C116.042 112.057 114.458 110.531 113.581 108.683C112.704 106.835 112.59 104.778 113.256 102.864C113.923 100.951 115.329 99.2974 117.237 98.1865C119.144 97.0756 121.434 96.5756 123.716 96.7718C125.999 96.968 128.133 97.8482 129.755 99.2625C130.677 100.066 131.409 101.021 131.907 102.072C132.406 103.123 132.661 104.249 132.66 105.386Z" fill="#FFAA9F"/>
<path d="M121.49 105.165C121.489 105.332 121.413 105.493 121.276 105.612C121.137 105.727 120.952 105.792 120.76 105.792C120.567 105.792 120.382 105.727 120.243 105.612C120.175 105.553 120.122 105.483 120.085 105.406C120.048 105.329 120.029 105.246 120.029 105.163C120.029 105.079 120.048 104.997 120.085 104.92C120.122 104.843 120.175 104.773 120.243 104.714C120.348 104.632 120.478 104.578 120.617 104.557C120.756 104.536 120.899 104.551 121.029 104.598C121.159 104.645 121.271 104.723 121.353 104.823C121.434 104.923 121.482 105.042 121.49 105.165Z" fill="#285152"/>
<path d="M127.991 104.401C127.992 104.527 127.95 104.65 127.87 104.755C127.79 104.861 127.677 104.943 127.543 104.991C127.41 105.039 127.263 105.052 127.121 105.027C126.979 105.002 126.849 104.941 126.748 104.851C126.615 104.73 126.541 104.568 126.541 104.401C126.541 104.233 126.615 104.072 126.748 103.95C126.815 103.891 126.895 103.844 126.984 103.812C127.072 103.78 127.167 103.764 127.262 103.764C127.358 103.764 127.453 103.78 127.541 103.812C127.629 103.844 127.71 103.891 127.777 103.95C127.912 104.071 127.989 104.232 127.991 104.401Z" fill="#285152"/>
<path d="M124.301 109.513C123.65 109.505 123.013 109.353 122.448 109.072C122.178 108.94 121.926 108.781 121.699 108.599C121.654 108.562 121.619 108.517 121.594 108.468C121.57 108.418 121.557 108.365 121.557 108.311C121.554 108.204 121.6 108.099 121.684 108.021C121.726 107.982 121.778 107.951 121.834 107.929C121.891 107.908 121.952 107.897 122.013 107.897C122.137 107.894 122.256 107.934 122.347 108.008C122.577 108.191 122.838 108.342 123.121 108.455C123.619 108.674 124.183 108.747 124.732 108.664C125.281 108.581 125.784 108.347 126.168 107.995C126.371 107.813 126.543 107.606 126.677 107.381C126.718 107.308 126.783 107.247 126.863 107.207C126.944 107.166 127.037 107.148 127.13 107.154C127.222 107.16 127.311 107.19 127.384 107.24C127.457 107.291 127.511 107.359 127.538 107.437C127.558 107.487 127.566 107.541 127.561 107.594C127.557 107.647 127.54 107.699 127.512 107.747C127.333 108.05 127.102 108.329 126.827 108.573C126.376 108.98 125.805 109.271 125.176 109.415C125.033 109.449 124.886 109.474 124.738 109.49C124.593 109.506 124.447 109.514 124.301 109.513Z" fill="#D45131"/>
<path d="M126.314 97.3136C125.752 97.1222 125.171 96.9769 124.578 96.8794C123.968 96.7796 123.349 96.7293 122.728 96.7293C120.825 96.7256 118.96 97.203 117.361 98.1036C115.803 98.98 114.556 100.218 113.76 101.678C114.999 102.161 117.275 102.843 119.674 102.52C122.073 102.197 124.593 100.855 126.314 97.3136Z" fill="#285152"/>
<path d="M142.505 233.325C139.454 229.045 138.511 224.511 139.301 220.47C139.658 218.5 140.481 216.617 141.717 214.94C142.953 213.262 144.575 211.827 146.48 210.725C149.439 209.107 152.794 208.119 156.273 207.843C160.016 207.517 164.006 208.049 167.435 209.913C170.184 211.401 172.274 213.657 173.364 216.314C173.955 217.695 174.286 219.15 174.345 220.623C177.107 219.956 180.046 220.114 182.692 221.074C185.095 221.965 186.929 223.493 187.637 225.317C188.156 226.726 188.055 228.253 187.352 229.6C186.56 231.127 185.277 232.421 183.658 233.325H142.505Z" fill="#666538"/>
<path d="M71.6932 233.384C71.572 233.383 71.4558 233.342 71.3675 233.269C71.2806 233.195 71.2297 233.095 71.2253 232.989L68.605 174.118L65.9848 115.248C65.9823 115.195 65.9919 115.141 66.0131 115.091C66.0343 115.04 66.0667 114.994 66.1085 114.955C66.1502 114.915 66.2004 114.884 66.2563 114.861C66.3121 114.839 66.3725 114.826 66.4339 114.824C66.4953 114.82 66.557 114.827 66.6151 114.845C66.6731 114.863 66.7261 114.891 66.7708 114.928C66.8616 115.004 66.9152 115.107 66.9206 115.216L69.5408 174.086L72.1611 232.959C72.1645 233.066 72.1202 233.171 72.0375 233.25C71.996 233.289 71.9458 233.321 71.8899 233.344C71.8339 233.366 71.7734 233.379 71.7119 233.38H71.6932V233.384Z" fill="#666538"/>
<path d="M93.992 87.8992C93.348 83.4495 91.3025 79.2424 88.0827 75.7451C84.8629 72.2478 80.5947 69.597 75.7519 68.0871C70.9092 66.5772 65.6814 66.2673 60.6489 67.1917C55.6164 68.116 50.976 70.2386 47.2431 73.3237C45.4408 74.9659 43.8849 76.801 42.6127 78.785C40.4528 82.1096 39.2229 85.8318 39.023 89.649C38.6936 96.5923 41.9577 102.109 45.4089 105.951C47.5362 108.345 50.0592 110.449 52.8953 112.196C54.0991 112.778 55.3502 113.282 56.6385 113.704C59.5978 114.67 62.7249 115.187 65.8843 115.232C67.2154 115.249 68.5462 115.184 69.867 115.039C77.191 114.228 83.8456 110.913 88.3671 105.824C92.8885 100.734 94.9065 94.2864 93.977 87.8992H93.992Z" fill="#5FC6AA"/>
<path d="M85.431 91.232C83.7658 91.2173 82.1415 90.7806 80.7558 89.9752C79.2941 89.1403 78.1359 87.9592 77.4168 86.5704V86.5541C75.7319 87.5991 73.7397 88.2028 71.6747 88.294C69.7514 88.3898 67.8454 87.931 66.2508 86.9883C64.9371 86.1834 63.9077 85.0741 63.2787 83.7859C62.8766 82.9862 62.6057 82.1411 62.4739 81.2756C62.4596 81.1687 62.4931 81.0611 62.5675 80.9752C62.6057 80.9328 62.6531 80.8974 62.7071 80.8711C62.7611 80.8447 62.8205 80.828 62.8819 80.8218C62.9427 80.814 63.0047 80.8172 63.0639 80.8312C63.1232 80.8453 63.1785 80.8698 63.2263 80.9034C63.275 80.9367 63.3156 80.9781 63.3458 81.0252C63.376 81.0722 63.3952 81.124 63.4023 81.1776C63.5201 81.9586 63.7633 82.7212 64.1247 83.4431C64.6789 84.6061 65.599 85.6088 66.7786 86.3354C68.2176 87.177 69.9343 87.582 71.6635 87.4877C73.5157 87.3921 75.2989 86.8409 76.8067 85.898C76.9244 85.8246 77.0596 85.7753 77.2022 85.7539C77.3448 85.7324 77.4911 85.7392 77.6302 85.7739C77.7685 85.8076 77.8964 85.8678 78.0045 85.9502C78.1151 86.0324 78.2033 86.135 78.2628 86.2505C79.0693 87.806 80.4817 89.0621 82.2493 89.7956C83.0751 90.1517 83.9733 90.362 84.8925 90.4147C85.8117 90.4673 86.7338 90.3612 87.6058 90.1025C89.0442 89.6321 90.2605 88.7553 91.0608 87.6118C91.9187 86.4114 92.351 85.0169 92.3036 83.6031C92.3015 83.5492 92.3117 83.4955 92.3335 83.4451C92.3553 83.3946 92.3884 83.3485 92.4308 83.3093C92.5161 83.2313 92.633 83.1856 92.7565 83.182C92.8812 83.1822 93.0013 83.2229 93.0934 83.2962C93.1826 83.3693 93.2351 83.4703 93.2394 83.577C93.2979 85.1562 92.8172 86.7151 91.8581 88.0557C90.9449 89.3398 89.5692 90.3237 87.9465 90.8533C87.5453 90.9799 87.1319 91.075 86.7112 91.1373C86.2884 91.2007 85.8601 91.2323 85.431 91.232Z" fill="#666538"/>
<path d="M71.6939 233.384H71.619C71.5585 233.376 71.5005 233.357 71.4484 233.329C71.3963 233.301 71.3512 233.264 71.3158 233.221C71.2424 233.133 71.2115 233.024 71.2297 232.917L78.8397 190.48L86.4496 148.043C86.4588 147.989 86.4801 147.938 86.5123 147.892C86.5444 147.846 86.5867 147.806 86.6368 147.775C86.7416 147.715 86.8682 147.69 86.9924 147.706C87.1151 147.724 87.2252 147.782 87.2993 147.87C87.37 147.958 87.3994 148.066 87.3817 148.173L79.7717 190.61L72.1618 233.048C72.1451 233.144 72.0893 233.232 72.0046 233.296C71.9158 233.355 71.806 233.387 71.6939 233.384Z" fill="#666538"/>
<path d="M101.651 141.148C102.152 143.831 101.571 146.582 100.007 148.933C98.4433 151.285 95.9932 153.09 93.0741 154.043C90.155 154.996 86.9475 155.037 83.9978 154.159C81.048 153.281 78.5385 151.538 76.8965 149.228C75.2546 146.917 74.5818 144.182 74.9926 141.488C75.4035 138.793 76.8727 136.306 79.1499 134.451C81.4272 132.595 84.3717 131.485 87.4821 131.309C90.5924 131.134 93.6762 131.905 96.2083 133.49C97.6494 134.391 98.8722 135.531 99.8062 136.845C100.74 138.159 101.367 139.622 101.651 141.148Z" fill="#5FC6AA"/>
<path d="M84.1916 142.571C84.083 142.571 83.9707 142.571 83.8584 142.571C83.7466 142.561 83.6354 142.546 83.5253 142.526C82.7917 142.4 82.1223 142.075 81.6125 141.599C81.0984 141.118 80.7652 140.512 80.658 139.862C80.6428 139.754 80.6749 139.646 80.7478 139.558C80.8224 139.472 80.9325 139.415 81.0548 139.398C81.1778 139.383 81.3026 139.411 81.4021 139.476C81.5016 139.541 81.5678 139.637 81.5863 139.744C81.6604 140.233 81.9077 140.69 82.2938 141.05C82.6682 141.405 83.1625 141.646 83.705 141.739C84.2282 141.828 84.7702 141.775 85.2584 141.589C85.7523 141.399 86.1723 141.088 86.4675 140.694C86.53 140.607 86.6163 140.534 86.7188 140.482C86.8212 140.43 86.9368 140.401 87.0551 140.397C87.1723 140.389 87.2898 140.409 87.3958 140.453C87.5054 140.495 87.6017 140.56 87.6765 140.642C88.0838 141.089 88.6545 141.402 89.2936 141.527C89.8966 141.653 90.5325 141.572 91.0679 141.298C91.5177 141.053 91.8594 140.683 92.0373 140.247C92.2328 139.784 92.268 139.281 92.1384 138.801C92.1245 138.749 92.1226 138.695 92.1329 138.642C92.1432 138.59 92.1654 138.539 92.1983 138.494C92.2641 138.402 92.3691 138.336 92.4903 138.311C92.6109 138.288 92.7371 138.307 92.8421 138.364C92.9478 138.421 93.0232 138.512 93.0518 138.618C93.2225 139.265 93.1691 139.941 92.8983 140.56C92.6312 141.188 92.1147 141.71 91.4427 142.033C90.7708 142.356 89.9881 142.458 89.2374 142.32C88.4154 142.19 87.6648 141.829 87.1 141.292C86.7579 141.689 86.3145 142.01 85.8049 142.232C85.3051 142.454 84.7524 142.57 84.1916 142.571Z" fill="#666538"/>
<path d="M172.087 233.289C172.057 232.261 172.174 231.233 172.435 230.23C172.851 228.587 173.688 227.047 174.883 225.725C176.239 224.247 178.016 223.104 180.037 222.412C181.405 221.943 182.831 221.615 184.286 221.433C186.581 221.102 188.929 221.181 191.188 221.664C193.44 222.148 195.54 223.061 197.338 224.338C198.344 225.058 199.236 225.891 199.992 226.816C200.385 227.292 200.734 227.794 201.037 228.317C201.922 229.865 202.413 231.561 202.478 233.289H187.284H172.087Z" fill="#F1DFC6"/>
<path d="M193.187 225.18C193.181 225.42 193.112 225.656 192.986 225.869C192.859 226.083 192.679 226.268 192.457 226.411C191.946 226.741 191.326 226.92 190.689 226.92C190.052 226.92 189.432 226.741 188.92 226.411C188.694 226.272 188.509 226.088 188.382 225.875C188.254 225.661 188.188 225.423 188.188 225.182C188.188 224.941 188.254 224.703 188.382 224.489C188.509 224.275 188.694 224.091 188.92 223.953C189.432 223.622 190.052 223.444 190.689 223.444C191.326 223.444 191.946 223.622 192.457 223.953C192.678 224.095 192.859 224.28 192.986 224.493C193.112 224.706 193.181 224.941 193.187 225.18Z" fill="#FF6500"/>
<path d="M116.698 211.956C116.421 214.104 116.143 216.251 115.863 218.397C115.584 220.543 115.304 222.688 115.025 224.834C114.993 225.021 114.982 225.21 114.991 225.399C115.001 225.587 115.037 225.774 115.1 225.954C115.183 226.196 115.31 226.425 115.474 226.633C115.637 226.837 115.836 227.017 116.066 227.165L120.183 229.776L124.301 232.388C124.394 232.449 124.464 232.534 124.501 232.631C124.538 232.728 124.54 232.832 124.506 232.93C124.488 233.027 124.434 233.116 124.351 233.183C124.268 233.25 124.162 233.291 124.05 233.299H90.5181C90.2611 233.298 90.0072 233.249 89.7736 233.155C89.5399 233.062 89.3318 232.926 89.1631 232.757C88.7986 232.396 88.5987 231.932 88.6016 231.451L90.8475 221.606L93.0934 211.76C97.2971 211.76 101.1 211.813 104.903 211.861C108.706 211.91 112.498 211.956 116.698 211.956Z" fill="#5FC6AA"/>
<path d="M99.9992 211.956L98.8762 218.397L97.772 224.834C97.7383 225.021 97.727 225.21 97.7383 225.399C97.7446 225.587 97.7811 225.774 97.8469 225.954C97.9303 226.196 98.0566 226.425 98.2212 226.633C98.3817 226.839 98.5817 227.019 98.8126 227.165L102.93 229.777L107.048 232.388C107.141 232.45 107.21 232.535 107.246 232.631C107.282 232.728 107.283 232.832 107.25 232.93C107.227 233.027 107.167 233.113 107.08 233.176C106.993 233.239 106.884 233.274 106.771 233.276H71.2701C71.013 233.275 70.7592 233.226 70.5255 233.133C70.2919 233.039 70.0837 232.903 69.915 232.734C69.5505 232.374 69.3507 231.909 69.3535 231.428L71.7941 221.684L74.2646 211.956H100.014H99.9992Z" fill="#5FC6AA"/>
<path d="M107.298 233.707C107.234 233.707 107.17 233.696 107.111 233.674C107.049 233.65 106.994 233.615 106.95 233.57C106.868 233.489 106.825 233.384 106.83 233.276C106.834 233.222 106.85 233.17 106.877 233.122C106.904 233.074 106.941 233.031 106.988 232.995C107.04 232.959 107.079 232.91 107.1 232.855C107.122 232.771 107.106 232.683 107.055 232.61C107.012 232.547 106.956 232.492 106.89 232.447C106.819 232.395 106.733 232.342 106.647 232.29L106.579 232.248L106.508 232.205L106.018 231.879L105.524 231.569L104.828 231.135L104.135 230.7L103.839 230.518L103.544 230.335C102.911 229.94 102.26 229.532 101.601 229.111C100.942 228.689 100.272 228.259 99.6096 227.805C99.0142 227.447 98.4981 226.998 98.0862 226.479C97.675 225.874 97.5102 225.166 97.6183 224.469C97.6445 224.211 97.6819 223.953 97.7268 223.695C97.7717 223.437 97.8241 223.189 97.8728 222.941L97.9626 222.494C97.9888 222.343 98.0188 222.197 98.0412 222.046C98.2284 220.914 98.4156 219.761 98.6214 218.632C98.8273 217.502 99.0182 216.347 99.2166 215.253C99.3177 214.688 99.415 214.124 99.5161 213.562C99.6171 213.001 99.7144 212.433 99.8118 211.871C99.821 211.818 99.8423 211.767 99.8744 211.721C99.9066 211.675 99.9489 211.635 99.9989 211.604C100.048 211.572 100.103 211.549 100.162 211.536C100.222 211.523 100.283 211.52 100.343 211.529C100.466 211.544 100.576 211.602 100.65 211.688C100.724 211.776 100.755 211.885 100.736 211.992C100.639 212.557 100.542 213.122 100.441 213.686C100.34 214.251 100.242 214.813 100.141 215.377C99.9428 216.487 99.7444 217.62 99.546 218.756C99.3476 219.892 99.1717 221.041 98.9695 222.164C98.9433 222.314 98.9134 222.468 98.8872 222.621C98.861 222.774 98.8273 222.928 98.7936 223.081C98.7487 223.32 98.6963 223.564 98.6551 223.809C98.6139 224.054 98.5765 224.299 98.5503 224.54C98.4662 225.041 98.5713 225.552 98.8498 225.996C99.2044 226.453 99.6554 226.846 100.179 227.155C100.837 227.596 101.5 228.027 102.155 228.445C102.81 228.863 103.461 229.267 104.09 229.659L104.382 229.845L104.678 230.028L105.374 230.462L106.07 230.896L106.565 231.223L107.059 231.549L107.119 231.585L107.182 231.624C107.314 231.7 107.439 231.784 107.556 231.876C107.689 231.978 107.8 232.101 107.882 232.238C108.023 232.462 108.074 232.72 108.028 232.972C107.976 233.22 107.828 233.445 107.609 233.609C107.566 233.642 107.516 233.669 107.463 233.687C107.41 233.702 107.354 233.709 107.298 233.707Z" fill="#285152"/>
<path d="M100.445 263.008C100.288 263.4 99.6443 263.602 98.7273 263.615C96.4338 263.539 94.2184 262.869 92.3638 261.689C91.6526 261.187 91.2895 260.681 91.443 260.286C91.5964 259.891 92.244 259.692 93.1611 259.682C95.4547 259.755 97.6709 260.424 99.5246 261.604C100.24 262.107 100.603 262.613 100.445 263.008Z" fill="#FF6500"/>
<path d="M149.32 242.188C149.582 242.537 149.376 243.105 148.829 243.748C147.37 245.294 145.415 246.425 143.215 246.996C142.32 247.185 141.639 247.127 141.377 246.781C141.115 246.435 141.321 245.863 141.867 245.224C142.578 244.441 143.435 243.768 144.401 243.232C145.344 242.667 146.387 242.242 147.489 241.975C148.38 241.786 149.058 241.842 149.32 242.188Z" fill="#FF6500"/>
<path d="M152.576 265.225C153.022 265.375 153.231 265.943 153.209 266.743C153.048 268.743 152.202 270.655 150.78 272.23C150.177 272.834 149.586 273.134 149.14 272.984C148.695 272.834 148.485 272.266 148.507 271.466C148.668 269.466 149.515 267.554 150.937 265.979C151.539 265.378 152.123 265.078 152.576 265.225Z" fill="#FF6500"/>
<path d="M268.391 271.427C268.653 271.773 268.447 272.344 267.901 272.987C267.187 273.768 266.331 274.441 265.367 274.979C264.423 275.544 263.378 275.967 262.275 276.232C261.384 276.422 260.703 276.366 260.437 276.02C260.171 275.674 260.381 275.103 260.931 274.46C262.39 272.914 264.345 271.784 266.546 271.215C267.444 271.026 268.129 271.081 268.391 271.427Z" fill="#FF6500"/>
<path d="M171.828 266.723C171.378 266.86 170.794 266.543 170.218 265.923C168.858 264.309 168.086 262.375 168.002 260.374C168.002 259.574 168.242 259.012 168.694 258.875C169.147 258.738 169.724 259.055 170.304 259.675C171.658 261.292 172.43 263.224 172.52 265.225C172.509 266.024 172.277 266.589 171.828 266.723Z" fill="#FF6500"/>
<path d="M319.502 240.275C319.764 240.621 319.558 241.192 319.011 241.835C318.298 242.616 317.442 243.288 316.477 243.826C315.534 244.392 314.489 244.817 313.385 245.083C312.495 245.269 311.813 245.214 311.547 244.868C311.282 244.522 311.495 243.951 312.042 243.311C312.752 242.529 313.607 241.856 314.572 241.319C315.516 240.755 316.561 240.33 317.664 240.063C318.555 239.873 319.24 239.929 319.502 240.275Z" fill="#FF6500"/>
<path d="M107.905 283.074C107.531 283.339 106.868 283.218 106.078 282.81C104.163 281.708 102.669 280.131 101.789 278.282C101.478 277.528 101.474 276.928 101.841 276.65C102.208 276.373 102.878 276.506 103.668 276.911C105.584 278.021 107.077 279.604 107.954 281.459C108.268 282.2 108.272 282.81 107.905 283.074Z" fill="#FF6500"/>
<path d="M220.977 269.687C221.422 269.837 221.632 270.409 221.609 271.208C221.449 273.208 220.602 275.12 219.18 276.696C218.577 277.3 217.986 277.597 217.54 277.447C217.095 277.296 216.885 276.728 216.908 275.929C217.07 273.931 217.916 272.021 219.337 270.448C219.94 269.837 220.531 269.54 220.977 269.687Z" fill="#FF6500"/>
<path d="M208.474 291.879C208.1 292.143 207.433 292.022 206.643 291.614C204.726 290.509 203.232 288.929 202.354 287.077C202.047 286.323 202.039 285.722 202.406 285.444C202.773 285.167 203.447 285.301 204.237 285.706C206.153 286.813 207.647 288.394 208.526 290.246C208.833 291.013 208.841 291.614 208.474 291.879Z" fill="#FF6500"/>
<path d="M252.983 263.756C252.647 264.05 251.965 263.988 251.134 263.648C249.106 262.706 247.446 261.258 246.365 259.489C245.991 258.764 245.905 258.183 246.242 257.877C246.579 257.57 247.26 257.645 248.091 257.984C250.12 258.926 251.78 260.374 252.86 262.143C253.249 262.868 253.32 263.462 252.983 263.756Z" fill="#FF6500"/>
<path d="M287.946 232.907H284.169H280.393C280.393 232.923 280.393 232.94 280.411 232.956C280.43 232.972 280.411 232.989 280.411 233.005H287.965V232.969C287.965 232.969 287.95 232.907 287.946 232.907Z" fill="#F1DFC6"/>
<path d="M278.495 299.054C278.907 298.499 279.307 297.94 279.697 297.372C280.086 296.804 280.445 296.227 280.82 295.642C284.152 290.282 286.634 284.552 288.198 278.609C290.44 269.536 291.336 260.25 290.863 250.979C290.511 244.916 289.541 238.892 287.966 232.979H280.427C282.016 237.459 283.187 242.044 283.93 246.689C284.857 252.505 285.082 258.389 284.6 264.245C284.296 268.434 283.624 272.596 282.59 276.696C281.132 282.438 278.768 287.976 275.564 293.152C275.04 293.991 274.486 294.81 273.91 295.613C273.333 296.416 272.719 297.203 272.091 297.967C269.422 297.368 266.828 296.54 264.346 295.495C262.006 294.507 259.801 293.293 257.773 291.875C254.184 289.288 250.894 286.4 247.951 283.254C244.915 280.097 242.078 276.725 239.285 273.441C238.66 272.703 238.024 271.949 237.384 271.199C236.743 270.448 236.1 269.697 235.456 268.959C235.037 268.473 234.587 267.934 234.119 267.363C233.652 266.792 233.165 266.184 232.66 265.561C231.035 263.543 229.212 261.278 227.195 259.084C225.222 256.875 222.998 254.845 220.558 253.026C217.463 250.791 214.37 249.431 211.278 248.948C208.151 248.473 204.931 248.893 202.1 250.146C196.294 252.601 192.843 257.354 190.631 262.904C188.419 268.453 187.434 274.809 186.558 280.473C186.33 281.948 186.109 283.385 185.877 284.716C185.645 286.048 185.394 287.328 185.128 288.448C184.937 289.221 184.754 289.972 184.526 290.707C184.297 291.441 184.091 292.149 183.863 292.841C181.534 290.556 178.95 288.478 176.148 286.639C173.453 284.873 170.543 283.371 167.472 282.16C163.735 280.668 159.761 279.677 155.684 279.222C151.633 278.787 147.528 278.897 143.515 279.549C139.545 280.182 135.671 281.211 131.971 282.617C131.949 282.533 131.93 282.448 131.907 282.363L131.851 282.121C131.204 279.337 130.702 276.928 130.313 274.208C129.923 271.489 129.639 268.45 129.429 264.415L129.396 263.762C129.396 263.537 129.373 263.315 129.366 263.093C135.055 262.963 140.687 262.069 146.064 260.442C149.03 259.56 151.896 258.44 154.625 257.096C158.247 255.297 161.607 253.122 164.631 250.62C166.625 248.957 168.491 247.18 170.215 245.302C173.645 241.647 176.499 237.608 178.701 233.292H175.774H172.847C168.558 240.57 162.15 246.736 154.266 251.171C146.805 255.399 138.148 257.744 129.253 257.948C129.197 252.875 129.396 248.23 129.725 244.097C130.054 239.965 130.507 236.341 130.964 233.325H127.97H124.975C124.305 237.866 123.852 242.175 123.594 246.245C123.335 250.316 123.219 254.145 123.272 257.726C122.868 257.684 122.463 257.641 122.059 257.589C121.655 257.537 121.25 257.485 120.846 257.426C109.126 255.666 100.599 250.104 94.8758 244.744C91.1977 241.314 88.1099 237.437 85.7087 233.234L82.7441 233.26L79.7832 233.286C81.1515 236.275 82.8554 239.139 84.8702 241.835C87.8134 245.786 91.4124 249.334 95.5496 252.363C98.2237 254.352 101.106 256.117 104.159 257.635C109.047 260.064 114.388 261.721 119.937 262.532C120.142 262.564 120.565 262.623 121.161 262.691C121.756 262.76 122.527 262.835 123.436 262.904C123.639 267.121 124.017 270.931 124.477 274.309C124.938 277.688 125.477 280.642 126.008 283.149C126.072 283.453 126.143 283.77 126.214 284.09C126.285 284.41 126.367 284.743 126.45 285.069C125.9 285.356 125.364 285.65 124.836 285.95C124.309 286.251 123.796 286.561 123.294 286.877C120.115 288.856 117.317 291.264 115.007 294.01C112.127 297.425 110.237 301.396 109.497 305.586C109.316 306.6 109.201 307.622 109.152 308.648C110.178 309.536 111.222 310.404 112.282 311.259C113.341 312.115 114.415 312.953 115.505 313.779C115.195 312.131 115.077 310.46 115.153 308.791C115.351 304.178 117.277 299.749 120.637 296.181C122.743 293.937 125.234 291.991 128.022 290.41C128.966 293.124 130.156 295.769 131.582 298.319C133.204 301.223 135.173 303.969 137.455 306.513C140.509 309.898 143.975 312.467 147.771 314.191C151.568 315.921 155.791 316.817 160.075 316.802C160.782 316.802 161.494 316.779 162.212 316.734C162.931 316.688 163.657 316.619 164.387 316.528C168.86 316.027 173.118 314.558 176.773 312.255C180.317 309.994 183.289 306.88 185.69 302.912C191.144 308.266 196.777 312.412 202.751 315.444C208.627 318.44 215.108 320.425 221.842 321.291C231.609 322.575 241.592 321.637 250.822 318.569C260.052 315.5 268.218 310.405 274.527 303.777C276.524 304.101 278.6 304.346 280.756 304.512C282.912 304.677 285.136 304.76 287.426 304.76C288.894 304.76 290.391 304.726 291.918 304.659C293.446 304.591 295.004 304.49 296.594 304.355C297.592 303.402 298.564 302.436 299.51 301.456C300.455 300.477 301.39 299.481 302.313 298.469C298.129 299.041 293.909 299.386 289.676 299.501C285.941 299.611 282.203 299.462 278.495 299.054ZM163.523 311.377C162.92 311.452 162.328 311.511 161.748 311.547C161.168 311.582 160.599 311.602 160.038 311.602C152.124 311.599 146.274 307.988 142.018 303.206C137.762 298.424 135.085 292.469 133.487 287.782C135.31 287.045 137.186 286.41 139.102 285.882C140.9 285.388 142.731 284.991 144.586 284.694C151.278 283.621 158.185 284.312 164.425 286.678C170.706 289.029 176.508 293.014 181.4 298.473L181.434 298.508L181.464 298.541C179.499 302.377 177.05 305.331 174.075 307.453C171.043 309.59 167.389 310.948 163.523 311.377ZM253.36 311.909C243.907 316.058 233.209 317.541 222.748 316.153C216.31 315.341 210.134 313.381 204.604 310.394C198.963 307.362 193.64 303.164 188.351 297.64C188.85 296.417 189.324 295.132 189.774 293.785C190.223 292.438 190.622 291.032 190.971 289.567C191.271 288.346 191.533 287.011 191.78 285.601C192.027 284.191 192.255 282.706 192.491 281.175C193.27 276.134 194.146 270.474 195.913 265.616C197.679 260.759 200.348 256.698 204.709 254.844C208.827 253.091 212.753 254.214 216.553 256.93C220.352 259.646 224.039 263.945 227.756 268.558C228.273 269.21 228.778 269.827 229.253 270.425C229.729 271.022 230.215 271.587 230.668 272.109C231.297 272.834 231.933 273.575 232.566 274.319C233.199 275.064 233.831 275.808 234.438 276.539C237.346 279.973 240.299 283.466 243.496 286.78C246.652 290.122 250.172 293.19 254.007 295.939C256.031 297.355 258.207 298.597 260.505 299.648C262.894 300.737 265.388 301.641 267.958 302.351C263.78 306.269 258.832 309.505 253.348 311.906L253.36 311.909Z" fill="#DDC4A3"/>
<path d="M189.313 245.403L185.465 243.268L181.621 241.137C181.566 241.104 181.501 241.087 181.435 241.089C181.368 241.092 181.305 241.113 181.254 241.151C181.203 241.188 181.167 241.238 181.152 241.295C181.137 241.351 181.144 241.41 181.172 241.463L186.633 253.656L192.094 265.851C192.207 266.103 192.376 266.333 192.591 266.528C192.807 266.722 193.065 266.877 193.35 266.984C193.635 267.091 193.941 267.147 194.252 267.149C194.562 267.151 194.869 267.1 195.156 266.997L204.799 263.57L214.438 260.139L209.452 249.905C207.795 246.495 206.134 243.082 204.469 239.668L196.889 242.537L189.313 245.403Z" fill="#BAB653"/>
<path d="M272.794 226.989H237.933L221.201 233.325L204.469 239.661C206.131 243.071 207.791 246.484 209.451 249.898L214.437 260.132L234.276 253.071L254.115 246.007L270.185 254.295L286.258 262.584L293.033 252.546L299.808 242.508L286.318 234.748L272.794 226.989Z" fill="#666538"/>
<path d="M323.5 248.521L319.382 249.931L315.265 251.341L307.565 246.924L299.869 242.508L293.094 252.546L286.318 262.584L296.227 267.696L306.139 272.808C306.409 272.947 306.709 273.037 307.02 273.073C307.332 273.109 307.648 273.09 307.951 273.017C308.254 272.944 308.536 272.819 308.783 272.649C309.029 272.479 309.233 272.268 309.384 272.028C311.802 268.171 314.223 264.316 316.646 260.462L323.878 248.903C323.908 248.855 323.921 248.8 323.914 248.746C323.908 248.691 323.882 248.64 323.84 248.599C323.8 248.556 323.746 248.526 323.685 248.511C323.623 248.497 323.559 248.501 323.5 248.521Z" fill="#BAB653"/>
<path d="M248.149 191.093C247.861 191.093 247.505 191.093 247.093 191.093C246.633 191.112 246.175 191.152 245.72 191.214C244.442 191.39 243.204 191.74 242.051 192.252C240.836 192.811 239.681 193.467 238.604 194.211C236.682 195.509 234.87 196.927 233.184 198.455C231.634 199.849 230.35 201.164 229.366 202.235L222.291 209.89L215.216 217.545C214.56 218.254 214.008 219.031 213.573 219.859C213.139 220.69 212.839 221.569 212.682 222.471C212.517 223.363 212.517 224.272 212.682 225.164C212.878 226.177 213.326 227.14 213.996 227.984L214.172 228.21C214.232 228.285 214.288 228.36 214.344 228.438C215.548 230.091 217.099 231.53 218.915 232.682C221.355 234.141 224.578 234.928 228.194 232.894L231.51 230.808L234.827 228.725C235.217 228.448 235.559 228.124 235.845 227.762C236.126 227.447 236.311 227.075 236.383 226.68C236.454 226.286 236.41 225.882 236.253 225.507L233.932 221.207L231.615 216.912H276.436C275.969 218.955 275.557 220.773 275.194 222.344C274.831 223.914 274.52 225.229 274.247 226.261C274.152 226.589 274.095 226.925 274.075 227.263C274.042 227.775 274.159 228.286 274.415 228.748C274.671 229.21 275.057 229.608 275.538 229.904C275.937 230.159 276.365 230.378 276.815 230.557C279.297 231.589 281.853 232.483 284.466 233.234C286.644 233.86 288.546 234.301 290.425 234.814C290.761 234.908 291.104 234.984 291.45 235.042C292.625 235.242 293.837 235.193 294.984 234.898C295.367 234.802 295.742 234.683 296.107 234.543C298.173 233.746 299.562 232.257 300.445 230.952C301.004 230.132 301.444 229.255 301.756 228.34C301.891 227.906 301.989 227.462 302.048 227.015C302.173 226.129 302.183 225.233 302.077 224.345C301.917 223.005 301.502 221.697 300.85 220.476C300.35 219.553 299.765 218.667 299.102 217.826C296.481 214.388 294.449 211.901 293.049 210.272C291.649 208.643 290.908 207.876 290.908 207.876C289.498 206.426 288.049 204.95 286.562 203.446C285.075 201.942 283.547 200.419 281.98 198.876C280.937 197.841 279.802 196.879 278.585 196C277.371 195.12 276.072 194.332 274.703 193.646C273.06 192.801 271.298 192.142 269.463 191.688C268.059 191.343 266.601 191.192 265.143 191.24C264.638 191.263 263.975 191.276 263.313 191.279C262.65 191.283 261.988 191.279 261.486 191.279L254.831 191.201L248.149 191.093Z" fill="#F1DFC6"/>
<path d="M236.141 203.792V228.418L245.442 231.236L254.741 234.053L264.563 231.144L274.381 228.239L274.479 215.717L274.58 203.194L264.544 205.688L254.512 208.179L245.33 205.986L236.141 203.792Z" fill="#FF6500"/>
<path d="M247.504 184.894C247.503 186.898 248.299 188.84 249.756 190.389C251.213 191.939 253.241 192.999 255.495 193.391C257.748 193.782 260.088 193.48 262.114 192.536C264.141 191.592 265.729 190.064 266.609 188.213C267.488 186.362 267.605 184.302 266.938 182.384C266.271 180.467 264.863 178.81 262.952 177.697C261.042 176.583 258.748 176.082 256.461 176.279C254.175 176.475 252.037 177.357 250.412 178.774C249.489 179.576 248.757 180.53 248.258 181.581C247.759 182.631 247.503 183.757 247.504 184.894Z" fill="#FFAA9F"/>
<path d="M255.6 184.45C255.618 184.608 255.707 184.754 255.847 184.855C255.917 184.905 255.997 184.942 256.083 184.964C256.169 184.987 256.26 184.994 256.349 184.986C256.53 184.97 256.697 184.893 256.813 184.77C256.871 184.71 256.914 184.64 256.94 184.565C256.967 184.49 256.976 184.411 256.967 184.333C256.946 184.175 256.856 184.03 256.716 183.928C256.646 183.878 256.566 183.84 256.48 183.817C256.393 183.794 256.302 183.786 256.213 183.794C256.123 183.802 256.036 183.825 255.956 183.863C255.877 183.901 255.807 183.951 255.75 184.013C255.692 184.073 255.649 184.143 255.623 184.218C255.597 184.293 255.59 184.372 255.6 184.45Z" fill="#285152"/>
<path d="M250.597 184.268C250.614 184.426 250.703 184.571 250.844 184.672C250.913 184.723 250.994 184.76 251.081 184.783C251.168 184.805 251.259 184.812 251.349 184.803C251.439 184.796 251.526 184.773 251.605 184.736C251.685 184.699 251.755 184.649 251.812 184.588C251.869 184.527 251.912 184.457 251.938 184.382C251.964 184.307 251.972 184.228 251.963 184.15C251.945 183.992 251.856 183.846 251.716 183.745C251.646 183.695 251.565 183.657 251.479 183.635C251.392 183.612 251.301 183.606 251.211 183.615C251.03 183.631 250.865 183.709 250.75 183.831C250.635 183.953 250.58 184.11 250.597 184.268Z" fill="#285152"/>
<path d="M254.216 188.789H254.036H253.857C253.21 188.73 252.595 188.516 252.079 188.172C251.765 187.968 251.488 187.724 251.259 187.447C251.188 187.359 251.16 187.25 251.18 187.144C251.201 187.038 251.268 186.943 251.368 186.879C251.418 186.848 251.474 186.825 251.534 186.813C251.594 186.8 251.657 186.799 251.718 186.807C251.779 186.816 251.837 186.836 251.889 186.864C251.941 186.893 251.987 186.93 252.023 186.974C252.194 187.18 252.4 187.362 252.633 187.516C253.073 187.813 253.612 187.978 254.169 187.987C254.726 187.997 255.271 187.85 255.725 187.568C255.983 187.419 256.214 187.236 256.41 187.026C256.447 186.983 256.494 186.947 256.547 186.921C256.6 186.894 256.659 186.876 256.72 186.869C256.844 186.856 256.969 186.885 257.068 186.951C257.117 186.984 257.157 187.024 257.187 187.071C257.218 187.118 257.237 187.169 257.244 187.222C257.254 187.275 257.251 187.328 257.235 187.38C257.22 187.432 257.192 187.48 257.155 187.522C256.916 187.771 256.641 187.991 256.335 188.175C255.72 188.568 254.979 188.783 254.216 188.789Z" fill="#D45131"/>
<path d="M257.431 176.237C256.462 176.236 255.499 176.359 254.571 176.603C253.676 176.84 252.823 177.185 252.037 177.628C252.197 177.889 252.379 178.139 252.584 178.375C252.817 178.641 253.081 178.886 253.37 179.106C254.332 179.825 255.52 180.273 256.78 180.393C258.138 180.524 259.512 180.363 260.781 179.923C260.553 180.563 260.437 181.23 260.437 181.901C260.406 182.979 260.713 184.045 261.326 184.982C261.938 185.92 262.831 186.694 263.911 187.222C264.768 187.646 265.716 187.913 266.696 188.005C267.274 186.694 267.477 185.279 267.289 183.884C267.1 182.489 266.525 181.154 265.613 179.996C264.701 178.837 263.48 177.89 262.054 177.235C260.629 176.58 259.042 176.238 257.431 176.237Z" fill="#D45131"/>
<path d="M254.513 234.213C254.451 234.214 254.39 234.204 254.333 234.184C254.275 234.163 254.223 234.133 254.18 234.095C254.136 234.057 254.102 234.012 254.079 233.962C254.055 233.912 254.044 233.859 254.045 233.805V208.424C254.044 208.37 254.055 208.317 254.079 208.267C254.102 208.217 254.136 208.172 254.18 208.134C254.223 208.096 254.275 208.066 254.333 208.045C254.39 208.025 254.451 208.015 254.513 208.016C254.637 208.016 254.756 208.059 254.844 208.136C254.931 208.212 254.981 208.316 254.981 208.424V233.828C254.981 233.936 254.931 234.04 254.844 234.116C254.756 234.193 254.637 234.236 254.513 234.236V234.213Z" fill="#D45131"/>
<path d="M236.297 214.561V210.056C236.287 209.828 236.193 209.608 236.028 209.43C235.863 209.241 235.626 209.111 235.359 209.063C235.093 209.016 234.816 209.054 234.579 209.172C234.319 209.292 234.117 209.49 234.01 209.73L232.453 213.255L230.892 216.791V216.814C230.892 216.814 230.735 217.14 230.567 217.662C230.352 218.284 230.208 218.923 230.136 219.569C230.081 220.797 230.271 222.024 230.698 223.196C231.248 224.704 232.27 226.222 234.096 226.868C234.906 227.148 235.778 227.259 236.646 227.194C237.087 227.167 237.524 227.098 237.948 226.989C238.27 226.904 238.575 226.777 238.854 226.613C239.157 226.444 239.524 226.205 240.149 225.836C240.172 225.836 241.317 225.148 242.713 224.302C244.11 223.457 245.764 222.441 246.801 221.746C246.937 221.663 247.063 221.566 247.175 221.459C247.338 221.302 247.459 221.116 247.531 220.914C247.582 220.764 247.604 220.607 247.594 220.45C247.59 220.357 247.574 220.266 247.546 220.176C247.487 219.971 247.376 219.78 247.22 219.618C247.128 219.523 247.022 219.438 246.906 219.366C247.022 219.295 247.46 219.04 247.991 218.681C248.56 218.31 249.106 217.914 249.627 217.493C249.755 217.394 249.872 217.285 249.975 217.166C250.107 217.005 250.199 216.821 250.245 216.628C250.264 216.549 250.275 216.469 250.278 216.389C250.284 216.263 250.264 216.137 250.218 216.017C250.125 215.782 249.948 215.578 249.713 215.436C249.58 215.355 249.435 215.29 249.283 215.24C249.426 215.095 249.545 214.932 249.635 214.757C249.804 214.45 249.857 214.104 249.784 213.769C249.711 213.434 249.517 213.128 249.23 212.896C249.095 212.785 248.944 212.69 248.781 212.612C248.448 212.467 248.074 212.408 247.703 212.443C247.319 212.478 246.951 212.6 246.636 212.795C246.455 212.482 246.189 212.212 245.861 212.008C245.696 211.91 245.517 211.829 245.33 211.767C244.918 211.637 244.474 211.603 244.042 211.669C243.784 211.706 243.533 211.772 243.294 211.865L239.809 213.223L236.297 214.561Z" fill="#FFAA9F"/>
<path d="M239.267 217.306C239.188 217.306 239.11 217.288 239.041 217.255C238.972 217.222 238.913 217.175 238.87 217.117C238.805 217.026 238.782 216.916 238.806 216.81C238.82 216.758 238.845 216.709 238.88 216.665C238.915 216.621 238.96 216.584 239.012 216.556L242.681 214.496L246.353 212.436C246.404 212.406 246.462 212.386 246.522 212.377C246.582 212.367 246.645 212.368 246.704 212.38C246.764 212.391 246.821 212.412 246.871 212.442C246.922 212.472 246.964 212.511 246.996 212.557C247.03 212.602 247.053 212.652 247.064 212.705C247.075 212.757 247.074 212.811 247.06 212.864C247.048 212.916 247.024 212.966 246.989 213.011C246.955 213.055 246.91 213.093 246.858 213.122L243.19 215.181L239.518 217.238C239.48 217.261 239.438 217.277 239.394 217.287C239.353 217.298 239.31 217.305 239.267 217.306Z" fill="#D45131"/>
<path d="M241.313 219.889C241.234 219.889 241.157 219.872 241.088 219.84C241.016 219.807 240.957 219.757 240.916 219.696C240.883 219.651 240.86 219.6 240.85 219.547C240.84 219.494 240.842 219.439 240.856 219.387C240.871 219.335 240.897 219.285 240.933 219.242C240.97 219.199 241.016 219.162 241.07 219.135L245.034 217.006L249.001 214.875C249.057 214.845 249.118 214.825 249.183 214.817C249.247 214.808 249.313 214.811 249.376 214.826C249.495 214.852 249.599 214.917 249.664 215.008C249.699 215.056 249.722 215.11 249.732 215.166C249.742 215.223 249.738 215.28 249.72 215.335C249.707 215.387 249.681 215.436 249.645 215.479C249.609 215.523 249.563 215.559 249.51 215.586L245.543 217.715L241.575 219.846C241.538 219.865 241.499 219.88 241.459 219.892C241.41 219.897 241.361 219.896 241.313 219.889Z" fill="#D45131"/>
<path d="M242.766 222.151C242.69 222.151 242.616 222.135 242.549 222.105C242.479 222.073 242.419 222.026 242.376 221.968C242.342 221.924 242.318 221.875 242.306 221.822C242.294 221.77 242.294 221.717 242.305 221.665C242.331 221.558 242.403 221.464 242.507 221.403L244.559 220.215L246.614 219.024C246.717 218.964 246.843 218.943 246.965 218.964C247.086 218.985 247.193 219.048 247.261 219.138C247.296 219.183 247.32 219.233 247.332 219.286C247.344 219.338 247.344 219.393 247.332 219.446C247.319 219.498 247.295 219.549 247.261 219.593C247.226 219.638 247.182 219.676 247.13 219.706L245.079 220.894L243.024 222.082C242.985 222.106 242.942 222.123 242.897 222.135C242.855 222.147 242.81 222.152 242.766 222.151Z" fill="#D45131"/>
<path d="M274.434 214.561V210.056C274.444 209.828 274.537 209.609 274.699 209.43C274.864 209.241 275.102 209.111 275.368 209.063C275.635 209.016 275.912 209.054 276.148 209.172C276.409 209.291 276.611 209.49 276.717 209.73L278.27 213.255L279.828 216.791V216.814C279.828 216.814 279.981 217.14 280.153 217.662C280.366 218.285 280.51 218.923 280.584 219.569C280.637 220.797 280.445 222.024 280.018 223.196C279.468 224.704 278.45 226.222 276.623 226.868C275.814 227.148 274.942 227.259 274.074 227.194C273.632 227.167 273.194 227.098 272.768 226.989C272.446 226.903 272.141 226.777 271.862 226.613C271.559 226.444 271.192 226.205 270.567 225.836C270.544 225.836 269.403 225.148 268.003 224.302C266.603 223.457 264.952 222.441 263.919 221.746C263.781 221.664 263.655 221.568 263.545 221.459C263.382 221.302 263.261 221.116 263.189 220.914C263.137 220.764 263.116 220.607 263.125 220.45C263.129 220.358 263.144 220.266 263.17 220.176C263.232 219.971 263.344 219.781 263.5 219.618C263.591 219.523 263.695 219.438 263.81 219.366C263.694 219.295 263.256 219.04 262.729 218.681C262.159 218.311 261.613 217.914 261.093 217.493C260.964 217.394 260.846 217.284 260.741 217.166C260.609 217.005 260.518 216.821 260.471 216.628C260.452 216.549 260.441 216.469 260.438 216.389C260.433 216.202 260.483 216.016 260.583 215.849C260.682 215.683 260.828 215.541 261.007 215.436C261.139 215.354 261.284 215.288 261.437 215.24C261.292 215.095 261.172 214.932 261.082 214.757C260.899 214.417 260.857 214.031 260.962 213.667C261.048 213.371 261.23 213.104 261.486 212.896C261.621 212.785 261.772 212.69 261.935 212.612C262.268 212.467 262.643 212.408 263.013 212.443C263.398 212.477 263.766 212.598 264.08 212.795C264.157 212.664 264.249 212.539 264.353 212.423C264.623 212.126 264.982 211.9 265.39 211.77C265.558 211.717 265.733 211.68 265.91 211.659C266.159 211.628 266.411 211.628 266.659 211.659C266.917 211.696 267.169 211.762 267.408 211.855L270.893 213.213L274.434 214.561Z" fill="#FFAA9F"/>
<path d="M271.465 217.307C271.42 217.306 271.376 217.3 271.334 217.29C271.29 217.279 271.248 217.263 271.21 217.241L267.542 215.181L263.873 213.122C263.768 213.063 263.694 212.97 263.668 212.864C263.654 212.811 263.653 212.757 263.664 212.705C263.674 212.652 263.697 212.602 263.731 212.557C263.764 212.512 263.807 212.472 263.858 212.442C263.909 212.412 263.966 212.391 264.027 212.381C264.087 212.369 264.149 212.368 264.209 212.377C264.27 212.387 264.327 212.407 264.379 212.436L268.047 214.496L271.719 216.556C271.823 216.615 271.895 216.707 271.921 216.812C271.947 216.917 271.924 217.027 271.858 217.117C271.815 217.176 271.756 217.224 271.686 217.258C271.618 217.29 271.542 217.307 271.465 217.307Z" fill="#D45131"/>
<path d="M269.413 219.889C269.372 219.893 269.331 219.893 269.29 219.889C269.248 219.877 269.208 219.861 269.17 219.843L265.202 217.711L261.234 215.583C261.182 215.555 261.137 215.519 261.101 215.475C261.065 215.432 261.039 215.383 261.025 215.332C261.01 215.279 261.008 215.225 261.018 215.172C261.027 215.119 261.049 215.068 261.081 215.022C261.114 214.976 261.156 214.936 261.206 214.905C261.256 214.873 261.313 214.851 261.373 214.839C261.493 214.814 261.619 214.831 261.725 214.888L265.693 217.019L269.66 219.148C269.713 219.175 269.758 219.212 269.794 219.255C269.83 219.298 269.856 219.347 269.87 219.399C269.898 219.505 269.878 219.616 269.814 219.709C269.771 219.768 269.712 219.817 269.642 219.851C269.572 219.884 269.493 219.902 269.413 219.902V219.889Z" fill="#D45131"/>
<path d="M267.966 222.151C267.921 222.157 267.875 222.157 267.831 222.151C267.785 222.14 267.742 222.122 267.704 222.099L265.652 220.91L263.597 219.722C263.545 219.693 263.501 219.654 263.467 219.609C263.433 219.565 263.41 219.514 263.399 219.461C263.386 219.409 263.385 219.354 263.397 219.302C263.408 219.249 263.432 219.199 263.466 219.154C263.501 219.11 263.545 219.071 263.596 219.042C263.648 219.012 263.705 218.991 263.766 218.981C263.886 218.96 264.011 218.981 264.114 219.04L266.169 220.231L268.224 221.42C268.276 221.449 268.32 221.487 268.354 221.532C268.388 221.577 268.411 221.628 268.422 221.681C268.435 221.733 268.436 221.786 268.425 221.839C268.413 221.891 268.389 221.941 268.355 221.984C268.312 222.042 268.253 222.089 268.183 222.122C268.114 222.146 268.04 222.156 267.966 222.151Z" fill="#D45131"/>
</svg>
