<svg width="387" height="374" viewBox="0 0 387 374" fill="none" xmlns="http://www.w3.org/2000/svg">
<rect width="387" height="374" rx="50" fill="white"/>
<path d="M258.116 78.3881L252.027 81.5146L245.935 84.641C245.775 84.7231 245.635 84.8375 245.523 84.977C245.411 85.1164 245.329 85.2777 245.282 85.4506C245.236 85.6235 245.226 85.8042 245.254 85.981C245.281 86.1579 245.345 86.3271 245.442 86.4778L249.163 92.2187L252.883 97.9597C253.01 98.1578 253.081 98.3872 253.086 98.6227C253.092 98.8582 253.032 99.0907 252.915 99.2946C252.797 99.4985 252.625 99.666 252.418 99.7787C252.211 99.8913 251.977 99.9448 251.742 99.9332L244.907 99.5776L238.072 99.1946C237.893 99.1857 237.714 99.2143 237.547 99.2787C237.379 99.3431 237.228 99.4418 237.101 99.5685C236.974 99.6951 236.876 99.8469 236.811 100.014C236.747 100.181 236.718 100.36 236.727 100.539L237.083 107.37L237.438 114.202C237.449 114.434 237.396 114.666 237.284 114.87C237.173 115.075 237.007 115.245 236.806 115.363C236.605 115.48 236.376 115.54 236.143 115.537C235.91 115.533 235.682 115.466 235.484 115.343L229.743 111.622L224.002 107.906C223.853 107.808 223.684 107.744 223.507 107.715C223.331 107.687 223.15 107.697 222.978 107.743C222.805 107.789 222.644 107.871 222.504 107.983C222.365 108.095 222.251 108.235 222.17 108.394L219.043 114.487L215.917 120.58C215.809 120.789 215.645 120.964 215.445 121.086C215.244 121.209 215.013 121.274 214.778 121.274C214.542 121.274 214.311 121.209 214.11 121.086C213.91 120.964 213.746 120.789 213.638 120.58L210.512 114.487L207.385 108.394C207.304 108.235 207.19 108.095 207.051 107.983C206.911 107.871 206.75 107.789 206.578 107.743C206.405 107.697 206.224 107.687 206.048 107.715C205.871 107.744 205.702 107.808 205.553 107.906L199.812 111.622L194.071 115.343C193.873 115.472 193.643 115.543 193.407 115.549C193.171 115.556 192.938 115.496 192.733 115.378C192.529 115.26 192.361 115.088 192.249 114.88C192.137 114.672 192.084 114.437 192.097 114.202L192.453 107.37L192.808 100.539C192.817 100.36 192.789 100.181 192.724 100.014C192.66 99.8469 192.561 99.6951 192.435 99.5685C192.308 99.4418 192.156 99.3431 191.989 99.2787C191.822 99.2143 191.643 99.1857 191.464 99.1946L184.633 99.5503L177.797 99.9059C177.562 99.9175 177.328 99.864 177.121 99.7513C176.915 99.6386 176.743 99.4712 176.625 99.2672C176.507 99.0633 176.447 98.8308 176.453 98.5954C176.459 98.3599 176.529 98.1304 176.656 97.9323L180.377 92.1914L184.14 86.4504C184.237 86.2998 184.301 86.1306 184.329 85.9537C184.356 85.7768 184.346 85.5961 184.3 85.4232C184.254 85.2503 184.172 85.089 184.059 84.9496C183.947 84.8102 183.807 84.6958 183.648 84.6136L177.555 81.4872L171.466 78.3607C171.256 78.2539 171.08 78.0909 170.956 77.8898C170.833 77.6887 170.768 77.4574 170.768 77.2215C170.768 76.9857 170.833 76.7544 170.956 76.5533C171.08 76.3522 171.256 76.1892 171.466 76.0824L177.555 72.9559L183.648 69.8295C183.807 69.7473 183.947 69.6329 184.059 69.4935C184.172 69.3541 184.254 69.1928 184.3 69.0199C184.346 68.847 184.356 68.6663 184.329 68.4894C184.301 68.3125 184.237 68.1433 184.14 67.9927L180.408 62.3221L176.692 56.5811C176.568 56.3838 176.501 56.1566 176.497 55.924C176.494 55.6914 176.554 55.4622 176.671 55.2611C176.788 55.06 176.957 54.8947 177.162 54.783C177.366 54.6713 177.596 54.6174 177.829 54.6271L184.664 54.9827L191.495 55.3384C191.674 55.3473 191.853 55.3187 192.02 55.2543C192.187 55.1899 192.339 55.0912 192.466 54.9645C192.592 54.8379 192.691 54.686 192.756 54.5189C192.82 54.3517 192.849 54.1729 192.84 53.994L192.484 47.1627L192.128 40.3314C192.115 40.0956 192.168 39.8609 192.28 39.6531C192.393 39.4454 192.56 39.2729 192.765 39.1547C192.969 39.0365 193.202 38.9772 193.438 38.9835C193.674 38.9898 193.904 39.0614 194.102 39.1903L199.843 42.9107L205.584 46.6312C205.734 46.7278 205.903 46.7919 206.08 46.8194C206.256 46.8468 206.437 46.8371 206.609 46.7907C206.782 46.7443 206.943 46.6624 207.082 46.5501C207.221 46.4378 207.335 46.2977 207.417 46.1388L210.543 40.0461L213.67 33.9535C213.777 33.7443 213.941 33.5689 214.142 33.4465C214.343 33.324 214.573 33.2593 214.809 33.2593C215.044 33.2593 215.275 33.324 215.476 33.4465C215.677 33.5689 215.84 33.7443 215.948 33.9535L219.074 40.0461L222.201 46.1388C222.283 46.2977 222.397 46.4378 222.536 46.5501C222.675 46.6624 222.836 46.7443 223.008 46.7907C223.181 46.8371 223.361 46.8468 223.538 46.8194C223.714 46.7919 223.883 46.7278 224.034 46.6312L229.775 42.9107L235.52 39.1903C235.717 39.0667 235.945 38.9996 236.178 38.9961C236.411 38.9926 236.64 39.0529 236.841 39.1704C237.043 39.2879 237.208 39.4581 237.319 39.6628C237.431 39.8674 237.484 40.0986 237.474 40.3314L237.118 47.1627L236.762 53.9979C236.761 54.1694 236.794 54.3394 236.859 54.4979C236.925 54.6564 237.021 54.8001 237.143 54.9204C237.266 55.0408 237.411 55.1353 237.57 55.1984C237.73 55.2614 237.9 55.2918 238.072 55.2876L244.907 54.9319L251.738 54.5763C251.97 54.5672 252.201 54.6214 252.405 54.7331C252.608 54.8449 252.778 55.01 252.895 55.2107C253.012 55.4115 253.073 55.6403 253.07 55.8727C253.067 56.1052 253.001 56.3325 252.879 56.5303L249.163 62.3221L245.442 68.063C245.345 68.2137 245.281 68.3829 245.254 68.5598C245.226 68.7366 245.236 68.9173 245.282 69.0902C245.329 69.2631 245.411 69.4244 245.523 69.5639C245.635 69.7033 245.775 69.8177 245.935 69.8998L252.027 73.0262L258.116 76.1527C258.326 76.2596 258.503 76.4226 258.626 76.6237C258.749 76.8247 258.815 77.056 258.815 77.2919C258.815 77.5278 258.749 77.7591 258.626 77.9601C258.503 78.1612 258.326 78.3242 258.116 78.4311V78.3881Z" fill="#DDC4A3"/>
<path d="M106.835 155.76C106.495 152.206 106.586 148.623 107.105 145.091C107.562 141.679 108.277 138.533 108.852 136.016C109.668 132.499 110.687 129.032 111.904 125.633C112.987 122.6 114.089 120.005 115.062 117.899L108.907 116.417L102.751 114.936C101.97 116.789 101.047 119.075 100.11 121.744C99.1716 124.413 98.2063 127.473 97.3231 130.862C95.8302 136.587 94.5132 141.499 93.884 146.158C93.2548 150.816 93.3095 155.221 94.564 159.938C95.1469 162.125 95.9468 164.248 96.9518 166.276C98.4423 169.264 100.307 172.049 102.501 174.565L106.46 179.4L110.431 184.254C123.742 200.519 130.854 209.218 134.93 214.248C139.006 219.278 140.042 220.63 141.203 222.193C148.077 231.443 153.255 238.372 156.987 244.344C160.72 250.315 162.998 255.333 164.069 260.758C166.879 274.975 161.052 290.025 153.146 302.887C145.24 315.748 135.255 326.421 129.74 331.888H149.406C151.258 330.122 154.6 326.722 158.054 322.822C161.509 318.921 165.089 314.529 167.371 310.773C170.275 305.848 172.721 300.668 174.679 295.297C177.516 287.594 179.955 277.949 179.599 268.164C179.259 258.812 176.418 250.89 171.69 242.902C166.961 234.914 160.356 226.855 152.458 217.226C150.719 215.104 147.651 211.153 143.512 206.041C139.374 200.929 134.16 194.657 128.13 187.88C121.553 180.478 116.531 175.265 113.014 170.482C109.497 165.698 107.461 161.372 106.835 155.76Z" fill="#BAB653"/>
<path d="M296.166 217.824L311.407 217.687L326.649 217.554C331.321 216.763 335.541 214.287 338.509 210.594C341.467 206.949 342.979 202.343 342.758 197.654C342.507 192.718 340.37 189.158 337.04 186.79C333.71 184.422 329.185 183.241 324.167 183.081L319.145 183.214L314.119 183.347C315.835 183.347 317.539 183.476 319.251 183.605C320.967 183.764 322.691 183.81 324.413 183.742C327.247 183.612 330.047 183.071 332.726 182.135C335.414 181.151 337.865 179.638 339.588 177.395C341.312 175.152 341.976 172.15 341.73 169.223C341.486 166.314 340.4 163.54 338.603 161.239C335.997 157.995 332.225 156.158 328.141 155.162C324.057 154.165 319.665 154.048 315.811 154.255C315.729 154.255 315.135 154.279 314.561 154.318C313.986 154.357 313.424 154.412 313.416 154.486C313.376 154.496 313.336 154.502 313.295 154.505C313.236 154.505 313.174 154.505 313.17 154.505C313.166 154.505 315.456 153.872 318.422 152.637C321.388 151.402 325.019 149.476 327.653 146.642C329.378 144.767 330.685 142.546 331.487 140.128C332.307 137.599 332.487 134.844 331.487 132.288C330.824 130.653 329.767 129.207 328.411 128.079C327.582 127.377 326.676 126.771 325.711 126.274C320.439 123.468 314.186 123.976 309.156 125.261C304.126 126.547 300.316 128.611 299.925 128.904C301.043 120.951 300.355 113.846 298.362 108.375C296.369 102.903 293.153 99.0578 289.112 97.647C287.324 97.039 285.416 96.8727 283.55 97.1624C282.581 97.2993 281.632 97.5539 280.725 97.9206C276.762 99.5737 273.733 103.544 272.072 109.031C270.412 114.518 270.118 121.537 271.635 129.236C267.915 128.247 264.097 127.675 260.251 127.528C254.701 127.368 248.526 128.345 245.208 132.655C244.907 133.046 244.633 133.458 244.388 133.886C244.122 134.352 243.89 134.837 243.696 135.336C243.251 136.666 242.997 138.051 242.942 139.452C242.91 140.443 243.003 141.434 243.219 142.402C243.895 145.423 245.795 148.167 248.612 150.421C251.43 152.676 255.17 154.439 259.528 155.502C261.532 155.682 263.248 155.94 264.46 156.151C265.671 156.362 266.386 156.541 266.386 156.541C265.18 156.463 264.008 156.333 262.869 156.151C261.73 155.968 260.621 155.751 259.539 155.498C255.666 155.154 250.715 155.107 246.201 156.221C241.687 157.335 237.603 159.644 235.509 164.01C234.336 166.437 233.928 169.162 234.336 171.826C234.737 174.495 235.893 176.994 237.666 179.028C239.524 181.129 241.804 182.815 244.356 183.976C247.358 185.379 251.215 186.407 256.159 186.645L259.883 186.548L263.604 186.446C262.244 186.575 260.946 186.649 259.696 186.68C258.445 186.712 257.273 186.7 256.147 186.645L250.828 186.786L245.498 186.911C241.347 187.02 237.384 188.665 234.375 191.526C231.366 194.361 229.574 198.253 229.377 202.383C229.267 204.619 229.621 206.853 230.415 208.946C231.21 211.039 232.428 212.946 233.993 214.546C235.559 216.146 237.438 217.405 239.513 218.245C241.589 219.085 243.815 219.487 246.053 219.426L258.281 218.988L270.509 218.531L270.669 270.692L270.834 322.853H296.271C296.271 313.732 296.236 292.034 296.22 270.336C296.205 248.639 296.185 226.945 296.166 217.824Z" fill="#BAB653"/>
<path d="M296.157 217.828H281.814C284.211 222.22 286.61 226.613 289.009 231.006C291.409 235.398 293.807 239.792 296.204 244.188L296.18 231.006L296.157 217.828Z" fill="#285152"/>
<path d="M313.431 155.072H306.768C306.612 155.072 306.463 155.01 306.353 154.9C306.243 154.79 306.182 154.641 306.182 154.486C306.181 154.409 306.196 154.332 306.225 154.261C306.255 154.19 306.298 154.125 306.354 154.072C306.408 154.017 306.472 153.974 306.544 153.944C306.615 153.915 306.691 153.9 306.768 153.9H313.431C313.508 153.9 313.584 153.915 313.655 153.944C313.727 153.974 313.791 154.017 313.845 154.072C313.955 154.182 314.017 154.331 314.017 154.486C314.017 154.563 314.002 154.639 313.973 154.71C313.943 154.781 313.9 154.846 313.845 154.9C313.792 154.955 313.727 154.999 313.656 155.029C313.585 155.058 313.508 155.073 313.431 155.072Z" fill="#666538"/>
<path d="M273.884 132.003C273.81 132.002 273.738 131.987 273.669 131.96C273.598 131.932 273.533 131.891 273.478 131.839L272.348 130.748L271.219 129.658C271.107 129.55 271.043 129.403 271.039 129.248C271.039 129.092 271.097 128.943 271.203 128.829C271.312 128.717 271.461 128.652 271.617 128.65C271.695 128.648 271.771 128.661 271.843 128.689C271.915 128.718 271.98 128.76 272.036 128.814L273.161 129.904L274.291 130.994C274.4 131.096 274.464 131.236 274.47 131.385C274.473 131.503 274.44 131.618 274.376 131.716C274.312 131.815 274.219 131.891 274.111 131.936C274.041 131.974 273.964 131.997 273.884 132.003Z" fill="#666538"/>
<path d="M262.525 186.43L258.804 186.532L255.08 186.63C256.206 186.684 257.386 186.696 258.629 186.665C259.871 186.634 261.165 186.559 262.525 186.43Z" fill="#BAB653"/>
<path d="M255.729 150.132C256.909 150.419 258.128 150.657 259.386 150.847C260.645 151.038 261.937 151.176 263.263 151.262C263.263 151.262 262.482 151.078 261.145 150.844C259.809 150.609 257.929 150.328 255.729 150.132Z" fill="#BAB653"/>
<path d="M344.84 242.57L342.71 242.624L340.576 242.683C340.57 242.683 340.564 242.683 340.558 242.681C340.552 242.679 340.546 242.676 340.542 242.672C340.537 242.668 340.533 242.663 340.53 242.658C340.528 242.652 340.526 242.646 340.525 242.64C340.524 242.628 340.527 242.616 340.533 242.606C340.539 242.596 340.549 242.589 340.56 242.585C342.136 242.05 343.581 241.189 344.801 240.057C345.867 239.076 346.632 237.811 347.005 236.41C347.312 235.065 347.237 233.66 346.79 232.354C346.554 231.623 346.227 230.924 345.817 230.275C344.629 228.493 342.864 227.173 340.818 226.539C338.538 225.817 336.101 225.749 333.784 226.343C335.995 225.837 337.97 224.597 339.388 222.826C340.659 221.282 341.378 219.358 341.433 217.36C341.487 215.361 340.874 213.401 339.689 211.79C338.609 210.247 337.054 209.099 335.261 208.523C333.468 207.946 331.535 207.972 329.759 208.597C327.853 209.24 326.184 210.438 324.963 212.036C325.974 210.045 326.349 207.791 326.038 205.58C325.744 203.435 324.753 201.446 323.217 199.921C321.631 198.392 319.591 197.419 317.405 197.15C315.299 196.843 313.153 197.286 311.34 198.401C309.183 199.784 307.745 202.207 307.307 204.962C306.847 207.977 307.557 211.053 309.292 213.56C309.309 213.577 309.318 213.601 309.318 213.625C309.318 213.649 309.309 213.672 309.292 213.689C309.274 213.704 309.251 213.712 309.228 213.712C309.204 213.712 309.181 213.704 309.163 213.689C308.261 213.029 307.237 212.554 306.15 212.292C305.064 212.03 303.936 211.985 302.832 212.161C301.773 212.275 300.754 212.629 299.852 213.194C298.949 213.76 298.187 214.523 297.622 215.426C297.058 216.33 296.706 217.349 296.593 218.408C296.48 219.467 296.609 220.538 296.97 221.54C297.309 222.679 297.884 223.733 298.658 224.635C299.432 225.537 300.386 226.265 301.46 226.773C300.101 226.489 298.7 226.476 297.336 226.735C295.971 226.994 294.672 227.52 293.511 228.282C291.37 229.696 289.896 231.826 289.603 234.081C289.385 236.157 289.959 238.238 291.209 239.908C292.55 241.793 294.479 243.179 296.693 243.848L294.5 243.906L292.308 243.965C290.871 244.003 289.456 244.323 288.143 244.908C286.83 245.494 285.645 246.332 284.656 247.375C283.667 248.418 282.893 249.645 282.379 250.987C281.865 252.329 281.62 253.76 281.658 255.197C281.696 256.633 282.017 258.049 282.602 259.361C283.187 260.674 284.025 261.859 285.068 262.848C286.111 263.837 287.339 264.611 288.681 265.125C290.023 265.64 291.453 265.884 292.89 265.846L301.914 265.604L310.937 265.365L311.688 299.678L312.438 333.991H328.95L328.168 299.459L327.386 264.928L336.41 264.689L345.434 264.447C348.335 264.37 351.087 263.144 353.084 261.039C355.081 258.933 356.16 256.12 356.083 253.219C356.045 251.782 355.725 250.367 355.14 249.054C354.555 247.741 353.717 246.557 352.674 245.568C351.631 244.579 350.403 243.805 349.061 243.29C347.719 242.776 346.288 242.531 344.852 242.57H344.84Z" fill="#666538"/>
<path d="M327.375 264.927H322.979H318.582L323.092 270.993L327.602 277.054L327.488 270.993L327.375 264.927Z" fill="#285152"/>
<path d="M305.239 227.269H301.456C301.36 227.27 301.265 227.241 301.185 227.188C301.105 227.134 301.042 227.058 301.005 226.969C300.967 226.88 300.957 226.782 300.976 226.687C300.994 226.593 301.04 226.506 301.108 226.437C301.154 226.391 301.208 226.355 301.268 226.33C301.327 226.305 301.392 226.292 301.456 226.292H305.239C305.303 226.292 305.367 226.305 305.426 226.33C305.485 226.355 305.538 226.391 305.583 226.437C305.629 226.482 305.666 226.536 305.691 226.595C305.715 226.655 305.728 226.719 305.728 226.783C305.728 226.847 305.715 226.911 305.691 226.97C305.666 227.03 305.629 227.084 305.583 227.129C305.491 227.219 305.368 227.269 305.239 227.269Z" fill="#285152"/>
<path d="M340.967 243.293H329.173C329.108 243.293 329.044 243.28 328.985 243.255C328.925 243.23 328.871 243.194 328.825 243.148C328.757 243.08 328.711 242.992 328.693 242.898C328.674 242.803 328.684 242.705 328.721 242.616C328.759 242.527 328.821 242.451 328.902 242.397C328.982 242.344 329.076 242.316 329.173 242.316H340.967C341.097 242.316 341.221 242.367 341.313 242.459C341.405 242.55 341.456 242.675 341.456 242.804C341.456 242.868 341.443 242.932 341.418 242.991C341.393 243.05 341.357 243.103 341.311 243.148C341.267 243.194 341.213 243.231 341.154 243.255C341.095 243.28 341.032 243.293 340.967 243.293Z" fill="#285152"/>
<path d="M323.745 214.244C323.696 214.244 323.647 214.236 323.6 214.221C323.551 214.206 323.505 214.183 323.463 214.154C323.411 214.117 323.366 214.07 323.332 214.016C323.297 213.962 323.274 213.901 323.264 213.838C323.252 213.775 323.253 213.71 323.267 213.647C323.281 213.585 323.308 213.526 323.346 213.474L323.952 212.618L324.554 211.762C324.63 211.658 324.743 211.587 324.87 211.563C324.997 211.541 325.128 211.571 325.234 211.645C325.287 211.682 325.331 211.729 325.366 211.783C325.4 211.837 325.423 211.898 325.433 211.962C325.444 212.025 325.443 212.091 325.429 212.154C325.415 212.217 325.388 212.276 325.351 212.329L324.749 213.173L324.143 214.029C324.097 214.093 324.037 214.145 323.967 214.182C323.899 214.22 323.823 214.241 323.745 214.244Z" fill="#285152"/>
<path d="M239.388 309.945C239.331 309.944 239.274 309.933 239.22 309.913C239.163 309.893 239.11 309.863 239.064 309.823L229.055 300.987L219.047 292.151C218.949 292.065 218.89 291.944 218.882 291.814C218.874 291.684 218.918 291.557 219.004 291.459C219.09 291.362 219.211 291.303 219.341 291.295C219.47 291.287 219.598 291.33 219.695 291.416L229.704 300.253L239.712 309.089C239.809 309.175 239.868 309.296 239.876 309.426C239.884 309.555 239.841 309.683 239.755 309.78C239.708 309.832 239.651 309.873 239.587 309.902C239.524 309.929 239.457 309.944 239.388 309.945Z" fill="#285152"/>
<path d="M98.1855 127.747L102.852 135.11L107.514 142.469C107.808 140.827 108.115 139.294 108.432 137.869C108.749 136.442 109.069 135.133 109.378 133.941C109.832 132.194 110.273 130.682 110.621 129.537C110.969 128.392 111.231 127.61 111.324 127.325C111.778 125.981 112.225 124.737 112.665 123.593C113.103 122.452 113.521 121.416 113.912 120.494L106.936 121.064L99.9598 121.635C99.6628 122.656 99.3684 123.675 99.0766 124.691C98.7848 125.707 98.4878 126.726 98.1855 127.747Z" fill="#666538"/>
<path d="M297.643 257.334C297.361 261.352 297.079 265.368 296.795 269.383C296.511 273.398 296.228 277.412 295.947 281.427C295.865 282.589 296.024 283.756 296.412 284.854C296.801 285.952 297.411 286.958 298.206 287.81C299 288.662 299.962 289.341 301.03 289.806C302.098 290.27 303.251 290.51 304.415 290.51H331.381C327.014 284.674 322.648 278.841 318.281 273.013L305.181 255.536C304.74 254.791 304.072 254.206 303.274 253.868C302.477 253.53 301.592 253.456 300.749 253.657C299.907 253.857 299.151 254.323 298.592 254.985C298.033 255.646 297.7 256.47 297.643 257.334Z" fill="#5FC6AA"/>
<path d="M240.369 77.2468C240.37 83.1663 238.318 88.903 234.564 93.4793C230.809 98.0556 225.584 101.188 219.778 102.344C213.972 103.5 207.946 102.606 202.725 99.8165C197.504 97.0266 193.412 92.5128 191.146 87.0442C188.88 81.5755 188.58 75.4904 190.298 69.8255C192.016 64.1607 195.645 59.2668 200.566 55.9776C205.488 52.6884 211.398 51.2074 217.289 51.7871C223.18 52.3667 228.688 54.9711 232.874 59.1564C235.254 61.5291 237.141 64.3488 238.427 67.4534C239.714 70.558 240.374 73.8863 240.369 77.2468Z" fill="#FF6500"/>
<path d="M301.316 275.491H286.649H271.979V272.623V269.754H286.649H301.316V272.623V275.491Z" fill="#FF6500"/>
<path d="M271.978 275.491L270.091 282.991L268.203 290.494H282.913H297.623L299.472 282.991L301.316 275.491H286.649H271.978Z" fill="#FF6500"/>
<path d="M301.316 275.491L303.122 282.991L304.927 290.494H301.273H297.623L299.472 282.991L301.316 275.491Z" fill="#285152"/>
<path d="M323.534 272.033L326.328 266.561L329.122 261.09C329.332 260.774 329.474 260.417 329.536 260.042C329.599 259.668 329.582 259.284 329.486 258.917C329.419 258.587 329.278 258.277 329.072 258.01C328.867 257.743 328.603 257.527 328.301 257.379C327.999 257.23 327.666 257.153 327.33 257.154C326.993 257.154 326.661 257.232 326.359 257.381C326.031 257.523 325.735 257.728 325.487 257.985C325.238 258.242 325.044 258.545 324.913 258.878L319.895 268.304L314.897 277.734C314.27 278.909 314.114 280.278 314.458 281.563C314.803 282.849 315.623 283.956 316.753 284.659L318.047 285.468L319.344 286.277L318.527 288.384L317.715 290.49H335.098L340.463 279.751L345.817 269.008C346.08 268.392 346.17 267.717 346.079 267.054C346.049 266.723 345.94 266.404 345.761 266.124C345.582 265.844 345.339 265.61 345.051 265.444C344.8 265.311 344.519 265.241 344.235 265.241C343.95 265.241 343.67 265.311 343.418 265.444C342.916 265.705 342.507 266.114 342.245 266.616L339.119 272.513L335.993 278.41C335.839 278.78 335.611 279.114 335.322 279.391C335.032 279.667 334.688 279.88 334.312 280.017C333.982 280.146 333.626 280.201 333.272 280.177C332.918 280.152 332.574 280.05 332.264 279.876C331.776 279.568 331.418 279.091 331.26 278.536C331.078 277.92 331.104 277.262 331.334 276.664L334.07 270.524L336.805 264.388C336.999 264.075 337.124 263.724 337.171 263.359C337.219 262.994 337.189 262.623 337.083 262.27C336.998 261.957 336.844 261.668 336.633 261.422C336.423 261.176 336.16 260.979 335.864 260.848C335.59 260.748 335.299 260.705 335.008 260.721C334.717 260.738 334.432 260.812 334.171 260.941C333.569 261.224 333.096 261.726 332.85 262.344L329.822 268.207L326.785 274.139C326.493 274.698 326.038 275.156 325.48 275.452C325.274 275.572 325.047 275.647 324.81 275.674C324.574 275.701 324.335 275.679 324.108 275.608C323.854 275.477 323.634 275.288 323.466 275.057C323.297 274.825 323.186 274.558 323.139 274.276C322.978 273.505 323.119 272.702 323.534 272.033Z" fill="#285152"/>
<path d="M313.653 275.98C313.574 275.979 313.496 275.96 313.426 275.925C313.353 275.888 313.291 275.833 313.246 275.765L307.916 267.859L302.585 259.953C302.549 259.9 302.525 259.841 302.512 259.778C302.499 259.716 302.499 259.652 302.511 259.589C302.522 259.526 302.546 259.465 302.582 259.411C302.618 259.358 302.664 259.312 302.718 259.277C302.826 259.204 302.958 259.178 303.085 259.202C303.148 259.214 303.208 259.239 303.261 259.275C303.314 259.31 303.359 259.356 303.394 259.409L308.725 267.312L314.055 275.218C314.092 275.27 314.118 275.33 314.132 275.393C314.145 275.456 314.146 275.522 314.133 275.585C314.105 275.711 314.031 275.822 313.926 275.898C313.885 275.924 313.84 275.945 313.793 275.96C313.747 275.972 313.7 275.979 313.653 275.98Z" fill="#285152"/>
<path d="M290.287 290.494H275.948H261.609V286.277V282.064H275.948H290.287V286.277V290.494Z" fill="#F1DFC6"/>
<path d="M334.842 333.991H294.437H254.031L251.858 312.243L249.686 290.494H294.812H339.938L337.39 312.243L334.842 333.991Z" fill="#FFAA9F"/>
<path d="M84.3789 208.738C84.4065 211.733 84.7114 214.72 85.2895 217.66C86.0497 221.521 87.333 225.26 89.1038 228.774C91.4877 233.464 94.8134 237.548 98.6199 241.159C102.426 244.77 106.713 247.92 111.016 250.796C115.249 253.622 119.731 256.072 124.179 258.565C128.626 261.059 133.042 263.603 137.138 266.608C141.15 269.555 144.909 272.831 148.377 276.402C152.762 280.932 156.71 285.867 160.168 291.139C160.492 290.397 160.821 289.615 161.141 288.794C161.461 287.974 161.774 287.102 162.075 286.195C162.376 285.289 162.634 284.425 162.857 283.581C163.079 282.737 163.294 281.924 163.474 281.142C159.915 276.026 155.745 271.362 151.058 267.253C146.376 263.142 141.379 259.404 136.114 256.072C130.381 252.395 124.311 249.198 118.508 245.641C112.705 242.085 107.175 238.169 102.485 233.05C100.563 230.953 98.902 228.632 97.5373 226.136C96.1908 223.644 95.09 221.026 94.2507 218.32C94.1178 217.929 93.2932 215.37 92.6874 212.911C92.0817 210.453 91.6479 208.085 92.3279 208.022L86.5401 208.55L84.3789 208.738Z" fill="#BAB653"/>
<path d="M84.543 212.27L89.7055 216.178L94.872 220.086C94.6297 219.409 94.3939 218.711 94.1646 217.992C93.9353 217.273 93.71 216.53 93.4885 215.764C93.172 214.666 92.8945 213.595 92.6444 212.552C92.3943 211.508 92.1832 210.5 91.9917 209.523L88.2673 210.887L84.543 212.27Z" fill="#666538"/>
<path d="M339.244 297.032H250.289C250.16 297.032 250.037 296.981 249.945 296.892C249.878 296.823 249.832 296.736 249.814 296.642C249.795 296.547 249.805 296.449 249.842 296.36C249.878 296.272 249.94 296.195 250.02 296.141C250.099 296.087 250.193 296.057 250.289 296.055H339.244C339.341 296.055 339.436 296.084 339.516 296.138C339.597 296.192 339.66 296.268 339.697 296.358C339.733 296.448 339.743 296.546 339.723 296.642C339.704 296.737 339.657 296.824 339.588 296.892C339.496 296.981 339.372 297.032 339.244 297.032Z" fill="#285152"/>
<path d="M168.676 239.791C167.422 236.232 166.551 232.549 166.077 228.805C165.444 223.451 165.796 217.394 169.383 213.611C169.962 212.978 170.61 212.411 171.314 211.922C172.335 211.203 173.531 210.773 174.777 210.68C176.543 210.57 178.337 211.231 179.967 212.489C181.768 213.955 183.212 215.811 184.191 217.917C182.706 211.93 182.933 206.506 184.258 202.328C185.582 198.15 188.013 195.223 190.936 194.231C191.887 193.918 192.889 193.793 193.887 193.863C195.38 193.945 197.361 194.399 199.773 195.731C200.189 193.205 200.929 190.744 201.977 188.408C203.649 184.781 206.471 181.221 211.055 181.494C213.148 181.622 215.117 182.527 216.577 184.031C218.05 185.542 218.953 187.517 219.133 189.619C219.341 191.737 219.131 193.874 218.516 195.911C217.732 198.389 216.243 200.585 214.232 202.23C216.11 203.489 217.686 205.146 218.848 207.084C219.423 208.058 219.814 209.13 220.001 210.246C220.556 213.763 218.992 217.745 215.671 221.29C212.349 224.835 207.272 227.934 200.8 229.653C202.627 230.499 204.344 231.564 205.912 232.827C208.257 234.734 210.504 237.43 210.528 240.756C210.527 241.858 210.299 242.947 209.859 243.957C209.578 244.605 209.234 245.224 208.831 245.805C205.705 250.448 198.159 252.172 191.081 252.699C186.114 253.028 181.128 252.937 176.176 252.426C175.793 251.613 175.382 250.782 174.945 249.932C174.507 249.084 174.042 248.217 173.546 247.341C172.744 245.923 171.928 244.606 171.111 243.328C170.294 242.05 169.481 240.889 168.676 239.791Z" fill="#BAB653"/>
<path d="M267.28 148.237C267.203 148.237 267.126 148.222 267.055 148.192C266.984 148.163 266.92 148.119 266.865 148.065C266.756 147.955 266.694 147.806 266.693 147.651V144.157C266.693 144.001 266.755 143.852 266.865 143.742C266.975 143.632 267.124 143.571 267.28 143.571C267.435 143.571 267.584 143.633 267.694 143.743C267.748 143.797 267.792 143.861 267.821 143.932C267.851 144.004 267.866 144.08 267.866 144.157V147.651C267.866 147.806 267.804 147.955 267.694 148.065C267.584 148.175 267.435 148.237 267.28 148.237Z" fill="#666538"/>
<path d="M308.315 166.882C308.238 166.882 308.162 166.867 308.09 166.838C308.019 166.808 307.955 166.765 307.901 166.71C307.845 166.657 307.802 166.592 307.772 166.521C307.743 166.45 307.728 166.373 307.729 166.296V162.802C307.729 162.647 307.79 162.498 307.9 162.388C308.01 162.278 308.159 162.216 308.315 162.216C308.392 162.215 308.468 162.23 308.539 162.26C308.611 162.289 308.675 162.333 308.729 162.388C308.784 162.442 308.827 162.507 308.856 162.578C308.886 162.649 308.901 162.725 308.901 162.802V166.296C308.901 166.452 308.839 166.601 308.729 166.711C308.619 166.821 308.47 166.882 308.315 166.882Z" fill="#666538"/>
<path d="M276.198 185.942C276.121 185.942 276.044 185.927 275.973 185.897C275.902 185.868 275.838 185.824 275.783 185.77C275.728 185.716 275.684 185.651 275.655 185.58C275.625 185.509 275.611 185.433 275.611 185.355V181.862C275.611 181.706 275.673 181.557 275.783 181.447C275.893 181.337 276.042 181.275 276.198 181.275C276.275 181.275 276.351 181.289 276.422 181.319C276.494 181.349 276.558 181.392 276.612 181.447C276.666 181.502 276.71 181.566 276.739 181.637C276.769 181.708 276.784 181.785 276.784 181.862V185.355C276.784 185.511 276.722 185.66 276.612 185.77C276.502 185.88 276.353 185.942 276.198 185.942Z" fill="#666538"/>
<path d="M95.8721 180.69C94.8546 178.637 93.2881 176.907 91.3466 175.691C89.3625 174.442 87.0571 173.799 84.7129 173.84C82.3686 173.882 80.0875 174.607 78.1491 175.926C76.1319 177.29 74.5596 179.217 73.6274 181.467C72.6039 181.226 71.5512 181.131 70.501 181.186C68.5963 181.242 66.758 181.899 65.2486 183.062C63.4303 184.549 62.241 186.668 61.9189 188.994C61.544 191.317 62.0259 193.698 63.275 195.693C64.4031 197.399 66.0624 198.686 67.9959 199.354C69.0278 199.739 70.1098 199.972 71.2083 200.046C71.2133 201.333 71.3974 202.613 71.7555 203.849C72.3691 206.116 73.6603 208.142 75.4564 209.656C77.4962 211.311 80.0326 212.233 82.659 212.274C85.4607 212.336 88.2158 211.551 90.565 210.023C92.7203 211.073 95.1531 211.413 97.5135 210.993C99.754 210.603 101.794 209.458 103.294 207.749C104.778 205.974 105.588 203.732 105.58 201.418C105.606 200.23 105.459 199.045 105.142 197.901C106.757 196.289 107.794 194.19 108.093 191.929C108.391 189.761 107.97 187.556 106.895 185.65C105.82 183.744 104.15 182.243 102.141 181.377C100.173 180.502 97.9823 180.262 95.8721 180.69Z" fill="#F1DFC6"/>
<path d="M99.687 193.899C99.4487 196.513 97.733 198.745 95.1068 200.237C92.4806 201.73 89.0141 202.481 85.2702 202.141C81.5263 201.801 78.2357 200.433 75.9339 198.494C73.632 196.556 72.3345 194.047 72.5729 191.433C72.8113 188.818 74.527 186.587 77.1532 185.094C79.7794 183.601 83.2497 182.851 86.9937 183.191C90.7376 183.531 94.0282 184.898 96.3261 186.837C98.6241 188.775 99.9254 191.288 99.687 193.899Z" fill="#FF6500"/>
<path d="M104.532 310.183C105.938 310.04 107.301 309.613 108.538 308.93C109.775 308.246 110.861 307.319 111.731 306.205C112.545 305.218 113.151 304.076 113.512 302.849C113.874 301.622 113.985 300.335 113.837 299.064C113.689 297.793 113.286 296.565 112.652 295.454C112.018 294.343 111.167 293.371 110.148 292.597C108.151 291.024 105.653 290.224 103.113 290.346C104.663 289.821 106.087 288.98 107.294 287.875C108.501 286.77 109.465 285.426 110.124 283.929C110.765 282.584 111.116 281.12 111.153 279.631C111.191 278.142 110.915 276.661 110.343 275.286C109.771 273.911 108.916 272.671 107.833 271.648C106.75 270.625 105.465 269.841 104.059 269.348C101.239 268.285 98.1191 268.339 95.3364 269.496C96.0345 268.585 96.6112 267.586 97.052 266.526C97.9603 264.398 98.2446 262.056 97.8716 259.772C97.4986 257.488 96.4838 255.358 94.9456 253.63C94.0636 252.591 93.034 251.688 91.8895 250.949C89.5696 249.881 86.9773 249.552 84.4642 250.007C81.8221 250.456 79.4314 251.845 77.7323 253.917C76.0332 255.99 75.1402 258.607 75.2177 261.285C75.2518 264.318 76.3865 267.234 78.4106 269.492C76.8906 268.962 75.2779 268.75 73.6725 268.869C72.0671 268.988 70.5033 269.436 69.0781 270.184C66.3894 271.595 64.3494 273.991 63.6616 276.828C63.3643 278.185 63.3433 279.587 63.5998 280.952C63.8562 282.317 64.385 283.617 65.1544 284.773C66.7725 287.312 69.3053 289.131 72.228 289.853C69.5962 289.572 66.9418 290.11 64.6269 291.393C62.5039 292.545 60.8607 294.415 59.9919 296.669C59.4448 298.19 59.2615 299.817 59.4565 301.421C59.6636 303.227 60.3945 304.934 61.559 306.33C62.7673 307.756 64.3704 308.794 66.1666 309.312C67.1264 309.602 68.1223 309.756 69.125 309.769C66.6126 310.355 64.3722 311.774 62.768 313.795C61.1639 315.815 60.2902 318.319 60.2889 320.899C60.291 323.93 61.4961 326.836 63.6395 328.978C65.7829 331.121 68.6893 332.325 71.72 332.326H100.507C103.537 332.325 106.444 331.121 108.587 328.978C110.731 326.836 111.936 323.93 111.938 320.899C111.936 318.571 111.224 316.3 109.897 314.387C108.57 312.475 106.692 311.012 104.513 310.195L104.532 310.183Z" fill="#DDC4A3"/>
<path d="M90.4288 231.15C87.3058 229.831 83.8869 229.369 80.5258 229.814C77.4284 230.212 74.5394 231.59 72.2798 233.745C70.8685 235.136 69.7706 236.812 69.0595 238.662C68.5763 239.904 68.2444 241.201 68.0708 242.523C64.4068 241.936 60.6519 242.386 57.2298 243.82C53.9441 245.178 51.1525 247.509 49.23 250.499C47.8555 252.686 46.995 255.157 46.7132 257.725C46.4235 260.323 46.6709 262.953 47.4401 265.451C48.5139 268.927 50.5827 272.012 53.3908 274.325C56.1989 276.638 59.6232 278.077 63.2404 278.465C64.1839 278.566 65.134 278.592 66.0816 278.543C67.1035 278.488 68.1183 278.341 69.1142 278.106C73.4131 277.086 77.2274 274.401 80.0099 270.633C82.9577 266.557 84.6133 261.69 84.7621 256.662C85.8963 256.319 86.9883 255.85 88.0175 255.263C89.5065 254.42 90.8305 253.314 91.9256 252C94.5401 248.854 95.2123 245.204 95.2084 242.253C95.2087 240.373 94.9362 238.502 94.3994 236.7L92.4141 233.937L90.4288 231.15Z" fill="#BAB653"/>
<path d="M197.377 280.529L181.405 295.243L165.44 309.972C164.528 310.817 163.739 311.785 163.095 312.848C162.453 313.911 161.978 315.066 161.685 316.272C161.685 316.346 161.649 316.42 161.634 316.495L161.587 316.721C161.284 318.186 161.192 319.686 161.313 321.177C161.434 323.466 162.256 325.664 163.668 327.47C165.081 329.277 167.015 330.605 169.208 331.275C170.31 331.634 171.454 331.846 172.612 331.904H237.614V304.673H220.376C221.777 302.389 222.876 299.932 223.643 297.365C224.592 294.165 225.021 290.833 224.913 287.497C224.841 285.147 224.522 282.811 223.96 280.529H197.385H197.377Z" fill="#F1DFC6"/>
<path d="M127.31 308.389V322.091C127.311 322.565 127.429 323.031 127.654 323.447C127.879 323.864 128.204 324.218 128.6 324.479L133.414 327.644L138.229 330.81C138.335 330.878 138.415 330.979 138.459 331.098C138.502 331.216 138.506 331.345 138.47 331.465C138.434 331.586 138.36 331.692 138.259 331.767C138.157 331.841 138.035 331.882 137.909 331.881H105.37C104.777 331.88 104.208 331.643 103.788 331.224C103.368 330.804 103.132 330.235 103.131 329.641V308.389H127.31Z" fill="#FF6500"/>
<path d="M139.069 308.389V322.091C139.07 322.565 139.188 323.031 139.413 323.447C139.638 323.864 139.963 324.218 140.359 324.479L145.173 327.644L149.988 330.81C150.094 330.878 150.174 330.979 150.218 331.098C150.261 331.216 150.265 331.345 150.229 331.465C150.193 331.586 150.119 331.692 150.018 331.767C149.916 331.841 149.794 331.882 149.668 331.881H118.833C118.239 331.88 117.67 331.643 117.251 331.224C116.831 330.804 116.595 330.235 116.594 329.641V308.389H139.069Z" fill="#FF6500"/>
<path d="M139.073 243.558V308.389H116.594V243.558C116.594 243.558 122.214 243.484 127.833 243.449C133.453 243.414 139.073 243.414 139.073 243.558Z" fill="#666538"/>
<path d="M220.876 218.254C220.876 220.499 220.097 222.676 218.673 224.412C217.248 226.148 215.265 227.336 213.063 227.774C210.86 228.213 208.574 227.874 206.593 226.815C204.612 225.756 203.06 224.044 202.2 221.969C201.341 219.894 201.227 217.586 201.879 215.437C202.53 213.287 203.907 211.431 205.774 210.183C207.641 208.935 209.883 208.373 212.118 208.592C214.353 208.812 216.443 209.8 218.031 211.387C218.934 212.288 219.65 213.358 220.138 214.537C220.627 215.715 220.877 216.978 220.876 218.254Z" fill="#D45131"/>
<path d="M234.827 227.019C234.827 229.745 233.882 232.387 232.152 234.494C230.423 236.601 228.016 238.043 225.343 238.575C222.669 239.107 219.894 238.695 217.49 237.41C215.086 236.125 213.202 234.046 212.158 231.527C211.115 229.009 210.978 226.206 211.769 223.598C212.561 220.989 214.232 218.736 216.499 217.221C218.765 215.707 221.487 215.025 224.2 215.293C226.913 215.56 229.449 216.76 231.377 218.687C232.473 219.78 233.343 221.078 233.935 222.508C234.527 223.938 234.831 225.471 234.827 227.019Z" fill="#D45131"/>
<path d="M243.434 240.248C243.434 242.791 242.552 245.255 240.939 247.22C239.326 249.185 237.081 250.53 234.587 251.026C232.093 251.522 229.505 251.137 227.263 249.938C225.02 248.739 223.263 246.8 222.291 244.451C221.318 242.102 221.19 239.488 221.929 237.055C222.668 234.622 224.227 232.52 226.341 231.108C228.456 229.696 230.995 229.061 233.525 229.311C236.055 229.561 238.42 230.681 240.218 232.479C241.238 233.499 242.048 234.71 242.6 236.043C243.152 237.376 243.435 238.805 243.434 240.248Z" fill="#D45131"/>
<path d="M196.127 236.367C196.127 236.367 192.934 236.79 189.503 240.748C186.072 244.707 182.41 252.203 181.46 266.346L180.342 281.756L179.225 297.169L188.303 288.849L197.378 280.529H223.952L224.277 282.307L224.601 284.089L216.676 292.929L208.762 301.769L216.683 309.499L224.609 317.225L233.496 308.753L242.371 300.284C244.791 297.985 246.699 295.202 247.971 292.116C249.242 289.041 249.819 285.724 249.66 282.401C249.66 282.295 249.66 282.189 249.66 282.084C249.66 281.978 249.66 281.873 249.636 281.764C249.569 280.877 249.453 279.995 249.288 279.122C249.132 278.289 248.94 277.512 248.729 276.777L245.966 265.361L243.207 253.946C242.216 250.114 240.454 246.523 238.029 243.394C234 238.196 227.087 233.175 215.558 233.851L205.85 235.105L196.127 236.367Z" fill="#285152"/>
<path d="M191.518 238.759L201.382 246.333L205.063 249.155L203.941 245.512C203.226 243.168 202.194 239.83 200.94 235.742L198.533 236.055L196.125 236.364C196.027 236.364 195.91 236.403 195.785 236.434C195.66 236.465 195.516 236.504 195.363 236.551L195.031 236.664L194.734 236.786C194.445 236.903 194.195 237.02 193.999 237.118C193.804 237.216 193.659 237.29 193.608 237.325L193.272 237.516C193.12 237.606 192.932 237.724 192.721 237.86C192.51 237.997 192.37 238.099 192.17 238.251C191.971 238.404 191.74 238.576 191.518 238.759Z" fill="#5FC6AA"/>
<path d="M205.068 249.151L208.371 241.757L211.673 234.363C212.416 234.218 213.115 234.113 213.76 234.031C214.405 233.948 215.007 233.898 215.542 233.862C216.503 233.8 217.39 233.788 218.192 233.8C218.993 233.812 219.696 233.862 220.298 233.913C221.158 233.988 221.904 234.093 222.475 234.183C223.045 234.273 223.44 234.355 223.6 234.386C224.171 234.507 224.702 234.636 225.187 234.777C225.672 234.918 226.109 235.043 226.496 235.168L215.796 242.155L205.068 249.151Z" fill="#5FC6AA"/>
<path d="M103.131 243.558V308.389H127.22L127.185 275.972L127.15 243.535H103.131V243.558Z" fill="#666538"/>
<path d="M205.068 249.151C205.47 251.407 205.871 253.661 206.272 255.912L207.48 262.673C207.505 262.811 207.56 262.943 207.642 263.057C207.724 263.172 207.83 263.267 207.952 263.336C208.075 263.405 208.212 263.447 208.352 263.457C208.493 263.467 208.634 263.446 208.765 263.396L210.673 262.657L212.576 261.918C212.711 261.866 212.833 261.783 212.931 261.677C213.03 261.57 213.103 261.443 213.146 261.304C213.188 261.165 213.198 261.018 213.175 260.875C213.152 260.731 213.097 260.595 213.013 260.476L209.039 254.813L205.068 249.151Z" fill="#5FC6AA"/>
<path d="M205.067 249.151L204.739 255.9L204.41 262.649C204.404 262.782 204.365 262.912 204.297 263.026C204.229 263.141 204.134 263.237 204.02 263.306C203.908 263.376 203.782 263.419 203.651 263.431C203.519 263.442 203.387 263.422 203.265 263.372L201.202 262.516L199.135 261.664C199.027 261.619 198.93 261.551 198.85 261.465C198.77 261.38 198.71 261.278 198.673 261.167C198.636 261.056 198.623 260.938 198.635 260.822C198.648 260.705 198.685 260.593 198.744 260.492L201.905 254.817L205.067 249.151Z" fill="#5FC6AA"/>
<path d="M215.655 227.633C215.654 230.255 214.745 232.795 213.081 234.822C211.417 236.848 209.103 238.235 206.531 238.746C203.96 239.257 201.291 238.861 198.979 237.625C196.666 236.389 194.854 234.389 193.851 231.967C192.848 229.545 192.715 226.85 193.476 224.341C194.237 221.832 195.844 219.665 198.024 218.208C200.203 216.751 202.821 216.095 205.43 216.351C208.039 216.607 210.479 217.76 212.333 219.614C213.387 220.667 214.222 221.917 214.792 223.293C215.362 224.669 215.655 226.144 215.655 227.633Z" fill="#FFAA9F"/>
<path d="M208.762 301.769C209.102 301.429 208.762 301.769 208.254 302.285L206.722 303.84C206.722 303.84 206.331 304.207 205.698 304.798C205.065 305.388 204.135 306.201 203.021 307.084C200.746 308.905 198.444 310.027 196.057 311.261C193.669 312.496 191.195 313.837 188.588 316.104C188.162 316.475 187.611 316.971 186.986 317.604C186.262 318.335 185.576 319.102 184.93 319.902C184.429 320.47 184.05 321.136 183.817 321.856C183.724 322.088 183.686 322.338 183.707 322.587C183.727 322.836 183.805 323.077 183.934 323.291C183.994 323.365 184.064 323.432 184.141 323.49C184.252 323.565 184.373 323.625 184.501 323.666C184.164 324.094 183.987 324.626 184 325.17C184.006 325.658 184.202 326.124 184.547 326.468C184.869 326.76 185.285 326.928 185.72 326.941C185.953 326.95 186.187 326.929 186.415 326.878C186.585 327.427 186.921 327.909 187.377 328.258C188.123 328.805 189.397 329.074 191.508 327.949C192.804 327.251 194.145 326.639 195.521 326.116C197.913 325.19 201.086 324.256 204.189 324.201C204.571 324.23 204.94 324.352 205.264 324.557C205.686 324.865 205.882 325.444 204.971 326.511C204.51 327.054 204.041 327.593 203.584 328.14C203.126 328.688 202.665 329.239 202.224 329.801L201.946 330.157L201.665 330.513C201.23 330.995 200.989 331.622 200.989 332.271C200.982 332.522 201.032 332.772 201.134 333.001C201.237 333.231 201.39 333.434 201.583 333.596C201.729 333.701 201.895 333.774 202.071 333.811C202.26 333.852 202.454 333.861 202.646 333.838C202.851 333.818 203.051 333.765 203.24 333.682C203.428 333.595 203.606 333.488 203.771 333.362C205.569 332.134 207.399 330.845 209.262 329.493C211.125 328.14 213.011 326.72 214.921 325.233C216.648 323.888 218.317 322.544 219.931 321.215C221.545 319.887 223.097 318.558 224.593 317.249L216.668 309.522L208.762 301.769Z" fill="#BAB653"/>
<path d="M186.43 327.335C186.347 327.336 186.265 327.314 186.192 327.273C186.116 327.232 186.052 327.172 186.008 327.097C185.94 326.979 185.92 326.839 185.954 326.706C185.969 326.644 185.997 326.586 186.036 326.536C186.074 326.485 186.122 326.442 186.176 326.409C186.352 326.304 188.494 325.03 191.23 323.588C193.965 322.146 197.299 320.528 199.855 319.75C199.919 319.729 199.986 319.721 200.054 319.727C200.121 319.733 200.186 319.753 200.245 319.785C200.302 319.815 200.351 319.857 200.392 319.906C200.432 319.956 200.462 320.013 200.48 320.074C200.5 320.135 200.507 320.2 200.501 320.264C200.495 320.327 200.476 320.389 200.445 320.445C200.384 320.56 200.28 320.646 200.156 320.684C197.654 321.465 194.313 323.076 191.581 324.518C188.85 325.96 186.739 327.222 186.696 327.253C186.657 327.277 186.615 327.296 186.571 327.308C186.526 327.325 186.479 327.334 186.43 327.335Z" fill="#285152"/>
<path d="M184.504 324.123C184.419 324.122 184.336 324.1 184.262 324.058C184.188 324.017 184.126 323.957 184.082 323.885C184.048 323.829 184.026 323.768 184.017 323.704C184.008 323.641 184.011 323.576 184.027 323.513C184.06 323.387 184.141 323.279 184.254 323.212C184.429 323.111 186.598 321.829 189.225 320.438C191.851 319.046 194.934 317.55 196.939 317.018C197.001 317.002 197.066 316.998 197.13 317.006C197.194 317.015 197.255 317.036 197.31 317.069C197.366 317.101 197.414 317.143 197.453 317.194C197.492 317.245 197.52 317.303 197.537 317.365C197.553 317.426 197.557 317.491 197.548 317.554C197.54 317.617 197.519 317.678 197.486 317.733C197.455 317.79 197.413 317.839 197.362 317.878C197.31 317.917 197.252 317.945 197.189 317.96C195.235 318.476 192.16 319.988 189.545 321.376C186.931 322.763 184.793 324.029 184.75 324.053C184.712 324.076 184.672 324.095 184.629 324.107C184.588 324.118 184.546 324.123 184.504 324.123Z" fill="#285152"/>
<path d="M184.921 320.375C184.832 320.375 184.744 320.351 184.667 320.305C184.589 320.256 184.525 320.187 184.484 320.105C184.455 320.048 184.438 319.985 184.433 319.921C184.428 319.857 184.436 319.793 184.457 319.732C184.477 319.671 184.509 319.614 184.551 319.566C184.594 319.517 184.645 319.477 184.702 319.449C184.855 319.371 186.75 318.425 188.896 317.401C191.041 316.377 193.437 315.279 194.598 314.904C194.661 314.881 194.729 314.871 194.796 314.876C194.863 314.881 194.929 314.9 194.988 314.931C195.046 314.96 195.097 315 195.139 315.049C195.18 315.098 195.212 315.155 195.231 315.216C195.251 315.277 195.259 315.341 195.254 315.405C195.249 315.468 195.232 315.531 195.203 315.588C195.144 315.704 195.042 315.793 194.918 315.834C193.793 316.197 191.374 317.311 189.224 318.335C187.075 319.359 185.199 320.289 185.16 320.324L185.05 320.363C185.008 320.373 184.965 320.377 184.921 320.375Z" fill="#285152"/>
<path d="M198.729 230.888C198.729 231.085 198.652 231.273 198.514 231.412C198.445 231.481 198.363 231.536 198.273 231.574C198.183 231.611 198.086 231.63 197.988 231.63C197.891 231.63 197.794 231.611 197.704 231.574C197.613 231.536 197.532 231.481 197.463 231.412C197.325 231.273 197.248 231.084 197.248 230.888C197.248 230.693 197.325 230.504 197.463 230.365C197.532 230.296 197.613 230.241 197.704 230.203C197.794 230.166 197.891 230.147 197.988 230.147C198.086 230.147 198.183 230.166 198.273 230.203C198.363 230.241 198.445 230.296 198.514 230.365C198.652 230.504 198.729 230.692 198.729 230.888Z" fill="#285152"/>
<path d="M204.555 230.001C204.556 230.099 204.537 230.195 204.5 230.285C204.463 230.374 204.409 230.456 204.34 230.525C204.272 230.594 204.19 230.648 204.1 230.685C204.01 230.722 203.914 230.741 203.817 230.74C203.619 230.74 203.43 230.663 203.289 230.525C203.202 230.439 203.138 230.332 203.103 230.215C203.067 230.098 203.061 229.975 203.084 229.855C203.108 229.735 203.161 229.622 203.239 229.528C203.316 229.433 203.416 229.359 203.529 229.312C203.642 229.266 203.765 229.248 203.887 229.26C204.008 229.272 204.125 229.314 204.227 229.382C204.328 229.45 204.411 229.542 204.469 229.651C204.526 229.759 204.556 229.879 204.555 230.001Z" fill="#285152"/>
<path d="M201.649 235.629C201.034 235.62 200.43 235.47 199.882 235.191C199.617 235.063 199.368 234.905 199.14 234.718C199.088 234.678 199.045 234.627 199.013 234.57C198.981 234.513 198.961 234.449 198.954 234.384C198.947 234.318 198.953 234.252 198.973 234.189C198.992 234.126 199.024 234.068 199.066 234.018C199.109 233.967 199.161 233.926 199.219 233.897C199.278 233.867 199.342 233.849 199.408 233.845C199.473 233.841 199.539 233.85 199.601 233.872C199.663 233.893 199.72 233.928 199.769 233.972C200.006 234.161 200.269 234.315 200.551 234.429C201.075 234.661 201.661 234.714 202.218 234.58C202.775 234.446 203.273 234.132 203.634 233.687C203.815 233.471 203.965 233.232 204.08 232.975C204.131 232.856 204.228 232.762 204.349 232.713C204.408 232.688 204.471 232.676 204.535 232.676C204.599 232.676 204.662 232.688 204.721 232.713C204.839 232.765 204.933 232.86 204.982 232.979C205.01 233.041 205.024 233.107 205.024 233.175C205.024 233.242 205.01 233.309 204.982 233.37C204.821 233.734 204.606 234.073 204.345 234.374C203.916 234.879 203.356 235.256 202.727 235.465C202.545 235.524 202.358 235.569 202.169 235.598C201.996 235.621 201.823 235.631 201.649 235.629Z" fill="#D45131"/>
<path d="M151.933 179.74C152.3 182.64 150.421 185.547 147.079 187.904C143.738 190.26 138.943 192.07 133.475 192.754C128.008 193.437 122.923 192.902 119.094 191.456C115.264 190.01 112.723 187.665 112.356 184.765C111.989 181.866 113.868 178.958 117.21 176.602C120.551 174.245 125.346 172.443 130.81 171.748C136.273 171.052 141.362 171.603 145.192 173.049C149.021 174.495 151.566 176.828 151.933 179.74Z" fill="#DDC4A3"/>
<path d="M123.413 194.602C119.786 194.461 116.172 195.103 112.814 196.482C107.382 198.76 101.68 203.719 100.598 214.459L101.864 229.02L103.13 243.578H139.084L144.657 225.863L150.218 208.132C150.218 208.132 149.742 204.763 146.15 201.386C142.559 198.01 135.856 194.629 123.413 194.602Z" fill="#5FC6AA"/>
<path d="M143.496 332.369C143.439 332.37 143.381 332.36 143.328 332.338C143.272 332.319 143.22 332.288 143.176 332.248C143.127 332.207 143.088 332.156 143.059 332.099C143.031 332.042 143.015 331.979 143.012 331.916C143.003 331.787 143.045 331.659 143.129 331.56C143.243 331.42 143.305 331.245 143.305 331.064C143.301 330.997 143.286 330.931 143.262 330.868C143.245 330.82 143.223 330.774 143.195 330.732L135.805 327.832L128.419 324.944C128.25 324.886 128.086 324.813 127.93 324.725C127.777 324.635 127.634 324.529 127.504 324.408C127.107 324.03 126.855 323.523 126.793 322.978C126.704 322.187 126.674 321.39 126.703 320.594V319.863C126.703 319.609 126.703 319.34 126.703 319.054C126.703 318.699 126.703 318.37 126.703 318.093C126.703 317.816 126.703 317.573 126.684 317.393V244.117C126.682 244.02 126.71 243.925 126.764 243.844C126.817 243.763 126.893 243.7 126.983 243.663C127.073 243.626 127.172 243.617 127.267 243.636C127.362 243.656 127.448 243.704 127.516 243.773C127.562 243.818 127.599 243.871 127.624 243.931C127.649 243.99 127.661 244.053 127.661 244.117V317.378C127.661 317.554 127.661 317.788 127.68 318.073C127.7 318.359 127.68 318.687 127.68 319.05C127.68 319.336 127.68 319.609 127.68 319.863V320.59C127.657 321.294 127.678 321.999 127.743 322.701C127.757 323.071 127.911 323.423 128.173 323.685C128.25 323.76 128.337 323.824 128.431 323.877C128.532 323.934 128.639 323.98 128.751 324.014L136.262 326.96L143.777 329.911L143.813 329.946L143.852 329.985C144.114 330.272 144.266 330.641 144.282 331.029C144.296 331.457 144.15 331.875 143.871 332.201C143.823 332.254 143.765 332.297 143.699 332.326C143.635 332.355 143.566 332.369 143.496 332.369Z" fill="#285152"/>
<path d="M125.937 244.047H125.883C125.819 244.04 125.757 244.02 125.7 243.989C125.644 243.957 125.595 243.915 125.555 243.865C125.515 243.814 125.485 243.756 125.468 243.694C125.45 243.632 125.445 243.568 125.453 243.504L128.016 221.255L130.6 199.003C130.614 198.874 130.679 198.756 130.779 198.674C130.83 198.634 130.889 198.605 130.951 198.588C131.014 198.571 131.079 198.567 131.143 198.577C131.206 198.583 131.268 198.602 131.323 198.633C131.379 198.664 131.428 198.706 131.467 198.756C131.507 198.807 131.537 198.864 131.554 198.926C131.571 198.988 131.576 199.052 131.569 199.116L128.986 221.38L126.422 243.629C126.41 243.748 126.353 243.859 126.262 243.937C126.171 244.013 126.055 244.051 125.937 244.047Z" fill="#D45131"/>
<path d="M194.051 179.31C194.165 179.357 194.278 179.4 194.399 179.439C194.52 179.478 194.637 179.517 194.766 179.548C195.416 179.727 196.086 179.816 196.76 179.814C197.829 179.825 198.867 179.46 199.694 178.782C200.493 178.081 201.028 177.128 201.211 176.082C201.41 175.029 201.293 173.941 200.875 172.955C200.493 172.081 199.877 171.33 199.097 170.782C198.303 170.227 197.379 169.888 196.416 169.797C197.131 169.759 197.837 169.61 198.506 169.356C199.378 169.027 200.148 168.474 200.738 167.754C201.532 166.76 201.968 165.528 201.977 164.256C201.987 162.917 201.577 161.609 200.804 160.516C200.392 160.015 199.914 159.574 199.382 159.203C198.424 158.512 197.268 158.15 196.087 158.171C194.692 158.245 193.374 158.839 192.394 159.836C191.295 160.927 190.583 162.347 190.366 163.881C189.873 162.642 188.973 161.608 187.814 160.95C186.724 160.319 185.442 160.106 184.207 160.352C183.246 160.555 182.364 161.031 181.667 161.723C180.948 162.434 180.45 163.336 180.232 164.322C179.96 165.578 180.157 166.891 180.787 168.011L180.588 167.843L180.389 167.675C179.871 167.236 179.272 166.903 178.625 166.695C177.979 166.487 177.297 166.409 176.621 166.465C175.944 166.52 175.284 166.708 174.68 167.019C174.076 167.329 173.539 167.755 173.1 168.273C172.661 168.791 172.328 169.39 172.12 170.037C171.912 170.683 171.834 171.365 171.889 172.041C171.945 172.718 172.133 173.378 172.443 173.982C172.754 174.586 173.18 175.123 173.698 175.562L175.652 177.238L177.63 178.915L172.682 184.742L167.727 190.581L170.572 192.996L173.413 195.407L178.36 189.58L183.308 183.753L185.282 185.43L187.267 187.106C187.784 187.547 188.383 187.881 189.029 188.09C189.676 188.298 190.357 188.377 191.034 188.322C191.712 188.267 192.371 188.079 192.975 187.768C193.58 187.458 194.116 187.031 194.555 186.512C195.428 185.484 195.864 184.155 195.771 182.809C195.677 181.464 195.062 180.208 194.055 179.31H194.051Z" fill="#666538"/>
<path d="M140.034 211.876L146.545 201.879L153.056 191.882C154.771 189.166 157.181 186.958 160.036 185.485C162.435 184.197 165.162 183.646 167.873 183.902C170.585 184.158 173.16 185.209 175.277 186.923C176.251 187.665 177.13 188.523 177.895 189.479C178.501 190.265 179.024 191.111 179.459 192.003C180.202 193.522 180.639 195.173 180.744 196.861C180.855 199.336 180.325 201.799 179.205 204.009C178.408 205.68 177.305 207.187 175.953 208.452L150.222 231.15L124.484 253.848C123.71 254.53 122.718 254.913 121.687 254.93C120.656 254.948 119.653 254.597 118.856 253.942L117.371 252.719L115.89 251.492C115.035 250.786 114.483 249.779 114.347 248.679C114.211 247.578 114.502 246.468 115.159 245.575L127.599 228.727C131.741 223.107 135.886 217.49 140.034 211.876Z" fill="#FF6500"/>
<path d="M158.598 222.658C158.535 222.658 158.473 222.646 158.414 222.623C158.354 222.599 158.3 222.563 158.254 222.517L154.049 218.328L149.859 214.139C149.768 214.048 149.716 213.924 149.715 213.795C149.716 213.664 149.768 213.54 149.859 213.447C149.905 213.402 149.958 213.366 150.017 213.342C150.076 213.318 150.14 213.306 150.203 213.306C150.333 213.306 150.458 213.357 150.551 213.447L154.741 217.636L158.926 221.826C158.972 221.87 159.009 221.924 159.034 221.983C159.059 222.042 159.071 222.106 159.071 222.17C159.071 222.234 159.058 222.298 159.033 222.358C159.008 222.418 158.972 222.472 158.926 222.517C158.88 222.563 158.826 222.599 158.766 222.623C158.712 222.644 158.656 222.656 158.598 222.658Z" fill="#285152"/>
<path d="M171.61 212.782C171.547 212.782 171.485 212.77 171.427 212.747C171.367 212.723 171.312 212.687 171.266 212.642L166.307 207.741L161.344 202.848C161.252 202.757 161.2 202.633 161.199 202.504C161.199 202.44 161.211 202.376 161.235 202.317C161.259 202.257 161.295 202.203 161.34 202.158C161.385 202.112 161.438 202.075 161.497 202.05C161.556 202.025 161.62 202.012 161.684 202.012C161.814 202.011 161.939 202.061 162.032 202.152L166.991 207.045L171.954 211.942C172 211.987 172.036 212.041 172.06 212.1C172.085 212.159 172.097 212.222 172.097 212.286C172.097 212.35 172.085 212.413 172.06 212.472C172.036 212.531 172 212.585 171.954 212.63C171.909 212.679 171.853 212.716 171.79 212.739C171.734 212.767 171.673 212.781 171.61 212.782Z" fill="#285152"/>
<path d="M100.598 214.439L99.2458 222.603L97.8936 230.76C97.5816 232.718 97.6346 234.717 98.0499 236.657C98.7494 239.689 100.696 242.886 105.671 243.551H125.938V227.528L121.033 227.469L116.14 227.402L116.988 222.048L117.825 216.69L109.227 215.561L100.598 214.439Z" fill="#5FC6AA"/>
<path d="M120.471 244.047C120.407 244.047 120.344 244.034 120.285 244.009C120.225 243.984 120.172 243.948 120.127 243.902C120.081 243.858 120.045 243.804 120.02 243.745C119.995 243.686 119.982 243.622 119.982 243.558V227.453C119.982 227.389 119.995 227.326 120.02 227.266C120.045 227.207 120.081 227.154 120.127 227.109C120.172 227.063 120.226 227.027 120.285 227.002C120.345 226.977 120.408 226.964 120.473 226.964C120.537 226.964 120.601 226.977 120.66 227.002C120.72 227.027 120.774 227.063 120.819 227.109C120.909 227.201 120.959 227.325 120.959 227.453V243.558C120.959 243.688 120.908 243.812 120.816 243.904C120.725 243.995 120.6 244.047 120.471 244.047Z" fill="#D45131"/>
<path d="M125.938 227.52C126.867 227.601 127.804 227.532 128.712 227.316C130.785 226.86 132.635 225.696 133.945 224.026C134.338 223.565 134.785 223.154 135.278 222.803C136.059 222.271 136.997 221.908 137.759 222.568C138.082 222.85 138.285 223.244 138.33 223.67C138.379 224.1 138.285 224.535 138.06 224.905L136.622 227.269L135.184 229.614C135.02 230.078 134.966 230.572 135.024 231.06C135.133 231.787 135.626 232.526 137.154 232.573H145.505C146.018 232.519 146.537 232.589 147.018 232.776C147.194 232.834 147.356 232.93 147.491 233.058C147.626 233.185 147.732 233.341 147.799 233.515C147.824 233.597 147.835 233.683 147.834 233.769C147.833 233.902 147.808 234.035 147.76 234.159C147.884 234.24 147.995 234.337 148.092 234.449C148.278 234.66 148.388 234.926 148.405 235.207C148.416 235.487 148.332 235.762 148.167 235.988C147.995 236.231 147.751 236.414 147.471 236.512C147.505 236.607 147.529 236.705 147.541 236.805C147.549 236.883 147.549 236.962 147.541 237.04C147.48 237.427 147.27 237.775 146.955 238.009C146.56 238.313 146.102 238.527 145.615 238.634C143.681 239.491 141.701 240.236 139.682 240.866C135.233 242.319 130.622 243.218 125.953 243.543V227.52H125.938Z" fill="#FFAA9F"/>
<path d="M138.466 235.496C138.345 235.495 138.228 235.449 138.138 235.367C138.046 235.286 137.989 235.173 137.978 235.05C137.968 234.921 138.009 234.793 138.093 234.694C138.176 234.595 138.295 234.532 138.424 234.519L143.062 234.101L147.701 233.683C147.765 233.676 147.83 233.683 147.891 233.701C147.953 233.72 148.01 233.751 148.06 233.792C148.109 233.833 148.15 233.884 148.18 233.941C148.209 233.998 148.227 234.06 148.233 234.124C148.246 234.254 148.207 234.384 148.125 234.486C148.043 234.587 147.925 234.653 147.795 234.667L143.148 235.058L138.509 235.476H138.466V235.496Z" fill="#D45131"/>
<path d="M138.684 238.157C138.567 238.155 138.454 238.113 138.364 238.036C138.276 237.957 138.219 237.849 138.204 237.731C138.195 237.668 138.199 237.603 138.216 237.541C138.232 237.479 138.261 237.42 138.3 237.369C138.339 237.319 138.388 237.276 138.444 237.244C138.5 237.212 138.562 237.192 138.626 237.184L143.007 236.622L147.403 236.043C147.532 236.029 147.662 236.064 147.767 236.141C147.868 236.22 147.934 236.337 147.95 236.465C147.959 236.529 147.955 236.594 147.939 236.657C147.922 236.719 147.893 236.778 147.853 236.829C147.814 236.88 147.765 236.922 147.709 236.954C147.654 236.985 147.592 237.005 147.528 237.012L143.147 237.583L138.763 238.154H138.696L138.684 238.157Z" fill="#D45131"/>
<path d="M162.106 218.297H148.311C148.096 218.297 147.883 218.32 147.674 218.367C147.464 218.412 147.263 218.487 147.076 218.59C146.744 218.766 146.467 219.028 146.271 219.348C146.01 219.809 145.896 220.337 145.942 220.864C145.498 220.822 145.054 220.952 144.703 221.228C144.377 221.468 144.155 221.824 144.082 222.223C144.01 222.622 144.092 223.033 144.313 223.373C144.524 223.704 144.838 223.955 145.208 224.088C145.145 224.529 145.176 224.978 145.297 225.405C145.497 226.078 146.02 226.765 147.294 226.844C147.353 227.306 147.496 227.754 147.716 228.165C147.914 228.568 148.226 228.904 148.613 229.131C149 229.359 149.445 229.469 149.893 229.446H161.7C163.88 229.462 166.034 228.975 167.995 228.024C169.922 227.047 171.513 225.527 172.161 223.358C172.477 222.332 172.61 221.259 172.552 220.188C172.507 219.12 172.241 218.073 171.771 217.113C171.132 215.893 170.097 214.928 168.836 214.377C167.575 213.839 166.257 213.445 164.908 213.205C164.201 213.056 163.501 212.884 162.794 212.728C162.086 212.571 161.383 212.435 160.664 212.337C160.275 212.288 159.883 212.26 159.491 212.251C159.097 212.24 158.702 212.283 158.319 212.38C158.153 212.424 157.999 212.505 157.869 212.617C157.739 212.73 157.636 212.87 157.569 213.029C157.436 213.351 157.423 213.71 157.534 214.041C157.688 214.487 157.995 214.863 158.401 215.104C158.805 215.351 159.236 215.549 159.687 215.694C160.234 215.885 160.793 216.046 161.36 216.19C161.926 216.335 162.501 216.452 163.067 216.581C163.355 216.629 163.631 216.736 163.876 216.894C164.002 216.968 164.099 217.083 164.15 217.219C164.201 217.356 164.204 217.506 164.158 217.644C164.052 218.004 163.689 218.168 163.278 218.242C162.891 218.305 162.498 218.324 162.106 218.297Z" fill="#FFAA9F"/>
<path d="M157.566 227.332H147.307C147.243 227.333 147.18 227.321 147.121 227.298C147.061 227.274 147.007 227.239 146.962 227.194C146.916 227.149 146.88 227.096 146.856 227.037C146.831 226.978 146.818 226.915 146.818 226.851C146.818 226.722 146.87 226.597 146.961 226.506C147.053 226.414 147.177 226.363 147.307 226.363H157.566C157.63 226.363 157.693 226.376 157.752 226.401C157.811 226.425 157.865 226.462 157.909 226.507C157.955 226.552 157.992 226.606 158.017 226.665C158.042 226.724 158.054 226.787 158.054 226.851C158.054 226.916 158.041 226.98 158.017 227.04C157.992 227.099 157.955 227.154 157.909 227.199C157.816 227.286 157.693 227.333 157.566 227.332Z" fill="#D45131"/>
<path d="M157.347 224.565H145.232C145.135 224.565 145.04 224.537 144.959 224.483C144.879 224.429 144.816 224.352 144.779 224.262C144.742 224.173 144.733 224.074 144.752 223.979C144.771 223.884 144.819 223.797 144.888 223.729C144.98 223.639 145.103 223.589 145.232 223.588H157.347C157.443 223.588 157.537 223.616 157.618 223.67C157.698 223.723 157.761 223.799 157.798 223.888C157.835 223.977 157.845 224.075 157.827 224.17C157.808 224.265 157.762 224.352 157.694 224.421C157.649 224.466 157.595 224.503 157.535 224.528C157.475 224.553 157.411 224.565 157.347 224.565Z" fill="#D45131"/>
<path d="M157.026 221.357H145.943C145.878 221.357 145.814 221.344 145.754 221.319C145.694 221.294 145.64 221.258 145.595 221.212C145.527 221.144 145.481 221.056 145.462 220.962C145.444 220.867 145.454 220.769 145.491 220.68C145.528 220.591 145.591 220.515 145.671 220.461C145.752 220.408 145.846 220.379 145.943 220.38H157.026C157.154 220.38 157.278 220.431 157.37 220.52C157.437 220.589 157.482 220.676 157.501 220.771C157.519 220.865 157.509 220.963 157.473 221.052C157.436 221.141 157.374 221.217 157.295 221.271C157.216 221.325 157.122 221.355 157.026 221.357Z" fill="#D45131"/>
<path d="M123.413 194.602L122.647 199.061L121.885 203.52L126.477 201.289L131.065 199.061L127.239 196.83L123.413 194.602Z" fill="#FF6500"/>
<path d="M131.064 199.061L134.699 197.939L138.33 196.818L138.603 201.347L138.881 205.873L134.973 202.465L131.064 199.061Z" fill="#FF6500"/>
<path d="M237.613 331.919H251.315C251.789 331.92 252.256 332.038 252.673 332.263C253.091 332.488 253.446 332.813 253.707 333.209L256.868 338.024L260.034 342.839C260.099 342.952 260.2 343.04 260.321 343.089C260.442 343.139 260.576 343.146 260.701 343.111C260.827 343.075 260.937 342.999 261.015 342.894C261.092 342.788 261.132 342.66 261.128 342.53V307.162C261.127 306.568 260.891 305.999 260.471 305.58C260.051 305.16 259.482 304.924 258.889 304.923H237.613V331.919Z" fill="#FF6500"/>
<path d="M203.291 227.535C205.504 228.681 207.94 229.333 210.431 229.446C212.165 229.53 213.903 229.371 215.593 228.973C215.62 228.755 215.64 228.532 215.656 228.309C215.671 228.086 215.656 227.86 215.656 227.633C215.656 225.336 214.959 223.094 213.656 221.202C212.353 219.311 210.506 217.86 208.36 217.042C206.214 216.223 203.87 216.076 201.639 216.62C199.408 217.164 197.394 218.373 195.865 220.086C196.606 221.493 197.525 222.797 198.601 223.967C199.945 225.42 201.532 226.627 203.291 227.535Z" fill="#D45131"/>
<path d="M125.936 228.024L120.747 227.961L115.557 227.899L116.452 222.267L117.347 216.636C117.356 216.573 117.378 216.512 117.412 216.457C117.445 216.403 117.489 216.356 117.542 216.319C117.647 216.243 117.777 216.21 117.905 216.229C118.032 216.251 118.146 216.321 118.222 216.425C118.299 216.529 118.331 216.66 118.312 216.788L117.507 221.869L116.702 226.949L121.325 227.004L125.948 227.059C126.012 227.059 126.076 227.071 126.135 227.096C126.194 227.121 126.247 227.158 126.292 227.204C126.337 227.25 126.372 227.304 126.396 227.364C126.419 227.423 126.43 227.487 126.429 227.551C126.429 227.615 126.416 227.678 126.391 227.736C126.367 227.794 126.33 227.847 126.284 227.891C126.238 227.935 126.183 227.969 126.124 227.992C126.064 228.015 126 228.026 125.936 228.024Z" fill="#D45131"/>
<path d="M132.944 209.539L132.83 209.488L132.717 209.441C131.173 208.774 129.726 207.9 128.418 206.842C125.017 204.102 122.767 200.186 122.111 195.868C121.891 194.426 121.847 192.963 121.978 191.511C121.984 191.447 122.002 191.384 122.032 191.327C122.063 191.27 122.104 191.22 122.154 191.179C122.203 191.138 122.259 191.107 122.32 191.088C122.382 191.069 122.446 191.063 122.509 191.069C122.638 191.08 122.758 191.142 122.841 191.241C122.925 191.34 122.966 191.468 122.955 191.597C122.827 192.97 122.867 194.353 123.076 195.716C123.683 199.725 125.748 203.37 128.876 205.951C130.093 206.959 131.442 207.797 132.885 208.44C134.372 207.509 135.726 206.381 136.91 205.087C139.712 202.087 141.354 198.187 141.542 194.086C141.612 192.602 141.5 191.115 141.209 189.658C141.196 189.595 141.195 189.531 141.207 189.468C141.219 189.404 141.244 189.344 141.28 189.291C141.316 189.238 141.362 189.192 141.415 189.156C141.469 189.121 141.529 189.096 141.592 189.084C141.719 189.058 141.851 189.084 141.96 189.154C142.066 189.228 142.141 189.34 142.167 189.467C142.473 191.004 142.59 192.572 142.515 194.137C142.446 195.683 142.183 197.214 141.733 198.694C140.88 201.402 139.42 203.88 137.465 205.939C136.196 207.285 134.75 208.452 133.167 209.41L133.061 209.472L132.944 209.539Z" fill="#285152"/>
<path d="M130.654 213.611C130.611 213.615 130.568 213.615 130.525 213.611C130.482 213.598 130.442 213.58 130.404 213.556C130.349 213.524 130.301 213.481 130.262 213.43C130.224 213.379 130.196 213.321 130.181 213.259C130.165 213.197 130.162 213.132 130.171 213.068C130.181 213.004 130.203 212.943 130.236 212.888L131.381 210.985L132.507 209.093C132.556 209.013 132.623 208.945 132.702 208.894C132.782 208.842 132.873 208.811 132.968 208.804C133.062 208.795 133.157 208.808 133.245 208.843C133.332 208.879 133.409 208.933 133.472 209.003L135.008 210.731L136.544 212.462C136.629 212.56 136.674 212.687 136.669 212.818C136.663 212.914 136.629 213.008 136.57 213.085C136.511 213.162 136.431 213.22 136.339 213.252C136.247 213.283 136.148 213.287 136.054 213.261C135.961 213.236 135.877 213.184 135.813 213.111L134.449 211.575L133.061 210.047L132.069 211.715L131.072 213.384C131.03 213.458 130.968 213.519 130.893 213.56C130.818 213.596 130.737 213.613 130.654 213.611Z" fill="#285152"/>
<path d="M142.324 188.517C142.325 190.959 141.48 193.325 139.932 195.213C138.384 197.102 136.228 198.394 133.834 198.871C131.439 199.348 128.953 198.98 126.8 197.829C124.646 196.679 122.959 194.817 122.024 192.561C121.09 190.305 120.966 187.795 121.675 185.459C122.384 183.123 123.882 181.104 125.912 179.748C127.942 178.392 130.38 177.782 132.81 178.022C135.24 178.262 137.511 179.337 139.237 181.065C140.217 182.043 140.994 183.204 141.524 184.483C142.053 185.762 142.325 187.133 142.324 188.517Z" fill="#FFAA9F"/>
<path d="M129.819 190.03C129.819 190.176 129.775 190.319 129.693 190.441C129.611 190.562 129.496 190.657 129.36 190.713C129.225 190.769 129.076 190.784 128.932 190.755C128.789 190.727 128.657 190.657 128.553 190.553C128.484 190.485 128.43 190.403 128.393 190.313C128.356 190.223 128.337 190.127 128.338 190.03C128.337 189.933 128.356 189.836 128.393 189.746C128.43 189.657 128.484 189.575 128.553 189.506C128.622 189.438 128.703 189.383 128.793 189.346C128.883 189.309 128.979 189.291 129.077 189.291C129.174 189.291 129.27 189.309 129.36 189.346C129.45 189.383 129.532 189.437 129.601 189.506C129.67 189.575 129.725 189.656 129.762 189.746C129.8 189.836 129.819 189.932 129.819 190.03Z" fill="#285152"/>
<path d="M136.072 189.291C136.07 189.437 136.026 189.579 135.945 189.699C135.863 189.82 135.748 189.914 135.614 189.97C135.479 190.026 135.331 190.041 135.188 190.013C135.045 189.986 134.913 189.917 134.809 189.815C134.74 189.746 134.685 189.665 134.647 189.575C134.609 189.485 134.59 189.388 134.59 189.291C134.59 189.193 134.609 189.097 134.647 189.007C134.685 188.917 134.74 188.836 134.809 188.767C134.878 188.698 134.959 188.643 135.049 188.605C135.139 188.568 135.235 188.548 135.333 188.548C135.529 188.55 135.717 188.628 135.857 188.767C135.995 188.907 136.072 189.095 136.072 189.291Z" fill="#285152"/>
<path d="M132.492 194.923C131.828 194.915 131.178 194.74 130.6 194.415C130.32 194.26 130.057 194.073 129.819 193.86C129.727 193.768 129.674 193.645 129.67 193.516C129.668 193.452 129.68 193.388 129.703 193.328C129.727 193.268 129.762 193.214 129.807 193.168C129.85 193.121 129.903 193.084 129.962 193.059C130.02 193.033 130.083 193.02 130.147 193.019C130.212 193.018 130.276 193.029 130.336 193.052C130.397 193.076 130.452 193.111 130.499 193.156C130.733 193.361 130.997 193.531 131.28 193.66C131.79 193.924 132.372 194.012 132.936 193.913C133.501 193.813 134.018 193.531 134.407 193.109C134.603 192.905 134.769 192.673 134.899 192.421C134.958 192.307 135.059 192.219 135.18 192.175C135.244 192.154 135.311 192.145 135.379 192.149C135.446 192.154 135.511 192.172 135.571 192.203C135.686 192.262 135.773 192.365 135.814 192.488C135.834 192.548 135.843 192.613 135.838 192.676C135.833 192.74 135.816 192.802 135.786 192.859C135.605 193.215 135.37 193.54 135.091 193.824C134.629 194.3 134.047 194.641 133.406 194.809C133.259 194.85 133.108 194.88 132.957 194.899C132.802 194.916 132.647 194.924 132.492 194.923Z" fill="#D45131"/>
<path d="M127.661 188.205C128.93 187.879 130.093 187.228 131.034 186.317C131.563 185.818 132.02 185.249 132.394 184.625C132.867 184.738 133.354 184.784 133.84 184.762C134.717 184.741 135.57 184.47 136.298 183.98C136.889 183.568 137.374 183.022 137.713 182.385C138.059 181.733 138.264 181.016 138.314 180.279C136.87 179.121 135.143 178.368 133.312 178.098C131.48 177.828 129.609 178.051 127.892 178.744C126.176 179.437 124.674 180.575 123.543 182.04C122.411 183.506 121.691 185.247 121.455 187.083C122.238 187.582 123.094 187.956 123.991 188.193C125.194 188.509 126.457 188.513 127.661 188.205Z" fill="#D45131"/>
<path d="M220.876 319.726C220.813 319.726 220.751 319.714 220.692 319.691C220.632 319.667 220.578 319.631 220.532 319.586L213.279 312.438L206.025 305.27C205.979 305.226 205.943 305.172 205.918 305.113C205.893 305.054 205.88 304.991 205.881 304.927C205.881 304.797 205.931 304.672 206.022 304.579C206.113 304.487 206.236 304.435 206.365 304.434C206.495 304.434 206.62 304.485 206.713 304.575L213.955 311.734L221.197 318.89C221.288 318.982 221.341 319.105 221.345 319.234C221.346 319.299 221.333 319.363 221.308 319.423C221.283 319.482 221.247 319.536 221.2 319.582C221.155 319.629 221.1 319.666 221.04 319.691C220.988 319.712 220.932 319.724 220.876 319.726Z" fill="#285152"/>
<path d="M224.101 281.783C223.986 281.782 223.876 281.742 223.788 281.67C223.699 281.597 223.639 281.494 223.62 281.38L222.002 272.294L220.388 263.196C220.375 263.133 220.376 263.069 220.389 263.006C220.403 262.944 220.429 262.885 220.466 262.833C220.502 262.779 220.549 262.733 220.603 262.699C220.658 262.664 220.719 262.64 220.783 262.629C220.846 262.618 220.91 262.619 220.973 262.633C221.035 262.647 221.094 262.674 221.146 262.712C221.199 262.748 221.244 262.794 221.279 262.848C221.314 262.901 221.338 262.961 221.349 263.024L222.963 272.11L224.581 281.197C224.602 281.323 224.573 281.453 224.5 281.559C224.427 281.664 224.316 281.738 224.19 281.763H224.104L224.101 281.783Z" fill="#666538"/>
<path d="M196.715 281.056C196.081 281.065 195.452 280.946 194.865 280.705C194.278 280.465 193.746 280.108 193.3 279.657C191.232 277.617 190.494 273.674 190.279 270.176C190.147 267.912 190.187 265.642 190.4 263.384C190.405 263.32 190.423 263.258 190.454 263.201C190.484 263.145 190.525 263.095 190.576 263.056C190.677 262.974 190.806 262.935 190.935 262.946C191.064 262.96 191.182 263.025 191.264 263.126C191.304 263.176 191.334 263.233 191.352 263.295C191.37 263.357 191.376 263.421 191.369 263.485C191.183 265.606 191.143 267.737 191.248 269.863C191.428 273.248 192.084 277.089 193.984 278.961C194.404 279.387 194.92 279.707 195.488 279.895C196.08 280.077 196.704 280.128 197.317 280.044C197.381 280.036 197.446 280.04 197.508 280.057C197.57 280.074 197.627 280.104 197.678 280.143C197.729 280.183 197.771 280.232 197.802 280.288C197.833 280.344 197.853 280.406 197.86 280.47C197.869 280.533 197.865 280.598 197.848 280.659C197.831 280.721 197.802 280.779 197.763 280.829C197.682 280.931 197.564 280.997 197.434 281.013C197.313 281.013 197.192 281.037 197.071 281.044L196.715 281.056Z" fill="#666538"/>
<path d="M196.286 293.386L196.696 293.234C196.833 293.179 196.97 293.12 197.111 293.054C197.829 292.719 198.498 292.288 199.1 291.772C200.068 290.964 200.721 289.84 200.944 288.599C201.13 287.36 200.884 286.095 200.249 285.015C199.625 283.921 198.693 283.034 197.568 282.467C196.559 281.972 195.432 281.766 194.312 281.873C193.176 281.981 192.087 282.386 191.155 283.045C191.767 282.466 192.286 281.797 192.695 281.06C193.226 280.098 193.495 279.013 193.476 277.914C193.432 276.414 192.881 274.973 191.913 273.826C190.903 272.611 189.535 271.744 188.005 271.348C187.246 271.216 186.473 271.187 185.707 271.263C184.322 271.367 183.008 271.915 181.959 272.826C180.767 273.956 180.036 275.487 179.907 277.125C179.754 278.96 180.209 280.794 181.201 282.346C179.812 281.611 178.216 281.368 176.672 281.658C175.21 281.923 173.895 282.711 172.971 283.874C172.266 284.791 171.839 285.891 171.74 287.043C171.629 288.236 171.868 289.435 172.427 290.494C172.781 291.164 173.257 291.762 173.83 292.257C174.395 292.745 175.042 293.129 175.741 293.39H175.128C174.328 293.39 173.535 293.548 172.796 293.854C172.057 294.16 171.385 294.609 170.82 295.174C170.254 295.74 169.805 296.412 169.499 297.151C169.193 297.89 169.035 298.682 169.035 299.483C169.035 300.283 169.192 301.076 169.498 301.815C169.804 302.555 170.252 303.227 170.818 303.793C171.384 304.359 172.056 304.809 172.795 305.115C173.535 305.421 174.327 305.579 175.128 305.579H181.236V331.923H190.029V305.567H196.138C196.938 305.567 197.731 305.41 198.47 305.103C199.209 304.797 199.881 304.348 200.447 303.782C201.013 303.215 201.462 302.543 201.768 301.804C202.074 301.064 202.231 300.271 202.23 299.471C202.231 297.881 201.609 296.354 200.498 295.217C199.387 294.08 197.875 293.423 196.286 293.386Z" fill="#DDC4A3"/>
<path d="M261.129 187.114H249.951C249.875 187.114 249.798 187.099 249.727 187.07C249.656 187.04 249.591 186.997 249.537 186.942C249.482 186.889 249.438 186.824 249.409 186.753C249.379 186.682 249.364 186.605 249.365 186.528C249.364 186.451 249.379 186.374 249.409 186.303C249.438 186.232 249.482 186.168 249.537 186.114C249.591 186.059 249.656 186.016 249.727 185.986C249.798 185.957 249.875 185.942 249.951 185.942H261.129C261.284 185.942 261.433 186.004 261.543 186.114C261.653 186.224 261.715 186.373 261.715 186.528C261.714 186.683 261.652 186.832 261.543 186.942C261.489 186.997 261.424 187.04 261.353 187.07C261.282 187.099 261.206 187.114 261.129 187.114Z" fill="#666538"/>
<path d="M285.886 195.454C285.886 197.695 285.108 199.867 283.686 201.6C282.264 203.333 280.286 204.518 278.087 204.956C275.889 205.393 273.607 205.054 271.63 203.997C269.654 202.941 268.105 201.231 267.247 199.16C266.389 197.09 266.276 194.786 266.927 192.641C267.578 190.496 268.952 188.643 270.816 187.398C272.68 186.153 274.917 185.592 277.148 185.812C279.379 186.032 281.464 187.018 283.049 188.603C283.949 189.503 284.663 190.571 285.15 191.746C285.636 192.922 285.887 194.182 285.886 195.454Z" fill="#5FC6AA"/>
<path d="M318.003 175.984C318.003 178.226 317.226 180.398 315.804 182.13C314.382 183.863 312.403 185.048 310.204 185.486C308.006 185.923 305.724 185.584 303.748 184.527C301.771 183.471 300.222 181.761 299.364 179.69C298.507 177.62 298.394 175.316 299.044 173.171C299.695 171.026 301.069 169.173 302.933 167.928C304.797 166.683 307.035 166.122 309.265 166.342C311.496 166.562 313.581 167.548 315.166 169.133C316.066 170.032 316.78 171.1 317.267 172.276C317.754 173.452 318.004 174.712 318.003 175.984Z" fill="#5FC6AA"/>
<path d="M276.968 157.339C276.968 159.58 276.191 161.752 274.768 163.485C273.346 165.217 271.368 166.403 269.169 166.84C266.971 167.277 264.689 166.939 262.712 165.882C260.736 164.825 259.187 163.116 258.329 161.045C257.471 158.974 257.358 156.67 258.009 154.525C258.66 152.38 260.034 150.528 261.898 149.282C263.762 148.037 265.999 147.477 268.23 147.697C270.461 147.916 272.546 148.903 274.131 150.488C275.031 151.387 275.745 152.455 276.232 153.63C276.719 154.806 276.969 156.066 276.968 157.339Z" fill="#5FC6AA"/>
<path d="M251.827 293.386L252.218 293.234C252.355 293.179 252.495 293.12 252.636 293.054C253.354 292.718 254.023 292.287 254.625 291.772C255.594 290.966 256.249 289.846 256.478 288.606C256.662 287.367 256.415 286.102 255.778 285.023C255.155 283.928 254.223 283.041 253.097 282.475C252.089 281.979 250.964 281.773 249.846 281.881C248.708 281.99 247.618 282.394 246.684 283.053C247.297 282.475 247.817 281.806 248.224 281.068C248.755 280.106 249.025 279.021 249.005 277.922C248.961 276.422 248.41 274.981 247.442 273.834C246.432 272.618 245.065 271.752 243.534 271.356C242.776 271.224 242.003 271.195 241.236 271.27C239.853 271.375 238.54 271.923 237.492 272.834C236.301 273.964 235.57 275.495 235.441 277.132C235.293 278.966 235.751 280.798 236.746 282.346C235.356 281.605 233.757 281.359 232.209 281.646C230.747 281.912 229.432 282.699 228.508 283.862C227.802 284.779 227.373 285.879 227.273 287.032C227.165 288.224 227.405 289.423 227.964 290.482C228.317 291.152 228.791 291.75 229.364 292.245C229.929 292.733 230.576 293.116 231.275 293.378H230.665C229.049 293.378 227.499 294.02 226.355 295.162C225.212 296.305 224.569 297.855 224.568 299.471C224.568 301.088 225.211 302.638 226.354 303.782C227.497 304.925 229.048 305.567 230.665 305.567H236.781V331.912H245.57V305.567H251.679C253.295 305.567 254.846 304.925 255.99 303.782C257.133 302.638 257.775 301.088 257.775 299.471C257.776 297.881 257.153 296.353 256.042 295.216C254.93 294.079 253.417 293.422 251.827 293.386Z" fill="#DDC4A3"/>
<path d="M145.892 293.386L146.282 293.234C146.423 293.179 146.56 293.12 146.701 293.054C147.418 292.718 148.087 292.287 148.69 291.772C149.66 290.967 150.315 289.846 150.542 288.606C150.726 287.367 150.479 286.102 149.843 285.023C149.221 283.927 148.288 283.04 147.162 282.475C146.154 281.979 145.028 281.773 143.91 281.881C142.772 281.99 141.683 282.394 140.749 283.053C141.362 282.475 141.883 281.805 142.292 281.068C142.822 280.105 143.091 279.021 143.074 277.922C143.029 276.422 142.478 274.981 141.511 273.834C140.5 272.618 139.133 271.751 137.603 271.356C136.845 271.224 136.074 271.195 135.309 271.27C133.923 271.374 132.609 271.922 131.561 272.833C130.369 273.964 129.638 275.495 129.509 277.132C129.359 278.965 129.815 280.797 130.806 282.346C129.418 281.611 127.821 281.368 126.277 281.658C124.815 281.923 123.5 282.711 122.576 283.874C121.87 284.791 121.442 285.89 121.341 287.043C121.233 288.236 121.474 289.435 122.033 290.494C122.387 291.164 122.862 291.762 123.436 292.257C123.999 292.744 124.645 293.128 125.343 293.39H124.737C123.121 293.39 121.571 294.032 120.428 295.174C119.284 296.317 118.642 297.866 118.641 299.483C118.641 301.099 119.283 302.65 120.426 303.793C121.57 304.937 123.12 305.579 124.737 305.579H130.846V331.923H139.639V305.567H145.747C147.363 305.566 148.913 304.924 150.055 303.78C151.198 302.637 151.84 301.087 151.84 299.471C151.84 297.881 151.218 296.354 150.107 295.217C148.997 294.08 147.485 293.423 145.895 293.386H145.892Z" fill="#DDC4A3"/>
<path d="M300.451 275.979H272.653C272.589 275.979 272.525 275.966 272.466 275.942C272.407 275.917 272.354 275.88 272.309 275.835C272.263 275.79 272.227 275.737 272.202 275.678C272.177 275.618 272.164 275.555 272.164 275.491C272.164 275.427 272.177 275.363 272.202 275.304C272.227 275.245 272.263 275.192 272.309 275.147C272.354 275.101 272.407 275.065 272.466 275.04C272.525 275.016 272.589 275.003 272.653 275.002H300.451C300.515 275.003 300.578 275.016 300.637 275.04C300.696 275.065 300.75 275.101 300.795 275.147C300.841 275.192 300.877 275.245 300.902 275.304C300.927 275.363 300.94 275.427 300.94 275.491C300.94 275.555 300.927 275.618 300.902 275.678C300.877 275.737 300.841 275.79 300.795 275.835C300.75 275.88 300.696 275.917 300.637 275.942C300.578 275.966 300.515 275.979 300.451 275.979Z" fill="#285152"/>
<path d="M52.0478 273.068C51.9809 273.067 51.9147 273.054 51.8524 273.029C51.7907 273.001 51.735 272.961 51.6883 272.912C51.644 272.865 51.6097 272.81 51.5875 272.749C51.5653 272.689 51.5557 272.624 51.5593 272.56C51.5632 272.431 51.618 272.309 51.7117 272.22L71.0723 254.208L90.4172 236.231C90.5135 236.144 90.6394 236.098 90.7689 236.102C90.8331 236.103 90.8963 236.118 90.9548 236.144C91.0133 236.17 91.066 236.208 91.1097 236.255C91.1534 236.302 91.1873 236.357 91.2093 236.417C91.2313 236.478 91.241 236.542 91.2379 236.606C91.2364 236.67 91.2221 236.733 91.1959 236.791C91.1698 236.85 91.1322 236.902 91.0855 236.946L71.7406 254.95L52.3957 272.951C52.3496 272.994 52.2951 273.028 52.2354 273.049C52.1751 273.069 52.111 273.075 52.0478 273.068Z" fill="#666538"/>
<path d="M176.542 245.067C176.497 245.066 176.452 245.059 176.409 245.047C176.363 245.036 176.319 245.016 176.28 244.989C176.171 244.917 176.094 244.807 176.065 244.68C176.039 244.553 176.063 244.422 176.132 244.312L195.75 213.998L215.365 183.687C215.399 183.632 215.444 183.586 215.497 183.549C215.55 183.513 215.61 183.488 215.673 183.476C215.736 183.462 215.801 183.46 215.864 183.471C215.927 183.483 215.987 183.507 216.041 183.542C216.095 183.577 216.141 183.622 216.177 183.675C216.214 183.728 216.239 183.788 216.252 183.851C216.266 183.913 216.267 183.978 216.256 184.041C216.245 184.104 216.221 184.165 216.185 184.218L196.571 214.529L176.952 244.828C176.908 244.898 176.846 244.954 176.773 244.992C176.704 245.037 176.624 245.063 176.542 245.067Z" fill="#666538"/>
<path d="M152.168 70.9509C151.055 69.0236 149.398 67.4681 147.404 66.4801C145.424 65.5005 143.217 65.0738 141.014 65.2452C141.147 64.711 141.247 64.1694 141.315 63.6233C141.383 63.0644 141.417 62.5019 141.417 61.9389C141.412 58.9883 140.453 56.1185 138.683 53.7577C136.913 51.3968 134.427 49.6716 131.596 48.8395C128.765 48.0074 125.741 48.113 122.975 49.1405C120.209 50.1681 117.85 52.0625 116.249 54.541C115.561 50.7879 113.427 47.4549 110.307 45.259C107.186 43.063 103.329 42.1796 99.5635 42.7988C95.7985 43.4179 92.4268 45.4901 90.174 48.5697C87.9211 51.6492 86.967 55.49 87.5169 59.2658C87.6265 59.9848 87.7911 60.6942 88.0093 61.3879C85.9275 60.4677 83.6488 60.0815 81.38 60.2645C79.1112 60.4474 76.9239 61.1937 75.0164 62.4356C73.1088 63.6776 71.5414 65.3759 70.4561 67.3767C69.3708 69.3775 68.802 71.6175 68.8012 73.8937C68.7992 74.9288 68.9159 75.9608 69.149 76.9693C69.3718 77.9465 69.7035 78.8956 70.1378 79.7988C67.5989 80.1326 65.228 81.2521 63.357 83.0005C61.486 84.7489 60.2087 87.0387 59.7038 89.5492C59.199 92.0596 59.4919 94.6652 60.5415 97.0009C61.5912 99.3366 63.3451 101.286 65.5575 102.575C64.1665 103.681 63.0322 105.075 62.2329 106.662C61.4337 108.25 60.9885 109.991 60.9282 111.767C60.8679 113.543 61.1939 115.311 61.8837 116.949C62.5735 118.586 63.6106 120.055 64.9234 121.252C66.2362 122.45 67.7933 123.348 69.4873 123.885C71.1812 124.422 72.9715 124.585 74.7345 124.362C76.4975 124.14 78.1911 123.537 79.6983 122.596C81.2056 121.654 82.4905 120.397 83.4643 118.911C84.8165 122.088 88.1969 124.233 92.6365 125.128C97.076 126.023 102.579 125.668 108.171 123.843C113.298 122.174 117.636 119.544 120.677 116.546C123.717 113.549 125.468 110.164 125.417 106.987C127.518 108.055 129.854 108.579 132.209 108.511C134.685 108.439 137.103 107.75 139.244 106.506C142.39 104.71 144.763 101.815 145.907 98.3777C147.019 95.064 146.786 91.4464 145.259 88.3027C145.606 88.1777 145.95 88.0331 146.29 87.8767C146.63 87.7204 146.966 87.5446 147.299 87.3531C150.126 85.7372 152.224 83.0973 153.161 79.9785C153.62 78.4857 153.769 76.9146 153.598 75.3621C153.427 73.8095 152.941 72.3084 152.168 70.9509Z" fill="#F1DFC6"/>
<path d="M131.582 75.6954C133.344 79.7715 131.867 84.7895 128.064 89.6081C124.262 94.4268 118.095 99.0578 110.517 102.325C102.939 105.592 95.3577 106.917 89.2377 106.397C83.1177 105.877 78.4475 103.513 76.6694 99.4486C74.8912 95.3842 76.3841 90.3546 80.1866 85.5359C83.9892 80.7173 90.1483 76.098 97.726 72.8191C105.304 69.5402 112.885 68.2232 119.005 68.7469C125.125 69.2706 129.819 71.6193 131.582 75.6954Z" fill="#FF6500"/>
<path d="M183.316 183.753L181.62 182.26L179.924 180.768L179.654 184.574L179.385 188.38L181.339 186.067C181.998 185.293 182.657 184.522 183.316 183.753Z" fill="#285152"/>
<path d="M181.893 169.95C181.832 169.95 181.771 169.938 181.714 169.915C181.656 169.89 181.604 169.856 181.557 169.813L180.991 169.27L180.428 168.731C180.381 168.686 180.344 168.633 180.318 168.574C180.293 168.515 180.28 168.451 180.279 168.387C180.276 168.258 180.324 168.133 180.412 168.039C180.457 167.992 180.51 167.955 180.569 167.93C180.628 167.904 180.692 167.891 180.756 167.891C180.885 167.888 181.01 167.935 181.104 168.023L181.667 168.567L182.233 169.106C182.28 169.15 182.317 169.204 182.343 169.263C182.368 169.322 182.382 169.385 182.382 169.45C182.385 169.579 182.337 169.704 182.249 169.798C182.201 169.846 182.144 169.884 182.081 169.911C182.022 169.936 181.958 169.949 181.893 169.95Z" fill="#285152"/>
<path d="M196.825 170.528H196.755L195.973 170.415L195.192 170.302C195.128 170.293 195.067 170.271 195.012 170.238C194.957 170.205 194.909 170.162 194.87 170.11C194.832 170.059 194.805 170 194.789 169.937C194.774 169.875 194.771 169.81 194.781 169.747C194.801 169.619 194.87 169.503 194.974 169.426C195.078 169.348 195.208 169.315 195.336 169.333L196.118 169.446L196.899 169.559C197.028 169.579 197.143 169.648 197.221 169.752C197.298 169.856 197.332 169.986 197.314 170.114C197.296 170.232 197.237 170.339 197.146 170.415C197.056 170.491 196.942 170.531 196.825 170.528Z" fill="#285152"/>
<path d="M159.687 290.905C159.644 290.91 159.601 290.91 159.558 290.905C159.516 290.892 159.476 290.875 159.437 290.854C159.381 290.821 159.333 290.778 159.295 290.726C159.257 290.674 159.229 290.615 159.214 290.553C159.196 290.488 159.191 290.419 159.199 290.352C159.208 290.285 159.231 290.22 159.265 290.162C159.265 290.162 159.468 289.822 159.703 289.349C159.974 288.831 160.196 288.29 160.367 287.731C160.403 287.606 160.488 287.501 160.602 287.438C160.66 287.404 160.725 287.383 160.792 287.375C160.86 287.368 160.928 287.375 160.992 287.395C161.116 287.431 161.221 287.514 161.285 287.626C161.318 287.685 161.339 287.75 161.346 287.817C161.353 287.884 161.347 287.952 161.328 288.016C161.142 288.624 160.901 289.214 160.609 289.779C160.355 290.287 160.144 290.647 160.125 290.678C160.081 290.751 160.019 290.812 159.945 290.854C159.866 290.895 159.776 290.912 159.687 290.905Z" fill="#285152"/>
<path d="M128.412 293.867H124.739C124.674 293.867 124.611 293.855 124.552 293.83C124.493 293.805 124.439 293.768 124.395 293.722C124.349 293.678 124.312 293.624 124.287 293.565C124.262 293.506 124.25 293.442 124.25 293.378C124.252 293.25 124.304 293.128 124.396 293.038C124.487 292.948 124.61 292.898 124.739 292.898H128.416C128.546 292.898 128.67 292.949 128.761 293.041C128.853 293.132 128.905 293.257 128.905 293.386C128.903 293.515 128.852 293.639 128.76 293.731C128.669 293.822 128.545 293.874 128.416 293.875L128.412 293.867Z" fill="#666538"/>
<path d="M139.616 284.433C139.54 284.435 139.465 284.419 139.397 284.385C139.329 284.352 139.27 284.302 139.225 284.241C139.146 284.139 139.111 284.01 139.127 283.881C139.143 283.753 139.209 283.637 139.311 283.557L140.093 282.959L140.874 282.365C140.925 282.326 140.983 282.297 141.044 282.28C141.106 282.264 141.17 282.259 141.234 282.267C141.298 282.275 141.36 282.296 141.415 282.328C141.471 282.36 141.52 282.403 141.558 282.455C141.597 282.506 141.626 282.563 141.643 282.625C141.66 282.687 141.664 282.751 141.656 282.815C141.648 282.879 141.628 282.94 141.596 282.996C141.563 283.052 141.52 283.101 141.468 283.139L140.687 283.733L139.905 284.331C139.861 284.364 139.813 284.391 139.76 284.409C139.714 284.424 139.665 284.432 139.616 284.433Z" fill="#666538"/>
<path d="M196.287 294.07H192.969C192.905 294.07 192.842 294.057 192.783 294.032C192.724 294.007 192.67 293.971 192.625 293.925C192.579 293.881 192.543 293.827 192.518 293.768C192.493 293.709 192.48 293.646 192.48 293.582C192.48 293.517 192.493 293.453 192.518 293.393C192.543 293.333 192.579 293.279 192.625 293.234C192.717 293.144 192.84 293.094 192.969 293.093H196.287C196.416 293.093 196.541 293.144 196.632 293.236C196.724 293.328 196.775 293.452 196.775 293.582C196.774 293.711 196.723 293.834 196.631 293.926C196.54 294.017 196.416 294.069 196.287 294.07Z" fill="#666538"/>
<path d="M181.943 283.706C181.813 283.705 181.689 283.655 181.595 283.565L180.978 282.944L180.356 282.322C180.289 282.254 180.243 282.167 180.224 282.073C180.205 281.979 180.215 281.881 180.252 281.792C180.289 281.703 180.351 281.627 180.431 281.573C180.51 281.52 180.604 281.491 180.7 281.49C180.765 281.49 180.829 281.503 180.889 281.527C180.948 281.552 181.003 281.589 181.048 281.635L181.666 282.252L182.287 282.873C182.379 282.964 182.431 283.088 182.432 283.217C182.43 283.348 182.378 283.472 182.287 283.565C182.241 283.611 182.187 283.647 182.127 283.671C182.068 283.694 182.006 283.706 181.943 283.706Z" fill="#666538"/>
<path d="M233.643 293.789H230.435C230.338 293.789 230.244 293.76 230.163 293.707C230.083 293.653 230.02 293.577 229.983 293.488C229.946 293.399 229.936 293.301 229.954 293.207C229.973 293.112 230.019 293.025 230.087 292.956C230.132 292.91 230.187 292.874 230.246 292.849C230.306 292.824 230.37 292.811 230.435 292.812H233.643C233.708 292.811 233.772 292.824 233.832 292.849C233.891 292.874 233.946 292.91 233.991 292.956C234.059 293.025 234.105 293.112 234.124 293.207C234.142 293.301 234.132 293.399 234.095 293.488C234.058 293.577 233.995 293.653 233.915 293.707C233.834 293.76 233.74 293.789 233.643 293.789Z" fill="#666538"/>
<path d="M245.25 284.276C245.164 284.276 245.079 284.253 245.004 284.21C244.928 284.162 244.865 284.096 244.821 284.018C244.759 283.905 244.745 283.771 244.781 283.647C244.799 283.585 244.83 283.528 244.871 283.478C244.912 283.428 244.962 283.387 245.02 283.358L246.161 282.737L247.302 282.115C247.361 282.082 247.426 282.062 247.493 282.055C247.561 282.048 247.629 282.055 247.693 282.076C247.755 282.094 247.812 282.124 247.862 282.165C247.912 282.206 247.953 282.257 247.982 282.314C248.016 282.373 248.037 282.438 248.044 282.506C248.051 282.573 248.043 282.641 248.021 282.705C247.984 282.829 247.9 282.933 247.787 282.994L246.646 283.616L245.497 284.214C245.461 284.234 245.423 284.25 245.383 284.261C245.34 284.27 245.295 284.276 245.25 284.276Z" fill="#666538"/>
<path d="M74.7919 310.246H69.1252C69.0611 310.246 68.9976 310.233 68.9386 310.208C68.8795 310.183 68.826 310.147 68.7813 310.101C68.7352 310.056 68.6985 310.003 68.6737 309.944C68.6488 309.885 68.6363 309.821 68.6367 309.757C68.6378 309.628 68.6895 309.504 68.7809 309.413C68.8723 309.321 68.996 309.27 69.1252 309.269H74.7919C74.9212 309.27 75.0448 309.321 75.1362 309.413C75.2276 309.504 75.2794 309.628 75.2804 309.757C75.2809 309.821 75.2683 309.885 75.2435 309.944C75.2186 310.003 75.182 310.056 75.1358 310.101C75.0912 310.147 75.0377 310.183 74.9786 310.208C74.9195 310.233 74.856 310.246 74.7919 310.246Z" fill="#666538"/>
<path d="M90.7382 272.49C90.6517 272.49 90.5667 272.467 90.492 272.423C90.4135 272.381 90.3495 272.315 90.3083 272.236C90.274 272.177 90.2525 272.112 90.2451 272.045C90.2377 271.978 90.2446 271.91 90.2654 271.845C90.3021 271.72 90.3863 271.615 90.4998 271.552L92.7939 270.301L95.084 269.047C95.1429 269.014 95.208 268.993 95.2753 268.986C95.3426 268.98 95.4105 268.987 95.4748 269.008C95.5985 269.045 95.7024 269.129 95.7639 269.243C95.8254 269.356 95.8395 269.49 95.8031 269.614C95.786 269.675 95.7564 269.733 95.716 269.783C95.6757 269.832 95.6255 269.873 95.5686 269.903L93.2785 271.157L90.9844 272.412C90.9491 272.432 90.9109 272.446 90.8711 272.455C90.8292 272.474 90.7843 272.486 90.7382 272.49Z" fill="#666538"/>
<path d="M76.0148 290.33H71.6808C71.5843 290.33 71.4899 290.302 71.4095 290.248C71.3291 290.195 71.2664 290.119 71.2292 290.03C71.192 289.941 71.182 289.843 71.2004 289.748C71.2189 289.653 71.265 289.566 71.333 289.498C71.3785 289.452 71.4327 289.415 71.4924 289.39C71.5521 289.366 71.6161 289.353 71.6808 289.353H76.0148C76.0795 289.353 76.1435 289.366 76.2032 289.39C76.2629 289.415 76.3171 289.452 76.3627 289.498C76.4306 289.566 76.4767 289.653 76.4952 289.748C76.5137 289.843 76.5037 289.941 76.4665 290.03C76.4292 290.119 76.3665 290.195 76.2861 290.248C76.2057 290.302 76.1113 290.33 76.0148 290.33Z" fill="#666538"/>
</svg>
