<svg width="223" height="111" viewBox="0 0 223 111" fill="none" xmlns="http://www.w3.org/2000/svg">
<path d="M0 30C0 13.4315 13.4315 0 30 0H193C209.569 0 223 13.4315 223 30V81C223 97.5685 209.569 111 193 111H30C13.4315 111 0 97.5685 0 81V30Z" fill="#FF6500"/>
<path d="M113.52 71.2H133.6C134.187 71.2 134.693 71.4133 135.12 71.84C135.547 72.2667 135.76 72.7733 135.76 73.36V81.84C135.76 82.4267 135.547 82.9333 135.12 83.36C134.693 83.7867 134.187 84 133.6 84H91.36C90.7733 84 90.2667 83.7867 89.84 83.36C89.4133 82.9333 89.2 82.4267 89.2 81.84V74.96C89.2 72.9333 89.9733 71.36 91.52 70.24L115.44 53.12C117.147 51.84 118.267 50.6667 118.8 49.6C119.387 48.48 119.68 47.28 119.68 46C119.68 44.6667 119.2 43.3333 118.24 42C117.333 40.6667 115.573 40 112.96 40C111.147 40 109.707 40.3733 108.64 41.12C107.627 41.8133 106.96 42.48 106.64 43.12C106.373 43.7067 106 44.64 105.52 45.92C105.253 46.6133 104.853 47.0933 104.32 47.36C103.787 47.6267 103.12 47.76 102.32 47.76H92.48C92 47.76 91.5733 47.6 91.2 47.28C90.88 46.9067 90.72 46.48 90.72 46C90.8267 42.8533 91.7067 39.8667 93.36 37.04C95.0133 34.16 97.4933 31.8133 100.8 30C104.107 28.1333 108.133 27.2 112.88 27.2C117.413 27.2 121.307 28.08 124.56 29.84C127.813 31.5467 130.267 33.84 131.92 36.72C133.627 39.5467 134.48 42.64 134.48 46C134.48 49.2533 133.733 52.2133 132.24 54.88C130.8 57.4933 128.293 60.1067 124.72 62.72L113.52 71.2Z" fill="white"/>
</svg>
