<svg width="223" height="64" viewBox="0 0 223 64" fill="none" xmlns="http://www.w3.org/2000/svg">
<rect y="8" width="223" height="55.5" rx="27.75" fill="#FF6500"/>
<path d="M108.5 56.6C105.38 56.6 102.72 56.24 100.52 55.52C98.32 54.76 96.52 53.8 95.12 52.64C93.72 51.44 92.68 50.18 92 48.86C91.32 47.5 90.96 46.2 90.92 44.96C90.92 44.6 91.04 44.3 91.28 44.06C91.56 43.82 91.88 43.7 92.24 43.7H100.04C100.52 43.7 100.9 43.8 101.18 44C101.46 44.16 101.72 44.44 101.96 44.84C102.28 45.6 102.74 46.22 103.34 46.7C103.98 47.18 104.74 47.52 105.62 47.72C106.5 47.88 107.46 47.96 108.5 47.96C110.54 47.96 112.12 47.5 113.24 46.58C114.4 45.62 114.98 44.32 114.98 42.68C114.98 40.96 114.44 39.74 113.36 39.02C112.28 38.26 110.74 37.88 108.74 37.88H102.08C101.64 37.88 101.28 37.74 101 37.46C100.72 37.18 100.58 36.82 100.58 36.38V33.02C100.58 32.54 100.68 32.12 100.88 31.76C101.08 31.4 101.3 31.14 101.54 30.98L111.38 22.64H94.7C94.3 22.64 93.94 22.5 93.62 22.22C93.34 21.94 93.2 21.58 93.2 21.14V15.5C93.2 15.06 93.34 14.7 93.62 14.42C93.94 14.14 94.3 14 94.7 14H122.3C122.74 14 123.1 14.14 123.38 14.42C123.7 14.7 123.86 15.06 123.86 15.5V20.6C123.86 21.04 123.76 21.44 123.56 21.8C123.36 22.12 123.14 22.38 122.9 22.58L113.78 31.04L114.2 31.16C116.48 31.44 118.52 32.06 120.32 33.02C122.12 33.94 123.54 35.24 124.58 36.92C125.62 38.6 126.14 40.74 126.14 43.34C126.14 46.06 125.36 48.42 123.8 50.42C122.28 52.38 120.2 53.9 117.56 54.98C114.92 56.06 111.9 56.6 108.5 56.6Z" fill="white"/>
</svg>
