<svg width="708" height="170" viewBox="0 0 708 170" fill="none" xmlns="http://www.w3.org/2000/svg">
<rect x="241" width="222" height="170" rx="30" fill="#FF6500"/>
<path d="M0 89C0 72.4315 13.4315 59 30 59H193C209.569 59 223 72.4315 223 89V140C223 156.569 209.569 170 193 170H30C13.4315 170 0 156.569 0 140V89Z" fill="#FF6500"/>
<rect x="485" y="113" width="223" height="55.5" rx="27.75" fill="#FF6500"/>
<path d="M325.1 69.5C324.767 69.1 324.6 68.5667 324.6 67.9C324.6 66.9667 324.967 66.2333 325.7 65.7L347.2 49.2C347.333 49.0667 347.667 48.8 348.2 48.4C348.8 48 349.4 47.6667 350 47.4C350.6 47.1333 351.2 47 351.8 47H364C364.733 47 365.367 47.2667 365.9 47.8C366.433 48.3333 366.7 48.9667 366.7 49.7V114.3C366.7 115.033 366.433 115.667 365.9 116.2C365.367 116.733 364.733 117 364 117H350.9C350.167 117 349.533 116.733 349 116.2C348.467 115.667 348.2 115.033 348.2 114.3V70.6L336.3 79.6C335.767 80 335.2 80.2 334.6 80.2C333.733 80.2 333.033 79.8333 332.5 79.1L325.1 69.5Z" fill="white"/>
<path d="M113.52 130.2H133.6C134.187 130.2 134.693 130.413 135.12 130.84C135.547 131.267 135.76 131.773 135.76 132.36V140.84C135.76 141.427 135.547 141.933 135.12 142.36C134.693 142.787 134.187 143 133.6 143H91.36C90.7733 143 90.2667 142.787 89.84 142.36C89.4133 141.933 89.2 141.427 89.2 140.84V133.96C89.2 131.933 89.9733 130.36 91.52 129.24L115.44 112.12C117.147 110.84 118.267 109.667 118.8 108.6C119.387 107.48 119.68 106.28 119.68 105C119.68 103.667 119.2 102.333 118.24 101C117.333 99.6667 115.573 99 112.96 99C111.147 99 109.707 99.3733 108.64 100.12C107.627 100.813 106.96 101.48 106.64 102.12C106.373 102.707 106 103.64 105.52 104.92C105.253 105.613 104.853 106.093 104.32 106.36C103.787 106.627 103.12 106.76 102.32 106.76H92.48C92 106.76 91.5733 106.6 91.2 106.28C90.88 105.907 90.72 105.48 90.72 105C90.8267 101.853 91.7067 98.8667 93.36 96.04C95.0133 93.16 97.4933 90.8133 100.8 89C104.107 87.1333 108.133 86.2 112.88 86.2C117.413 86.2 121.307 87.08 124.56 88.84C127.813 90.5467 130.267 92.84 131.92 95.72C133.627 98.5467 134.48 101.64 134.48 105C134.48 108.253 133.733 111.213 132.24 113.88C130.8 116.493 128.293 119.107 124.72 121.72L113.52 130.2Z" fill="white"/>
<path d="M593.5 161.6C590.38 161.6 587.72 161.24 585.52 160.52C583.32 159.76 581.52 158.8 580.12 157.64C578.72 156.44 577.68 155.18 577 153.86C576.32 152.5 575.96 151.2 575.92 149.96C575.92 149.6 576.04 149.3 576.28 149.06C576.56 148.82 576.88 148.7 577.24 148.7H585.04C585.52 148.7 585.9 148.8 586.18 149C586.46 149.16 586.72 149.44 586.96 149.84C587.28 150.6 587.74 151.22 588.34 151.7C588.98 152.18 589.74 152.52 590.62 152.72C591.5 152.88 592.46 152.96 593.5 152.96C595.54 152.96 597.12 152.5 598.24 151.58C599.4 150.62 599.98 149.32 599.98 147.68C599.98 145.96 599.44 144.74 598.36 144.02C597.28 143.26 595.74 142.88 593.74 142.88H587.08C586.64 142.88 586.28 142.74 586 142.46C585.72 142.18 585.58 141.82 585.58 141.38V138.02C585.58 137.54 585.68 137.12 585.88 136.76C586.08 136.4 586.3 136.14 586.54 135.98L596.38 127.64H579.7C579.3 127.64 578.94 127.5 578.62 127.22C578.34 126.94 578.2 126.58 578.2 126.14V120.5C578.2 120.06 578.34 119.7 578.62 119.42C578.94 119.14 579.3 119 579.7 119H607.3C607.74 119 608.1 119.14 608.38 119.42C608.7 119.7 608.86 120.06 608.86 120.5V125.6C608.86 126.04 608.76 126.44 608.56 126.8C608.36 127.12 608.14 127.38 607.9 127.58L598.78 136.04L599.2 136.16C601.48 136.44 603.52 137.06 605.32 138.02C607.12 138.94 608.54 140.24 609.58 141.92C610.62 143.6 611.14 145.74 611.14 148.34C611.14 151.06 610.36 153.42 608.8 155.42C607.28 157.38 605.2 158.9 602.56 159.98C599.92 161.06 596.9 161.6 593.5 161.6Z" fill="white"/>
</svg>
