<svg width="222" height="170" viewBox="0 0 222 170" fill="none" xmlns="http://www.w3.org/2000/svg">
<rect width="222" height="170" rx="30" fill="#FF6500"/>
<path d="M84.1 69.5C83.7667 69.1 83.6 68.5667 83.6 67.9C83.6 66.9667 83.9667 66.2333 84.7 65.7L106.2 49.2C106.333 49.0667 106.667 48.8 107.2 48.4C107.8 48 108.4 47.6667 109 47.4C109.6 47.1333 110.2 47 110.8 47H123C123.733 47 124.367 47.2667 124.9 47.8C125.433 48.3333 125.7 48.9667 125.7 49.7V114.3C125.7 115.033 125.433 115.667 124.9 116.2C124.367 116.733 123.733 117 123 117H109.9C109.167 117 108.533 116.733 108 116.2C107.467 115.667 107.2 115.033 107.2 114.3V70.6L95.3 79.6C94.7667 80 94.2 80.2 93.6 80.2C92.7333 80.2 92.0333 79.8333 91.5 79.1L84.1 69.5Z" fill="white"/>
</svg>
